{
.appVersion = "1230";
DisplayStrings = (
"QUICK WAFTING"
);
classes = (
{
automatic = 1;
code = "A Aacute Abreve Acircumflex Adieresis Agrave Amacron Aogonek Aring Atilde AE B C Cacute Ccaron Ccedilla D Eth Dcaron Dcroat E Eacute Ecaron Ecircumflex Edieresis Edotaccent Egrave Emacron Eogonek F G Gbreve Gcommaaccent H I IJ Iacute Icircumflex Idieresis Idotaccent Igrave Imacron Iogonek J K Kcommaaccent L Lacute Lcaron Lcommaaccent Ldot Lslash M N Nacute Ncaron Ncommaaccent Ntilde O Oacute Ocircumflex Odieresis Ograve Ohungarumlaut Omacron Oslash Otilde OE P Thorn Q R Racute Rcaron Rcommaaccent S Sacute Scaron Scedilla Scommaaccent T Tcaron Tcedilla Tcommaaccent U Uacute Ucircumflex Udieresis Ugrave Uhungarumlaut Umacron Uogonek Uring V W Wacute Wcircumflex Wdieresis Wgrave X Y Yacute Ycircumflex Ydieresis Ygrave Z Zacute Zcaron Zdotaccent A-cy Be-cy Ve-cy Ge-cy Gje-cy Gheupturn-cy De-cy Ie-cy Iegrave-cy Io-cy Zhe-cy Ze-cy Ii-cy Iishort-cy Iigrave-cy Ka-cy Kje-cy El-cy Em-cy En-cy O-cy Pe-cy Er-cy Es-cy Te-cy U-cy Ushort-cy Ef-cy Ha-cy Che-cy Tse-cy Sha-cy Shcha-cy Dzhe-cy Softsign-cy Hardsign-cy Yeru-cy Lje-cy Nje-cy Dze-cy E-cy Ereversed-cy I-cy Yi-cy Je-cy Tshe-cy Iu-cy Ia-cy Dje-cy Yat-cy Yusbig-cy Izhitsa-cy Kadescender-cy Kaverticalstroke-cy Endescender-cy Ustraitstroke-cy Cheverticalstroke-cy Schwa-cy De-cy.loclBGR Ii-cy.loclBGR Iishort-cy.loclBGR Iigrave-cy.loclBGR El-cy.loclBGR Ef-cy.loclBGR Gamma Delta Pi Omega";
name = Uppercase;
}
);
copyright = "Copyright 2010 The Yanone Kaffeesatz Project Authors (https://github.com/alexeiva/yanone-kaffeesatz)";
customParameters = (
{
name = license;
value = "This Font Software is licensed under the SIL Open Font License, Version 1.1. This license is available with a FAQ at: http://scripts.sil.org/OFL";
},
{
name = licenseURL;
value = "http://scripts.sil.org/OFL";
},
{
name = fsType;
value = (
);
},
{
name = "Use Typo Metrics";
value = 1;
},
{
name = "Disable Last Change";
value = 1;
},
{
name = "Use Line Breaks";

glyphs = (
{
color = 3;
glyphname = A;
layers = (
{
associatedMasterId = "B965DA2D-85AA-48ED-BC60-A8A438260572";
layerId = "1A97840C-00EB-45FE-8D8D-2E841865655B";
width = 600;
},
{
anchors = (
{
name = bottom;
position = "{218, 0}";
},
{
name = ogonek;
position = "{420, 10}";
},
{
name = top;
position = "{218, 700}";
}
);
hints = (
{
horizontal = 1;
place = "{0, 0}";
type = Stem;
},
{
horizontal = 1;
place = "{0, 0}";
type = Stem;
}
);
layerId = "B965DA2D-85AA-48ED-BC60-A8A438260572";
paths = (
{
closed = 1;
nodes = (
"31 -1 OFFCURVE",
"36 -1 OFFCURVE",
"38 6 CURVE SMOOTH",
"166 470 LINE SMOOTH",
"191 562 OFFCURVE",
"214 648 OFFCURVE",
"217 669 CURVE",
"219 648 OFFCURVE",
"243 561 OFFCURVE",
"268 470 CURVE SMOOTH",
"401 0 LINE",
"406 -1 OFFCURVE",
"413 -1 OFFCURVE",
"417 -1 CURVE SMOOTH",
"425 -1 OFFCURVE",
"427 2 OFFCURVE",
"425 10 CURVE",
"224 703 LINE",
"223 704 OFFCURVE",
"219 705 OFFCURVE",
"215 705 CURVE SMOOTH",
"212 705 OFFCURVE",
"210 704 OFFCURVE",
"210 703 CURVE",
"10 0 LINE",
"17 -1 OFFCURVE",
"22 -1 OFFCURVE",
"24 -1 CURVE SMOOTH"
);
},
{
closed = 1;
nodes = (
"355 212 LINE",
"355 236 LINE",
"92 236 LINE",
"92 212 LINE"
);
}
);
width = 436;
},
{
anchors = (
{
name = bottom;
position = "{219, 0}";
},
{
name = ogonek;
position = "{403, 10}";
},
{
name = top;
position = "{219, 700}";
}
);
hints = (
{
horizontal = 1;
place = "{0, 0}";
type = Stem;
},
{
horizontal = 1;
place = "{0, 0}";
type = Stem;
}
);
layerId = "113A2EC7-7A34-4A41-8395-62473D9E96C5";
paths = (
{
closed = 1;
nodes = (
"118 -2 OFFCURVE",
"121 5 OFFCURVE",
"124 19 CURVE SMOOTH",
"193 353 LINE SMOOTH",
"204 406 OFFCURVE",
"213 479 OFFCURVE",
"220 542 CURVE",
"226 479 OFFCURVE",
"235 406 OFFCURVE",
"246 353 CURVE SMOOTH",
"319 0 LINE",
"348 -2 OFFCURVE",
"369 -2 OFFCURVE",
"384 -2 CURVE SMOOTH",
"429 -2 OFFCURVE",
"437 5 OFFCURVE",
"434 18 CURVE",
"267 698 LINE",
"253 701 OFFCURVE",
"233 702 OFFCURVE",
"214 702 CURVE SMOOTH",
"188 702 OFFCURVE",
"172 696 OFFCURVE",
"169 681 CURVE",
"2 2 LINE",
"28 -1 OFFCURVE",
"58 -2 OFFCURVE",
"73 -2 CURVE SMOOTH"
);
},
{
closed = 1;
nodes = (
"342 159 LINE",
"342 260 LINE",
"116 260 LINE",
"116 159 LINE"
);
}
);
width = 437;
}
);
leftKerningGroup = A;
rightKerningGroup = A;
unicode = 0041;
},
{
glyphname = Abreve;
layers = (
{
associatedMasterId = "B965DA2D-85AA-48ED-BC60-A8A438260572";
layerId = "1A97840C-00EB-45FE-8D8D-2E841865655B";
width = 600;
},
{
background = {
paths = (
{
closed = 1;
nodes = (
"348 661 OFFCURVE",
"344 656 OFFCURVE",
"337 648 CURVE",
"313 608 LINE",
"309 600 OFFCURVE",
"307 594 OFFCURVE",
"306 591 CURVE SMOOTH",
"304 585 OFFCURVE",
"303 579 OFFCURVE",
"297 565 CURVE SMOOTH",
"255 463 OFFCURVE",
"141 161 OFFCURVE",
"118 110 CURVE SMOOTH",
"89 45 OFFCURVE",
"76 42 OFFCURVE",
"26 25 CURVE SMOOTH",
"11 20 OFFCURVE",
"4 11 OFFCURVE",
"4 5 CURVE SMOOTH",
"4 -1 OFFCURVE",
"9 -5 OFFCURVE",
"27 -5 CURVE SMOOTH",
"42 -5 OFFCURVE",
"94 0 OFFCURVE",
"131 0 CURVE SMOOTH",
"168 0 OFFCURVE",
"193 -3 OFFCURVE",
"210 -3 CURVE SMOOTH",
"223 -3 OFFCURVE",
"238 0 OFFCURVE",
"238 10 CURVE SMOOTH",
"238 17 OFFCURVE",
"228 23 OFFCURVE",
"211 28 CURVE SMOOTH",
"166 42 OFFCURVE",
"162 59 OFFCURVE",
"162 71 CURVE SMOOTH",
"162 96 OFFCURVE",
"188 181 OFFCURVE",
"214 246 CURVE",
"216 249 OFFCURVE",
"221 254 OFFCURVE",
"225 254 CURVE",
"246 257 OFFCURVE",
"334 258 OFFCURVE",
"389 258 CURVE SMOOTH",
"418 258 OFFCURVE",
"422 252 OFFCURVE",
"423 248 CURVE",
"446 184 OFFCURVE",
"471 118 OFFCURVE",
"479 77 CURVE SMOOTH",
"483 56 OFFCURVE",
"487 36 OFFCURVE",
"439 26 CURVE",
"421 23 OFFCURVE",
"415 15 OFFCURVE",
"415 10 CURVE SMOOTH",
"415 5 OFFCURVE",
"421 -2 OFFCURVE",
"446 -2 CURVE SMOOTH",
"471 -2 OFFCURVE",
"485 0 OFFCURVE",
"517 0 CURVE SMOOTH",
"561 0 OFFCURVE",
"610 -5 OFFCURVE",
"643 -5 CURVE SMOOTH",
"668 -5 OFFCURVE",
"675 1 OFFCURVE",
"675 8 CURVE SMOOTH",
"675 15 OFFCURVE",
"667 20 OFFCURVE",
"651 25 CURVE",
"606 36 OFFCURVE",
"590 44 OFFCURVE",
"557 126 CURVE SMOOTH",
"540 167 OFFCURVE",
"465 365 OFFCURVE",
"413 511 CURVE SMOOTH",
"394 563 OFFCURVE",
"377 608 OFFCURVE",
"369 635 CURVE",
"361 657 OFFCURVE",
"357 661 OFFCURVE",
"353 661 CURVE SMOOTH"
);
},
{
closed = 1;
nodes = (
"365 300 OFFCURVE",
"282 301 OFFCURVE",
"242 300 CURVE SMOOTH",
"238 300 OFFCURVE",
"236 303 OFFCURVE",
"237 307 CURVE SMOOTH",
"245 338 OFFCURVE",
"297 478 OFFCURVE",
"315 526 CURVE",
"318 533 OFFCURVE",
"320 532 OFFCURVE",
"323 526 CURVE",
"332 512 OFFCURVE",
"384 362 OFFCURVE",
"401 311 CURVE SMOOTH",
"402 308 OFFCURVE",
"399 303 OFFCURVE",
"398 303 CURVE"
);
},
{
closed = 1;
nodes = (
"439 692 OFFCURVE",
"476 760 OFFCURVE",
"483 800 CURVE SMOOTH",
"485 810 OFFCURVE",
"483 816 OFFCURVE",
"477 816 CURVE SMOOTH",
"470 816 OFFCURVE",
"463 810 OFFCURVE",
"457 802 CURVE",
"422 762 OFFCURVE",
"384 756 OFFCURVE",
"348 756 CURVE SMOOTH",
"303 756 OFFCURVE",
"271 770 OFFCURVE",
"242 805 CURVE",
"236 813 OFFCURVE",
"229 819 OFFCURVE",
"225 819 CURVE SMOOTH",
"215 819 OFFCURVE",
"213 804 OFFCURVE",
"214 797 CURVE SMOOTH",
"223 736 OFFCURVE",
"275 692 OFFCURVE",
"341 692 CURVE SMOOTH"
);
}
);
};
components = (
{
name = A;
},
{
name = brevecomb;
transform = "{1, 0, 0, 1, 93, 200}";
}
);
layerId = "B965DA2D-85AA-48ED-BC60-A8A438260572";
width = 436;
},
{
components = (
{
name = A;
},
{
name = brevecomb;
transform = "{1, 0, 0, 1, 79, 200}";
}
);
layerId = "113A2EC7-7A34-4A41-8395-62473D9E96C5";
width = 437;
}
);
leftKerningGroup = A;
rightKerningGroup = A;
unicode = 0102;
},
{
glyphname = Amacron;
layers = (
{
associatedMasterId = "B965DA2D-85AA-48ED-BC60-A8A438260572";
layerId = "1A97840C-00EB-45FE-8D8D-2E841865655B";
width = 600;
},
{
background = {
paths = (
{
closed = 1;
nodes = (
"348 661 OFFCURVE",
"344 656 OFFCURVE",
"337 648 CURVE",
"313 608 LINE",
"309 600 OFFCURVE",
"307 594 OFFCURVE",
"306 591 CURVE SMOOTH",
"304 585 OFFCURVE",
"303 579 OFFCURVE",
"297 565 CURVE SMOOTH",
"255 463 OFFCURVE",
"141 161 OFFCURVE",
"118 110 CURVE SMOOTH",
"89 45 OFFCURVE",
"76 42 OFFCURVE",
"26 25 CURVE SMOOTH",
"11 20 OFFCURVE",
"4 11 OFFCURVE",
"4 5 CURVE SMOOTH",
"4 -1 OFFCURVE",
"9 -5 OFFCURVE",
"27 -5 CURVE SMOOTH",
"42 -5 OFFCURVE",
"94 0 OFFCURVE",
"131 0 CURVE SMOOTH",
"168 0 OFFCURVE",
"193 -3 OFFCURVE",
"210 -3 CURVE SMOOTH",
"223 -3 OFFCURVE",
"238 0 OFFCURVE",
"238 10 CURVE SMOOTH",
"238 17 OFFCURVE",
"228 23 OFFCURVE",
"211 28 CURVE SMOOTH",
"166 42 OFFCURVE",
"162 59 OFFCURVE",
"162 71 CURVE SMOOTH",
"162 96 OFFCURVE",
"188 181 OFFCURVE",
"214 246 CURVE",
"216 249 OFFCURVE",
"221 254 OFFCURVE",
"225 254 CURVE",
"246 257 OFFCURVE",
"334 258 OFFCURVE",
"389 258 CURVE SMOOTH",
"418 258 OFFCURVE",
"422 252 OFFCURVE",
"423 248 CURVE",
"446 184 OFFCURVE",
"471 118 OFFCURVE",
"479 77 CURVE SMOOTH",
"483 56 OFFCURVE",
"487 36 OFFCURVE",
"439 26 CURVE",
"421 23 OFFCURVE",
"415 15 OFFCURVE",
"415 10 CURVE SMOOTH",
"415 5 OFFCURVE",
"421 -2 OFFCURVE",
"446 -2 CURVE SMOOTH",
"471 -2 OFFCURVE",
"485 0 OFFCURVE",
"517 0 CURVE SMOOTH",
"561 0 OFFCURVE",
"610 -5 OFFCURVE",
"643 -5 CURVE SMOOTH",
"668 -5 OFFCURVE",
"675 1 OFFCURVE",
"675 8 CURVE SMOOTH",
"675 15 OFFCURVE",
"667 20 OFFCURVE",
"651 25 CURVE",
"606 36 OFFCURVE",
"590 44 OFFCURVE",
"557 126 CURVE SMOOTH",
"540 167 OFFCURVE",
"465 365 OFFCURVE",
"413 511 CURVE SMOOTH",
"394 563 OFFCURVE",
"377 608 OFFCURVE",
"369 635 CURVE",
"361 657 OFFCURVE",
"357 661 OFFCURVE",
"353 661 CURVE SMOOTH"
);
},
{
closed = 1;
nodes = (
"365 300 OFFCURVE",
"282 301 OFFCURVE",
"242 300 CURVE SMOOTH",
"238 300 OFFCURVE",
"236 303 OFFCURVE",
"237 307 CURVE SMOOTH",
"245 338 OFFCURVE",
"297 478 OFFCURVE",
"315 526 CURVE",
"318 533 OFFCURVE",
"320 532 OFFCURVE",
"323 526 CURVE",
"332 512 OFFCURVE",
"384 362 OFFCURVE",
"401 311 CURVE SMOOTH",
"402 308 OFFCURVE",
"399 303 OFFCURVE",
"398 303 CURVE"
);
},
{
closed = 1;
nodes = (
"234 776 LINE SMOOTH",
"227 776 OFFCURVE",
"217 748 OFFCURVE",
"217 736 CURVE SMOOTH",
"217 726 OFFCURVE",
"220 718 OFFCURVE",
"226 718 CURVE SMOOTH",
"460 720 LINE SMOOTH",
"468 720 OFFCURVE",
"481 737 OFFCURVE",
"481 759 CURVE SMOOTH",
"481 770 OFFCURVE",
"474 783 OFFCURVE",
"470 783 CURVE SMOOTH"
);
}
);
};
components = (
{
name = A;
},
{
name = macron;
transform = "{1, 0, 0, 1, 93, 200}";
}
);
layerId = "B965DA2D-85AA-48ED-BC60-A8A438260572";
width = 436;
},
{
components = (
{
name = A;
},
{
name = macron;
transform = "{1, 0, 0, 1, 79, 200}";
}
);
layerId = "113A2EC7-7A34-4A41-8395-62473D9E96C5";
width = 437;
}
);
leftKerningGroup = A;
rightKerningGroup = A;
unicode = 0100;
},
{
glyphname = Aogonek;
layers = (
{
associatedMasterId = "B965DA2D-85AA-48ED-BC60-A8A438260572";
background = {
paths = (
{
closed = 1;
nodes = (
"348 661 OFFCURVE",
"344 657 OFFCURVE",
"337 649 CURVE",
"330 638 OFFCURVE",
"316 612 OFFCURVE",
"307 600 CURVE",
"305 597 OFFCURVE",
"305 595 OFFCURVE",
"305 592 CURVE SMOOTH",
"305 587 OFFCURVE",
"303 579 OFFCURVE",
"299 571 CURVE",
"255 463 OFFCURVE",
"141 161 OFFCURVE",
"118 110 CURVE SMOOTH",
"89 45 OFFCURVE",
"76 41 OFFCURVE",
"26 24 CURVE SMOOTH",
"11 19 OFFCURVE",
"4 11 OFFCURVE",
"4 4 CURVE SMOOTH",
"4 -2 OFFCURVE",
"9 -6 OFFCURVE",
"27 -6 CURVE SMOOTH",
"42 -6 OFFCURVE",
"94 0 OFFCURVE",
"131 0 CURVE SMOOTH",
"168 0 OFFCURVE",
"193 -4 OFFCURVE",
"210 -4 CURVE SMOOTH",
"223 -4 OFFCURVE",
"238 -1 OFFCURVE",
"238 9 CURVE SMOOTH",
"238 16 OFFCURVE",
"228 22 OFFCURVE",
"211 27 CURVE SMOOTH",
"166 41 OFFCURVE",
"162 59 OFFCURVE",
"162 71 CURVE SMOOTH",
"162 96 OFFCURVE",
"187 178 OFFCURVE",
"213 243 CURVE",
"215 246 OFFCURVE",
"222 254 OFFCURVE",
"226 254 CURVE",
"247 257 OFFCURVE",
"332 258 OFFCURVE",
"383 258 CURVE SMOOTH",
"411 258 OFFCURVE",
"422 252 OFFCURVE",
"423 248 CURVE",
"446 184 OFFCURVE",
"471 118 OFFCURVE",
"479 77 CURVE SMOOTH",
"483 56 OFFCURVE",
"487 36 OFFCURVE",
"439 26 CURVE",
"421 23 OFFCURVE",
"415 15 OFFCURVE",
"415 10 CURVE SMOOTH",
"415 5 OFFCURVE",
"421 -2 OFFCURVE",
"446 -2 CURVE SMOOTH",
"471 -2 OFFCURVE",
"485 0 OFFCURVE",
"517 0 CURVE SMOOTH",
"528 0 OFFCURVE",
"540 0 OFFCURVE",
"552 -1 CURVE",
"477 -50 OFFCURVE",
"420 -121 OFFCURVE",
"420 -174 CURVE SMOOTH",
"420 -223 OFFCURVE",
"451 -264 OFFCURVE",
"511 -264 CURVE SMOOTH",
"562 -264 OFFCURVE",
"596 -238 OFFCURVE",
"610 -215 CURVE",
"612 -213 OFFCURVE",
"617 -201 OFFCURVE",
"617 -194 CURVE SMOOTH",
"617 -187 OFFCURVE",
"612 -183 OFFCURVE",
"607 -186 CURVE",
"590 -195 OFFCURVE",
"567 -201 OFFCURVE",
"547 -201 CURVE SMOOTH",
"521 -201 OFFCURVE",
"495 -182 OFFCURVE",
"495 -151 CURVE SMOOTH",
"495 -115 OFFCURVE",
"523 -57 OFFCURVE",
"582 -3 CURVE",
"605 -5 OFFCURVE",
"626 -7 OFFCURVE",
"643 -7 CURVE SMOOTH",
"668 -7 OFFCURVE",
"675 -1 OFFCURVE",
"675 6 CURVE SMOOTH",
"675 13 OFFCURVE",
"667 19 OFFCURVE",
"651 23 CURVE SMOOTH",
"606 34 OFFCURVE",
"590 44 OFFCURVE",
"557 126 CURVE SMOOTH",
"540 167 OFFCURVE",
"465 365 OFFCURVE",
"413 511 CURVE SMOOTH",
"394 563 OFFCURVE",
"377 608 OFFCURVE",
"369 635 CURVE",
"361 657 OFFCURVE",
"357 661 OFFCURVE",
"353 661 CURVE SMOOTH"
);
},
{
closed = 1;
nodes = (
"361 300 OFFCURVE",
"286 301 OFFCURVE",
"246 300 CURVE SMOOTH",
"242 300 OFFCURVE",
"238 302 OFFCURVE",
"238 309 CURVE",
"246 340 OFFCURVE",
"297 478 OFFCURVE",
"315 526 CURVE",
"318 533 OFFCURVE",
"320 532 OFFCURVE",
"323 526 CURVE",
"332 512 OFFCURVE",
"384 362 OFFCURVE",
"401 311 CURVE SMOOTH",
"402 308 OFFCURVE",
"396 303 OFFCURVE",
"395 303 CURVE"
);
}
);
};
layerId = "AFD4A0AA-4700-45E0-B7A4-2B37255411CB";
name = "Light Apr 18 13, 15:18";
paths = (
{
closed = 1;
nodes = (
"166 470 LINE SMOOTH",
"191 562 OFFCURVE",
"214 648 OFFCURVE",
"217 669 CURVE",
"219 648 OFFCURVE",
"243 561 OFFCURVE",
"268 470 CURVE SMOOTH",
"401 0 LINE",
"406 -1 OFFCURVE",
"413 -1 OFFCURVE",
"417 -1 CURVE SMOOTH",
"425 -1 OFFCURVE",
"427 2 OFFCURVE",
"425 10 CURVE",
"224 703 LINE",
"223 704 OFFCURVE",
"219 705 OFFCURVE",
"215 705 CURVE SMOOTH",
"212 705 OFFCURVE",
"210 704 OFFCURVE",
"210 703 CURVE",
"10 0 LINE",
"17 -1 OFFCURVE",
"22 -1 OFFCURVE",
"24 -1 CURVE SMOOTH",
"31 -1 OFFCURVE",
"36 -1 OFFCURVE",
"38 6 CURVE SMOOTH"
);
},
{
closed = 1;
nodes = (
"92 212 LINE",
"355 212 LINE",
"355 236 LINE",
"92 236 LINE"
);
},
{
closed = 1;
nodes = (
"354 -12 OFFCURVE",
"313 -66 OFFCURVE",
"313 -118 CURVE SMOOTH",
"313 -168 OFFCURVE",
"337 -195 OFFCURVE",
"383 -195 CURVE SMOOTH",
"405 -195 OFFCURVE",
"424 -190 OFFCURVE",
"424 -177 CURVE SMOOTH",
"424 -175 OFFCURVE",
"423 -172 OFFCURVE",
"422 -169 CURVE SMOOTH",
"421 -166 OFFCURVE",
"420 -164 OFFCURVE",
"418 -162 CURVE",
"406 -168 OFFCURVE",
"398 -171 OFFCURVE",
"384 -171 CURVE SMOOTH",
"350 -171 OFFCURVE",
"337 -153 OFFCURVE",
"337 -118 CURVE SMOOTH",
"337 -71 OFFCURVE",
"378 -20 OFFCURVE",
"423 0 CURVE",
"422 7 OFFCURVE",
"417 15 OFFCURVE",
"410 15 CURVE SMOOTH",
"407 15 OFFCURVE",
"401 13 OFFCURVE",
"393 8 CURVE SMOOTH"
);
}
);
width = 436;
},
{
associatedMasterId = "B965DA2D-85AA-48ED-BC60-A8A438260572";
background = {
paths = (
{
closed = 1;
nodes = (
"193 353 LINE SMOOTH",
"204 406 OFFCURVE",
"213 479 OFFCURVE",
"220 542 CURVE",
"226 479 OFFCURVE",
"235 406 OFFCURVE",
"246 353 CURVE SMOOTH",
"319 0 LINE",
"348 -2 OFFCURVE",
"369 -2 OFFCURVE",
"384 -2 CURVE SMOOTH",
"429 -2 OFFCURVE",
"437 5 OFFCURVE",
"434 18 CURVE",
"267 698 LINE",
"253 701 OFFCURVE",
"233 702 OFFCURVE",
"214 702 CURVE SMOOTH",
"188 702 OFFCURVE",
"172 696 OFFCURVE",
"169 681 CURVE",
"2 2 LINE",
"28 -1 OFFCURVE",
"58 -2 OFFCURVE",
"73 -2 CURVE SMOOTH",
"118 -2 OFFCURVE",
"121 5 OFFCURVE",
"124 19 CURVE SMOOTH"
);
},
{
closed = 1;
nodes = (
"116 159 LINE",
"342 159 LINE",
"342 260 LINE",
"116 260 LINE"
);
},
{
closed = 1;
nodes = (
"338 32 OFFCURVE",
"273 -31 OFFCURVE",
"273 -106 CURVE SMOOTH",
"273 -176 OFFCURVE",
"314 -195 OFFCURVE",
"362 -195 CURVE SMOOTH",
"395 -195 OFFCURVE",
"418 -189 OFFCURVE",
"428 -173 CURVE SMOOTH",
"431 -168 OFFCURVE",
"433 -162 OFFCURVE",
"433 -154 CURVE SMOOTH",
"433 -144 OFFCURVE",
"430 -126 OFFCURVE",
"422 -110 CURVE",
"413 -116 OFFCURVE",
"405 -117 OFFCURVE",
"397 -117 CURVE SMOOTH",
"379 -117 OFFCURVE",
"372 -108 OFFCURVE",
"372 -90 CURVE SMOOTH",
"372 -57 OFFCURVE",
"407 -20 OFFCURVE",
"433 0 CURVE",
"428 12 OFFCURVE",
"417 23 OFFCURVE",
"404 28 CURVE SMOOTH",
"397 31 OFFCURVE",
"390 32 OFFCURVE",
"382 32 CURVE SMOOTH"
);
}
);
};
guideLines = (
{
angle = 90;
position = "{435, 32}";
}
);
layerId = "9BB2E435-5D00-417D-9661-512C1A0542FC";
name = "Bold Apr 18 13, 18:23";
paths = (
{
closed = 1;
nodes = (
"267 698 LINE",
"253 701 OFFCURVE",
"233 702 OFFCURVE",
"214 702 CURVE SMOOTH",
"188 702 OFFCURVE",
"172 696 OFFCURVE",
"169 681 CURVE",
"2 2 LINE",
"28 -1 OFFCURVE",
"58 -2 OFFCURVE",
"73 -2 CURVE SMOOTH",
"118 -2 OFFCURVE",
"121 5 OFFCURVE",
"124 19 CURVE SMOOTH",
"152.922 159 LINE",
"286.119 159 LINE",
"318.714 1.384 LINE",
"292.271 -24 OFFCURVE",
"271 -63 OFFCURVE",
"271 -106 CURVE SMOOTH",
"271 -176 OFFCURVE",
"312 -195 OFFCURVE",
"360 -195 CURVE SMOOTH",
"401 -195 OFFCURVE",
"431 -184 OFFCURVE",
"431 -154 CURVE SMOOTH",
"431 -144 OFFCURVE",
"427 -125 OFFCURVE",
"420 -110 CURVE",
"413 -115 OFFCURVE",
"405 -117 OFFCURVE",
"395 -117 CURVE SMOOTH",
"377 -117 OFFCURVE",
"370 -108 OFFCURVE",
"370 -90 CURVE SMOOTH",
"370 -57 OFFCURVE",
"403 -16 OFFCURVE",
"428.994 4.184 CURVE SMOOTH",
"434 8 OFFCURVE",
"435.35 12.149 OFFCURVE",
"434 18 CURVE SMOOTH"
);
},
{
closed = 1;
nodes = (
"173.787 260 LINE",
"193 353 LINE SMOOTH",
"204 406 OFFCURVE",
"213 479 OFFCURVE",
"220 542 CURVE",
"226 479 OFFCURVE",
"235 406 OFFCURVE",
"246 353 CURVE SMOOTH",
"265.232 260 LINE"
);
}
);
width = 437;
},
{
associatedMasterId = "B965DA2D-85AA-48ED-BC60-A8A438260572";
layerId = "1A97840C-00EB-45FE-8D8D-2E841865655B";
width = 600;
},
{
background = {
paths = (
{
closed = 1;
nodes = (
"348 661 OFFCURVE",
"344 657 OFFCURVE",
"337 649 CURVE",
"330 638 OFFCURVE",
"316 612 OFFCURVE",
"307 600 CURVE",
"305 597 OFFCURVE",
"305 595 OFFCURVE",
"305 592 CURVE SMOOTH",
"305 587 OFFCURVE",
"303 579 OFFCURVE",
"299 571 CURVE",
"255 463 OFFCURVE",
"141 161 OFFCURVE",
"118 110 CURVE SMOOTH",
"89 45 OFFCURVE",
"76 41 OFFCURVE",
"26 24 CURVE SMOOTH",
"11 19 OFFCURVE",
"4 11 OFFCURVE",
"4 4 CURVE SMOOTH",
"4 -2 OFFCURVE",
"9 -6 OFFCURVE",
"27 -6 CURVE SMOOTH",
"42 -6 OFFCURVE",
"94 0 OFFCURVE",
"131 0 CURVE SMOOTH",
"168 0 OFFCURVE",
"193 -4 OFFCURVE",
"210 -4 CURVE SMOOTH",
"223 -4 OFFCURVE",
"238 -1 OFFCURVE",
"238 9 CURVE SMOOTH",
"238 16 OFFCURVE",
"228 22 OFFCURVE",
"211 27 CURVE SMOOTH",
"166 41 OFFCURVE",
"162 59 OFFCURVE",
"162 71 CURVE SMOOTH",
"162 96 OFFCURVE",
"187 178 OFFCURVE",
"213 243 CURVE",
"215 246 OFFCURVE",
"222 254 OFFCURVE",
"226 254 CURVE",
"247 257 OFFCURVE",
"332 258 OFFCURVE",
"383 258 CURVE SMOOTH",
"411 258 OFFCURVE",
"422 252 OFFCURVE",
"423 248 CURVE",
"446 184 OFFCURVE",
"471 118 OFFCURVE",
"479 77 CURVE SMOOTH",
"483 56 OFFCURVE",
"487 36 OFFCURVE",
"439 26 CURVE",
"421 23 OFFCURVE",
"415 15 OFFCURVE",
"415 10 CURVE SMOOTH",
"415 5 OFFCURVE",
"421 -2 OFFCURVE",
"446 -2 CURVE SMOOTH",
"471 -2 OFFCURVE",
"485 0 OFFCURVE",
"517 0 CURVE SMOOTH",
"528 0 OFFCURVE",
"540 0 OFFCURVE",
"552 -1 CURVE",
"477 -50 OFFCURVE",
"420 -121 OFFCURVE",
"420 -174 CURVE SMOOTH",
"420 -223 OFFCURVE",
"451 -264 OFFCURVE",
"511 -264 CURVE SMOOTH",
"562 -264 OFFCURVE",
"596 -238 OFFCURVE",
"610 -215 CURVE",
"612 -213 OFFCURVE",
"617 -201 OFFCURVE",
"617 -194 CURVE SMOOTH",
"617 -187 OFFCURVE",
"612 -183 OFFCURVE",
"607 -186 CURVE",
"590 -195 OFFCURVE",
"567 -201 OFFCURVE",
"547 -201 CURVE SMOOTH",
"521 -201 OFFCURVE",
"495 -182 OFFCURVE",
"495 -151 CURVE SMOOTH",
"495 -115 OFFCURVE",
"523 -57 OFFCURVE",
"582 -3 CURVE",
"605 -5 OFFCURVE",
"626 -7 OFFCURVE",
"643 -7 CURVE SMOOTH",
"668 -7 OFFCURVE",
"675 -1 OFFCURVE",
"675 6 CURVE SMOOTH",
"675 13 OFFCURVE",
"667 19 OFFCURVE",
"651 23 CURVE SMOOTH",
"606 34 OFFCURVE",
"590 44 OFFCURVE",
"557 126 CURVE SMOOTH",
"540 167 OFFCURVE",
"465 365 OFFCURVE",
"413 511 CURVE SMOOTH",
"394 563 OFFCURVE",
"377 608 OFFCURVE",
"369 635 CURVE",
"361 657 OFFCURVE",
"357 661 OFFCURVE",
"353 661 CURVE SMOOTH"
);
},
{
closed = 1;
nodes = (
"361 300 OFFCURVE",
"286 301 OFFCURVE",
"246 300 CURVE SMOOTH",
"242 300 OFFCURVE",
"238 302 OFFCURVE",
"238 309 CURVE",
"246 340 OFFCURVE",
"297 478 OFFCURVE",
"315 526 CURVE",
"318 533 OFFCURVE",
"320 532 OFFCURVE",
"323 526 CURVE",
"332 512 OFFCURVE",
"384 362 OFFCURVE",
"401 311 CURVE SMOOTH",
"402 308 OFFCURVE",
"396 303 OFFCURVE",
"395 303 CURVE"
);
},
{
closed = 1;
nodes = (
"354 -12 OFFCURVE",
"313 -66 OFFCURVE",
"313 -118 CURVE SMOOTH",
"313 -168 OFFCURVE",
"337 -195 OFFCURVE",
"383 -195 CURVE SMOOTH",
"405 -195 OFFCURVE",
"424 -190 OFFCURVE",
"424 -177 CURVE SMOOTH",
"424 -175 OFFCURVE",
"423 -172 OFFCURVE",
"422 -169 CURVE SMOOTH",
"421 -166 OFFCURVE",
"420 -164 OFFCURVE",
"418 -162 CURVE",
"406 -168 OFFCURVE",
"398 -171 OFFCURVE",
"384 -171 CURVE SMOOTH",
"350 -171 OFFCURVE",
"337 -153 OFFCURVE",
"337 -118 CURVE SMOOTH",
"337 -71 OFFCURVE",
"378 -20 OFFCURVE",
"423 0 CURVE",
"422 7 OFFCURVE",
"417 15 OFFCURVE",
"410 15 CURVE SMOOTH",
"407 15 OFFCURVE",
"401 13 OFFCURVE",
"393 8 CURVE SMOOTH"
);
}
);
};
guideLines = (
{
angle = 90;
position = "{426, 85}";
}
);
layerId = "B965DA2D-85AA-48ED-BC60-A8A438260572";
paths = (
{
closed = 1;
nodes = (
"403 -195 OFFCURVE",
"424 -190 OFFCURVE",
"424 -178 CURVE SMOOTH",
"424 -172 OFFCURVE",
"421 -167 OFFCURVE",
"418 -162 CURVE",
"410 -167 OFFCURVE",
"400 -172 OFFCURVE",
"384 -172 CURVE SMOOTH",
"350 -172 OFFCURVE",
"337 -152 OFFCURVE",
"337 -117 CURVE SMOOTH",
"337 -70 OFFCURVE",
"377 -26 OFFCURVE",
"420 0 CURVE SMOOTH",
"425 3 OFFCURVE",
"427 5 OFFCURVE",
"425 11 CURVE SMOOTH",
"224 703 LINE",
"223 704 OFFCURVE",
"219 705 OFFCURVE",
"215 705 CURVE SMOOTH",
"212 705 OFFCURVE",
"210 704 OFFCURVE",
"210 703 CURVE",
"10 0 LINE",
"17 -1 OFFCURVE",
"22 -1 OFFCURVE",
"24 -1 CURVE SMOOTH",
"31 -1 OFFCURVE",
"36 -1 OFFCURVE",
"38 6 CURVE SMOOTH",
"95 212 LINE",
"341 212 LINE",
"398 11 LINE",
"359 -15 OFFCURVE",
"313 -63 OFFCURVE",
"313 -118 CURVE SMOOTH",
"313 -168 OFFCURVE",
"339 -195 OFFCURVE",
"383 -195 CURVE SMOOTH"
);
},
{
closed = 1;
nodes = (
"166 470 LINE",
"191 562 OFFCURVE",
"214 648 OFFCURVE",
"217 669 CURVE",
"219 648 OFFCURVE",
"243 561 OFFCURVE",
"268 470 CURVE SMOOTH",
"334 236 LINE",
"101 236 LINE"
);
}
);
width = 436;
},
{
background = {
paths = (
{
closed = 1;
nodes = (
"193 353 LINE SMOOTH",
"204 406 OFFCURVE",
"213 479 OFFCURVE",
"220 542 CURVE",
"226 479 OFFCURVE",
"235 406 OFFCURVE",
"246 353 CURVE SMOOTH",
"319 0 LINE",
"348 -2 OFFCURVE",
"369 -2 OFFCURVE",
"384 -2 CURVE SMOOTH",
"429 -2 OFFCURVE",
"437 5 OFFCURVE",
"434 18 CURVE",
"267 698 LINE",
"253 701 OFFCURVE",
"233 702 OFFCURVE",
"214 702 CURVE SMOOTH",
"188 702 OFFCURVE",
"172 696 OFFCURVE",
"169 681 CURVE",
"2 2 LINE",
"28 -1 OFFCURVE",
"58 -2 OFFCURVE",
"73 -2 CURVE SMOOTH",
"118 -2 OFFCURVE",
"121 5 OFFCURVE",
"124 19 CURVE SMOOTH"
);
},
{
closed = 1;
nodes = (
"116 159 LINE",
"342 159 LINE",
"342 260 LINE",
"116 260 LINE"
);
},
{
closed = 1;
nodes = (
"338 32 OFFCURVE",
"273 -31 OFFCURVE",
"273 -106 CURVE SMOOTH",
"273 -176 OFFCURVE",
"314 -195 OFFCURVE",
"362 -195 CURVE SMOOTH",
"395 -195 OFFCURVE",
"418 -189 OFFCURVE",
"428 -173 CURVE SMOOTH",
"431 -168 OFFCURVE",
"433 -162 OFFCURVE",
"433 -154 CURVE SMOOTH",
"433 -144 OFFCURVE",
"430 -126 OFFCURVE",
"422 -110 CURVE",
"413 -116 OFFCURVE",
"405 -117 OFFCURVE",
"397 -117 CURVE SMOOTH",
"379 -117 OFFCURVE",
"372 -108 OFFCURVE",
"372 -90 CURVE SMOOTH",
"372 -57 OFFCURVE",
"407 -20 OFFCURVE",
"433 0 CURVE",
"428 12 OFFCURVE",
"417 23 OFFCURVE",
"404 28 CURVE SMOOTH",
"397 31 OFFCURVE",
"390 32 OFFCURVE",
"382 32 CURVE SMOOTH"
);
}
);
};
guideLines = (
{
angle = 90;
position = "{435, 32}";
}
);
layerId = "113A2EC7-7A34-4A41-8395-62473D9E96C5";
paths = (
{
closed = 1;
nodes = (
"401 -195 OFFCURVE",
"431 -184 OFFCURVE",
"431 -154 CURVE SMOOTH",
"431 -144 OFFCURVE",
"427 -125 OFFCURVE",
"420 -110 CURVE",
"413 -115 OFFCURVE",
"405 -117 OFFCURVE",
"395 -117 CURVE SMOOTH",
"377 -117 OFFCURVE",
"370 -108 OFFCURVE",
"370 -90 CURVE SMOOTH",
"370 -57 OFFCURVE",
"395 -26 OFFCURVE",
"420 -3 CURVE SMOOTH",
"432 8 OFFCURVE",
"435 15 OFFCURVE",
"431 31 CURVE SMOOTH",
"267 698 LINE",
"253 701 OFFCURVE",
"233 702 OFFCURVE",
"214 702 CURVE SMOOTH",
"188 702 OFFCURVE",
"172 696 OFFCURVE",
"169 681 CURVE",
"2 2 LINE",
"28 -1 OFFCURVE",
"58 -2 OFFCURVE",
"73 -2 CURVE SMOOTH",
"118 -2 OFFCURVE",
"121 5 OFFCURVE",
"124 19 CURVE SMOOTH",
"152.922 159 LINE",
"286.119 159 LINE",
"318.714 1.384 LINE",
"292.271 -24 OFFCURVE",
"271 -63 OFFCURVE",
"271 -106 CURVE SMOOTH",
"271 -176 OFFCURVE",
"312 -195 OFFCURVE",
"360 -195 CURVE SMOOTH"
);
},
{
closed = 1;
nodes = (
"193 353 LINE SMOOTH",
"204 406 OFFCURVE",
"213 479 OFFCURVE",
"220 542 CURVE",
"226 479 OFFCURVE",
"235 406 OFFCURVE",
"246 353 CURVE SMOOTH",
"265.232 260 LINE",
"173.787 260 LINE"
);
}
);
width = 437;
}
);
leftKerningGroup = A;
rightKerningGroup = A;
unicode = 0104;
},
{
color = 3;
glyphname = AE;
layers = (
{
associatedMasterId = "B965DA2D-85AA-48ED-BC60-A8A438260572";
layerId = "1A97840C-00EB-45FE-8D8D-2E841865655B";
width = 600;
},
{
anchors = (
{
name = top;
position = "{338, 700}";
}
);
layerId = "B965DA2D-85AA-48ED-BC60-A8A438260572";
paths = (
{
closed = 1;
nodes = (
"40 -1 OFFCURVE",
"44 0 OFFCURVE",
"47 6 CURVE SMOOTH",
"292 466 LINE SMOOTH",
"337 551 OFFCURVE",
"399 676 OFFCURVE",
"410 700 CURVE",
"396 700 LINE",
"393 700 OFFCURVE",
"389 696 OFFCURVE",
"388 694 CURVE SMOOTH",
"19 0 LINE",
"26 -1 OFFCURVE",
"31 -1 OFFCURVE",
"33 -1 CURVE SMOOTH"
);
},
{
closed = 1;
nodes = (
"400 212 LINE",
"400 236 LINE",
"157 236 LINE",
"147 212 LINE"
);
},
{
closed = 1;
nodes = (
"632 0 LINE",
"640 0 OFFCURVE",
"640 3 OFFCURVE",
"640 24 CURVE",
"413 24 LINE",
"413 676 LINE",
"632 676 LINE",
"638 676 OFFCURVE",
"638 680 OFFCURVE",
"638 700 CURVE",
"399 700 LINE",
"390 700 OFFCURVE",
"389 690 OFFCURVE",
"389 690 CURVE",
"389 0 LINE"
);
},
{
closed = 1;
nodes = (
"610 372 LINE",
"618 372 OFFCURVE",
"618 376 OFFCURVE",
"618 396 CURVE",
"405 396 LINE",
"405 372 LINE"
);
}
);
width = 675;
},
{
anchors = (
{
name = top;
position = "{291, 700}";
}
);
layerId = "113A2EC7-7A34-4A41-8395-62473D9E96C5";
paths = (
{
closed = 1;
nodes = (
"126 -2 OFFCURVE",
"133 5 OFFCURVE",
"138 19 CURVE SMOOTH",
"249 350 LINE SMOOTH",
"285 457 OFFCURVE",
"328 637 OFFCURVE",
"333 700 CURVE",
"304 700 LINE",
"287 700 OFFCURVE",
"273 696 OFFCURVE",
"268 681 CURVE SMOOTH",
"16 2 LINE",
"42 -1 OFFCURVE",
"72 -2 OFFCURVE",
"87 -2 CURVE SMOOTH"
);
},
{
closed = 1;
nodes = (
"344 159 LINE",
"344 260 LINE",
"159 260 LINE",
"117 159 LINE"
);
},
{
closed = 1;
nodes = (
"545 0 LINE",
"565 0 OFFCURVE",
"565 6 OFFCURVE",
"565 100 CURVE",
"424 100 LINE",
"424 600 LINE",
"552 600 LINE",
"572 600 OFFCURVE",
"572 610 OFFCURVE",
"572 700 CURVE",
"332 700 LINE",
"313 700 OFFCURVE",
"312 680 OFFCURVE",
"312 680 CURVE",
"312 0 LINE"
);
},
{
closed = 1;
nodes = (
"526 328 LINE",
"545 328 OFFCURVE",
"545 346 OFFCURVE",
"545 430 CURVE",
"320 430 LINE",
"320 328 LINE"
);
}
);
width = 582;
}
);
leftKerningGroup = AE;
rightKerningGroup = E;
unicode = 00C6;
},
{
color = 3;
glyphname = B;
layers = (
{
associatedMasterId = "B965DA2D-85AA-48ED-BC60-A8A438260572";
layerId = "1A97840C-00EB-45FE-8D8D-2E841865655B";
width = 600;
},
{
layerId = "B965DA2D-85AA-48ED-BC60-A8A438260572";
paths = (
{
closed = 1;
nodes = (
"185 0 LINE",
"230 0 OFFCURVE",
"380 4 OFFCURVE",
"380 239 CURVE SMOOTH",
"380 365 OFFCURVE",
"296 386 OFFCURVE",
"257 387 CURVE",
"296 393 OFFCURVE",
"359 424 OFFCURVE",
"359 550 CURVE SMOOTH",
"359 677 OFFCURVE",
"265 700 OFFCURVE",
"193 700 CURVE",
"92 700 LINE",
"72 700 OFFCURVE",
"68 693 OFFCURVE",
"68 684 CURVE",
"68 0 LINE"
);
},
{
closed = 1;
nodes = (
"92 371 LINE",
"183 371 LINE",
"279 371 OFFCURVE",
"356 365 OFFCURVE",
"356 237 CURVE SMOOTH",
"356 64 OFFCURVE",
"269 24 OFFCURVE",
"184 24 CURVE",
"92 24 LINE"
);
},
{
closed = 1;
nodes = (
"92 677 LINE",
"188 677 LINE",
"261 677 OFFCURVE",
"335 652 OFFCURVE",
"335 549 CURVE SMOOTH",
"335 427 OFFCURVE",
"272 395 OFFCURVE",
"197 395 CURVE",
"92 395 LINE"
);
}
);
width = 410;
},
{
layerId = "113A2EC7-7A34-4A41-8395-62473D9E96C5";
paths = (
{
closed = 1;
nodes = (
"161 0 LINE",
"296 0 OFFCURVE",
"348 106 OFFCURVE",
"348 238 CURVE SMOOTH",
"348 355 OFFCURVE",
"282 378 OFFCURVE",
"233 383 CURVE",
"277 389 OFFCURVE",
"325 441 OFFCURVE",
"325 543 CURVE SMOOTH",
"325 673 OFFCURVE",
"240 700 OFFCURVE",
"156 700 CURVE",
"58 700 LINE",
"36 700 OFFCURVE",
"30 693 OFFCURVE",
"30 680 CURVE",
"30 0 LINE"
);
},
{
closed = 1;
nodes = (
"144 330 LINE",
"166 330 LINE",
"197 330 OFFCURVE",
"214 318 OFFCURVE",
"214 228 CURVE SMOOTH",
"214 146 OFFCURVE",
"195 97 OFFCURVE",
"164 97 CURVE",
"144 97 LINE"
);
},
{
closed = 1;
nodes = (
"144 602 LINE",
"167 602 LINE",
"185 602 OFFCURVE",
"201 589 OFFCURVE",
"201 519 CURVE SMOOTH",
"201 462 OFFCURVE",
"187 424 OFFCURVE",
"163 424 CURVE",
"144 424 LINE"
);
}
);
width = 358;
}
);
rightKerningGroup = B;
unicode = 0042;
},
{
color = 3;
glyphname = C;
layers = (
{
associatedMasterId = "B965DA2D-85AA-48ED-BC60-A8A438260572";
layerId = "1A97840C-00EB-45FE-8D8D-2E841865655B";
width = 600;
},
{
anchors = (
{
name = bottom;
position = "{220, 0}";
},
{
name = top;
position = "{215, 700}";
}
);
layerId = "B965DA2D-85AA-48ED-BC60-A8A438260572";
paths = (
{
closed = 1;
nodes = (
"282 -9 OFFCURVE",
"339 35 OFFCURVE",
"339 58 CURVE SMOOTH",
"339 64 OFFCURVE",
"335 71 OFFCURVE",
"332 76 CURVE",
"316 51 OFFCURVE",
"267 16 OFFCURVE",
"214 16 CURVE SMOOTH",
"150 16 OFFCURVE",
"73 47 OFFCURVE",
"73 306 CURVE SMOOTH",
"73 653 OFFCURVE",
"160 686 OFFCURVE",
"236 686 CURVE SMOOTH",
"282 686 OFFCURVE",
"318 654 OFFCURVE",
"324 647 CURVE",
"328 650 OFFCURVE",
"331 658 OFFCURVE",
"331 663 CURVE SMOOTH",
"331 679 OFFCURVE",
"294 709 OFFCURVE",
"239 709 CURVE SMOOTH",
"151 709 OFFCURVE",
"48 677 OFFCURVE",
"48 311 CURVE SMOOTH",
"48 -2 OFFCURVE",
"150 -9 OFFCURVE",
"213 -9 CURVE SMOOTH"
);
}
);
width = 369;
},
{
anchors = (
{
name = bottom;
position = "{196, 0}";
},
{
name = top;
position = "{193, 700}";
}
);
layerId = "113A2EC7-7A34-4A41-8395-62473D9E96C5";
paths = (
{
closed = 1;
nodes = (
"263 -10 OFFCURVE",
"309 17 OFFCURVE",
"309 64 CURVE SMOOTH",
"309 88 OFFCURVE",
"302 113 OFFCURVE",
"294 130 CURVE",
"275 120 OFFCURVE",
"247 115 OFFCURVE",
"216 115 CURVE SMOOTH",
"160 115 OFFCURVE",
"138 162 OFFCURVE",
"138 336 CURVE SMOOTH",
"138 554 OFFCURVE",
"190 600 OFFCURVE",
"247 600 CURVE SMOOTH",
"269 600 OFFCURVE",
"287 592 OFFCURVE",
"299 583 CURVE",
"307 600 OFFCURVE",
"315 624 OFFCURVE",
"315 651 CURVE SMOOTH",
"315 681 OFFCURVE",
"305 710 OFFCURVE",
"220 710 CURVE SMOOTH",
"130 710 OFFCURVE",
"20 655 OFFCURVE",
"20 327 CURVE SMOOTH",
"20 47 OFFCURVE",
"74 -10 OFFCURVE",
"187 -10 CURVE SMOOTH"
);
}
);
width = 325;
}
);
leftKerningGroup = O;
rightKerningGroup = C;
unicode = 0043;
},
{
glyphname = Cacute;
layers = (
{
associatedMasterId = "B965DA2D-85AA-48ED-BC60-A8A438260572";
layerId = "1A97840C-00EB-45FE-8D8D-2E841865655B";
width = 600;
},
{
background = {
paths = (
{
closed = 1;
nodes = (
"339 661 OFFCURVE",
"246 639 OFFCURVE",
"160 569 CURVE SMOOTH",
"118 534 OFFCURVE",
"50 443 OFFCURVE",
"50 329 CURVE SMOOTH",
"50 215 OFFCURVE",
"96 143 OFFCURVE",
"134 99 CURVE SMOOTH",
"174 52 OFFCURVE",
"277 -18 OFFCURVE",
"418 -18 CURVE SMOOTH",
"503 -18 OFFCURVE",
"584 3 OFFCURVE",
"600 10 CURVE",
"610 15 OFFCURVE",
"627 27 OFFCURVE",
"631 36 CURVE",
"645 59 OFFCURVE",
"668 112 OFFCURVE",
"671 137 CURVE",
"673 148 OFFCURVE",
"672 170 OFFCURVE",
"662 170 CURVE SMOOTH",
"658 170 OFFCURVE",
"654 165 OFFCURVE",
"641 144 CURVE",
"617 102 OFFCURVE",
"592 70 OFFCURVE",
"548 47 CURVE",
"507 23 OFFCURVE",
"458 20 OFFCURVE",
"439 20 CURVE SMOOTH",
"358 20 OFFCURVE",
"242 65 OFFCURVE",
"186 180 CURVE SMOOTH",
"164 224 OFFCURVE",
"151 278 OFFCURVE",
"151 345 CURVE SMOOTH",
"151 496 OFFCURVE",
"254 629 OFFCURVE",
"415 629 CURVE SMOOTH",
"469 629 OFFCURVE",
"520 618 OFFCURVE",
"575 577 CURVE SMOOTH",
"588 567 OFFCURVE",
"607 537 OFFCURVE",
"616 502 CURVE",
"621 487 OFFCURVE",
"627 476 OFFCURVE",
"632 476 CURVE SMOOTH",
"640 476 OFFCURVE",
"648 488 OFFCURVE",
"647 509 CURVE",
"645 531 OFFCURVE",
"640 575 OFFCURVE",
"640 596 CURVE SMOOTH",
"640 619 OFFCURVE",
"630 626 OFFCURVE",
"625 626 CURVE",
"610 628 OFFCURVE",
"575 641 OFFCURVE",
"549 645 CURVE",
"511 654 OFFCURVE",
"466 661 OFFCURVE",
"431 661 CURVE SMOOTH"
);
},
{
closed = 1;
nodes = (
"424 816 OFFCURVE",
"369 767 OFFCURVE",
"337 737 CURVE SMOOTH",
"321 722 OFFCURVE",
"323 710 OFFCURVE",
"325 710 CURVE",
"335 700 OFFCURVE",
"353 706 OFFCURVE",
"361 710 CURVE",
"408 731 OFFCURVE",
"462 760 OFFCURVE",
"507 790 CURVE",
"518 796 OFFCURVE",
"529 810 OFFCURVE",
"529 818 CURVE SMOOTH",
"529 832 OFFCURVE",
"507 848 OFFCURVE",
"498 854 CURVE",
"492 855 OFFCURVE",
"479 859 OFFCURVE",
"466 848 CURVE"
);
}
);
};
components = (
{
name = C;
},
{
name = acutecomb;
transform = "{1, 0, 0, 1, 90, 200}";
}
);
layerId = "B965DA2D-85AA-48ED-BC60-A8A438260572";
width = 369;
},
{
components = (
{
name = C;
},
{
name = acutecomb;
transform = "{1, 0, 0, 1, 63, 200}";
}
);
layerId = "113A2EC7-7A34-4A41-8395-62473D9E96C5";
width = 325;
}
);
leftKerningGroup = O;
rightKerningGroup = C;
unicode = 0106;
},
{
glyphname = Ccaron;
layers = (
{
associatedMasterId = "B965DA2D-85AA-48ED-BC60-A8A438260572";
layerId = "1A97840C-00EB-45FE-8D8D-2E841865655B";
width = 600;
},
{
background = {
paths = (
{
closed = 1;
nodes = (
"339 661 OFFCURVE",
"246 639 OFFCURVE",
"160 569 CURVE SMOOTH",
"118 534 OFFCURVE",
"50 443 OFFCURVE",
"50 329 CURVE SMOOTH",
"50 215 OFFCURVE",
"96 143 OFFCURVE",
"134 99 CURVE SMOOTH",
"174 52 OFFCURVE",
"277 -18 OFFCURVE",
"418 -18 CURVE SMOOTH",
"503 -18 OFFCURVE",
"584 3 OFFCURVE",
"600 10 CURVE",
"610 15 OFFCURVE",
"627 27 OFFCURVE",
"631 36 CURVE",
"645 59 OFFCURVE",
"668 112 OFFCURVE",
"671 137 CURVE",
"673 148 OFFCURVE",
"672 170 OFFCURVE",
"662 170 CURVE SMOOTH",
"658 170 OFFCURVE",
"654 165 OFFCURVE",
"641 144 CURVE",
"617 102 OFFCURVE",
"592 70 OFFCURVE",
"548 47 CURVE",
"507 23 OFFCURVE",
"458 20 OFFCURVE",
"439 20 CURVE SMOOTH",
"358 20 OFFCURVE",
"242 65 OFFCURVE",
"186 180 CURVE SMOOTH",
"164 224 OFFCURVE",
"151 278 OFFCURVE",
"151 345 CURVE SMOOTH",
"151 496 OFFCURVE",
"254 629 OFFCURVE",
"415 629 CURVE SMOOTH",
"469 629 OFFCURVE",
"520 618 OFFCURVE",
"575 577 CURVE SMOOTH",
"588 567 OFFCURVE",
"607 537 OFFCURVE",
"616 502 CURVE",
"621 487 OFFCURVE",
"627 476 OFFCURVE",
"632 476 CURVE SMOOTH",
"640 476 OFFCURVE",
"648 488 OFFCURVE",
"647 509 CURVE",
"645 531 OFFCURVE",
"640 575 OFFCURVE",
"640 596 CURVE SMOOTH",
"640 619 OFFCURVE",
"630 626 OFFCURVE",
"625 626 CURVE",
"610 628 OFFCURVE",
"575 641 OFFCURVE",
"549 645 CURVE",
"511 654 OFFCURVE",
"466 661 OFFCURVE",
"431 661 CURVE SMOOTH"
);
},
{
closed = 1;
nodes = (
"414 706 OFFCURVE",
"429 715 OFFCURVE",
"444 727 CURVE SMOOTH",
"471 748 OFFCURVE",
"517 786 OFFCURVE",
"541 806 CURVE",
"562 826 OFFCURVE",
"560 836 OFFCURVE",
"541 836 CURVE SMOOTH",
"532 836 OFFCURVE",
"519 828 OFFCURVE",
"511 826 CURVE",
"480 810 OFFCURVE",
"444 793 OFFCURVE",
"417 780 CURVE",
"412 777 OFFCURVE",
"406 776 OFFCURVE",
"399 779 CURVE",
"367 795 OFFCURVE",
"335 812 OFFCURVE",
"301 827 CURVE",
"293 829 OFFCURVE",
"278 837 OFFCURVE",
"271 837 CURVE SMOOTH",
"253 837 OFFCURVE",
"254 818 OFFCURVE",
"270 808 CURVE",
"308 774 OFFCURVE",
"347 743 OFFCURVE",
"362 730 CURVE",
"381 715 OFFCURVE",
"395 706 OFFCURVE",
"404 706 CURVE SMOOTH"
);
}
);
};
components = (
{
name = C;
},
{
name = caron;
transform = "{1, 0, 0, 1, 90, 200}";
}
);
layerId = "B965DA2D-85AA-48ED-BC60-A8A438260572";
width = 369;
},
{
components = (
{
name = C;
},
{
name = caron;
transform = "{1, 0, 0, 1, 53, 200}";
}
);
layerId = "113A2EC7-7A34-4A41-8395-62473D9E96C5";
width = 325;
}
);
leftKerningGroup = O;
rightKerningGroup = C;
unicode = 010C;
},
{
color = 3;
glyphname = D;
layers = (
{
associatedMasterId = "B965DA2D-85AA-48ED-BC60-A8A438260572";
layerId = "1A97840C-00EB-45FE-8D8D-2E841865655B";
width = 600;
},
{
anchors = (
{
name = center;
position = "{219, 350}";
},
{
name = top;
position = "{190, 700}";
}
);
layerId = "B965DA2D-85AA-48ED-BC60-A8A438260572";
paths = (
{
closed = 1;
nodes = (
"187 0 LINE SMOOTH",
"288 0 OFFCURVE",
"389 47 OFFCURVE",
"389 388 CURVE SMOOTH",
"389 606 OFFCURVE",
"321 700 OFFCURVE",
"195 700 CURVE",
"94 700 LINE",
"74 700 OFFCURVE",
"70 693 OFFCURVE",
"70 684 CURVE SMOOTH",
"70 0 LINE"
);
},
{
closed = 1;
nodes = (
"94 676 LINE",
"190 676 LINE",
"313 676 OFFCURVE",
"365 585 OFFCURVE",
"365 388 CURVE SMOOTH",
"365 69 OFFCURVE",
"277 24 OFFCURVE",
"186 24 CURVE",
"94 24 LINE"
);
}
);
width = 437;
},
{
anchors = (
{
name = center;
position = "{180, 350}";
},
{
name = top;
position = "{172, 700}";
}
);
layerId = "113A2EC7-7A34-4A41-8395-62473D9E96C5";
paths = (
{
closed = 1;
nodes = (
"159 0 LINE SMOOTH",
"294 0 OFFCURVE",
"350 118 OFFCURVE",
"350 385 CURVE SMOOTH",
"350 642 OFFCURVE",
"287 700 OFFCURVE",
"154 700 CURVE",
"58 700 LINE",
"36 700 OFFCURVE",
"30 693 OFFCURVE",
"30 680 CURVE SMOOTH",
"30 0 LINE"
);
},
{
closed = 1;
nodes = (
"142 598 LINE",
"161 598 LINE",
"197 598 OFFCURVE",
"221 576 OFFCURVE",
"221 397 CURVE SMOOTH",
"221 143 OFFCURVE",
"193 106 OFFCURVE",
"162 106 CURVE",
"142 106 LINE"
);
}
);
width = 360;
}
);
leftKerningGroup = H;
rightKerningGroup = O;
unicode = 0044;
},
{
color = 3;
glyphname = Eth;
layers = (
{
associatedMasterId = "B965DA2D-85AA-48ED-BC60-A8A438260572";
layerId = "1A97840C-00EB-45FE-8D8D-2E841865655B";
width = 600;
},
{
layerId = "B965DA2D-85AA-48ED-BC60-A8A438260572";
paths = (
{
closed = 1;
nodes = (
"187 0 LINE SMOOTH",
"288 0 OFFCURVE",
"389 47 OFFCURVE",
"389 388 CURVE SMOOTH",
"389 606 OFFCURVE",
"321 700 OFFCURVE",
"195 700 CURVE",
"94 700 LINE",
"74 700 OFFCURVE",
"70 693 OFFCURVE",
"70 684 CURVE SMOOTH",
"70 0 LINE"
);
},
{
closed = 1;
nodes = (
"217 359 LINE",
"227 359 OFFCURVE",
"227 362 OFFCURVE",
"227 384 CURVE",
"30 384 LINE SMOOTH",
"20 384 OFFCURVE",
"20 381 OFFCURVE",
"20 359 CURVE"
);
},
{
closed = 1;
nodes = (
"94 676 LINE",
"190 676 LINE",
"313 676 OFFCURVE",
"365 585 OFFCURVE",
"365 388 CURVE SMOOTH",
"365 69 OFFCURVE",
"277 24 OFFCURVE",
"186 24 CURVE",
"94 24 LINE"
);
}
);
width = 437;
},
{
layerId = "113A2EC7-7A34-4A41-8395-62473D9E96C5";
paths = (
{
closed = 1;
nodes = (
"159 0 LINE SMOOTH",
"294 0 OFFCURVE",
"350 118 OFFCURVE",
"350 397 CURVE SMOOTH",
"350 642 OFFCURVE",
"287 700 OFFCURVE",
"154 700 CURVE",
"58 700 LINE",
"36 700 OFFCURVE",
"30 693 OFFCURVE",
"30 680 CURVE SMOOTH",
"30 0 LINE"
);
},
{
closed = 1;
nodes = (
"172 315 LINE",
"192 315 OFFCURVE",
"192 345 OFFCURVE",
"192 411 CURVE",
"16 411 LINE SMOOTH",
"-4 411 OFFCURVE",
"-4 381 OFFCURVE",
"-4 315 CURVE"
);
},
{
closed = 1;
nodes = (
"142 598 LINE",
"161 598 LINE",
"197 598 OFFCURVE",
"221 576 OFFCURVE",
"221 397 CURVE SMOOTH",
"221 143 OFFCURVE",
"193 106 OFFCURVE",
"162 106 CURVE",
"142 107 LINE"
);
}
);
width = 360;
}
);
leftKerningGroup = H;
rightKerningGroup = O;
unicode = 00D0;
},
{
glyphname = Dcaron;
layers = (
{
associatedMasterId = "B965DA2D-85AA-48ED-BC60-A8A438260572";
layerId = "1A97840C-00EB-45FE-8D8D-2E841865655B";
width = 600;
},
{
background = {
paths = (
{
closed = 1;
nodes = (
"252 652 OFFCURVE",
"139 643 OFFCURVE",
"89 643 CURVE SMOOTH",
"61 643 LINE SMOOTH",
"46 643 OFFCURVE",
"37 638 OFFCURVE",
"37 630 CURVE SMOOTH",
"37 623 OFFCURVE",
"49 616 OFFCURVE",
"60 614 CURVE SMOOTH",
"121 605 OFFCURVE",
"122 591 OFFCURVE",
"124 527 CURVE SMOOTH",
"127 445 OFFCURVE",
"129 327 OFFCURVE",
"129 270 CURVE SMOOTH",
"129 211 OFFCURVE",
"128 180 OFFCURVE",
"126 133 CURVE SMOOTH",
"123 54 OFFCURVE",
"118 35 OFFCURVE",
"49 27 CURVE SMOOTH",
"37 26 OFFCURVE",
"27 21 OFFCURVE",
"27 13 CURVE SMOOTH",
"27 5 OFFCURVE",
"36 -2 OFFCURVE",
"59 -2 CURVE SMOOTH",
"75 -2 OFFCURVE",
"93 -2 OFFCURVE",
"112 -3 CURVE SMOOTH",
"178 -8 OFFCURVE",
"267 -11 OFFCURVE",
"308 -11 CURVE SMOOTH",
"404 -11 OFFCURVE",
"487 11 OFFCURVE",
"546 45 CURVE SMOOTH",
"616 84 OFFCURVE",
"706 189 OFFCURVE",
"706 334 CURVE SMOOTH",
"706 413 OFFCURVE",
"669 503 OFFCURVE",
"615 555 CURVE SMOOTH",
"575 592 OFFCURVE",
"478 652 OFFCURVE",
"338 652 CURVE SMOOTH"
);
},
{
closed = 1;
nodes = (
"368 621 OFFCURVE",
"452 599 OFFCURVE",
"502 562 CURVE SMOOTH",
"566 514 OFFCURVE",
"609 420 OFFCURVE",
"609 334 CURVE SMOOTH",
"609 222 OFFCURVE",
"566 135 OFFCURVE",
"506 84 CURVE SMOOTH",
"450 37 OFFCURVE",
"365 19 OFFCURVE",
"319 19 CURVE SMOOTH",
"297 19 OFFCURVE",
"256 31 OFFCURVE",
"237 45 CURVE",
"234 47 OFFCURVE",
"218 61 OFFCURVE",
"215 92 CURVE SMOOTH",
"212 136 OFFCURVE",
"211 195 OFFCURVE",
"211 265 CURVE SMOOTH",
"211 410 LINE SMOOTH",
"211 499 OFFCURVE",
"213 588 OFFCURVE",
"215 600 CURVE SMOOTH",
"216 606 OFFCURVE",
"218 608 OFFCURVE",
"225 613 CURVE",
"234 618 OFFCURVE",
"258 621 OFFCURVE",
"294 621 CURVE SMOOTH"
);
},
{
closed = 1;
nodes = (
"345 699 OFFCURVE",
"360 708 OFFCURVE",
"375 720 CURVE SMOOTH",
"402 741 OFFCURVE",
"448 779 OFFCURVE",
"472 799 CURVE",
"493 819 OFFCURVE",
"491 829 OFFCURVE",
"472 829 CURVE SMOOTH",
"463 829 OFFCURVE",
"450 821 OFFCURVE",
"442 819 CURVE",
"411 803 OFFCURVE",
"375 786 OFFCURVE",
"348 773 CURVE",
"343 770 OFFCURVE",
"337 769 OFFCURVE",
"330 772 CURVE",
"298 788 OFFCURVE",
"266 805 OFFCURVE",
"232 820 CURVE",
"224 822 OFFCURVE",
"209 830 OFFCURVE",
"202 830 CURVE SMOOTH",
"184 830 OFFCURVE",
"185 811 OFFCURVE",
"201 801 CURVE",
"239 767 OFFCURVE",
"278 736 OFFCURVE",
"293 723 CURVE",
"312 708 OFFCURVE",
"326 699 OFFCURVE",
"335 699 CURVE SMOOTH"
);
}
);
};
components = (
{
name = D;
},
{
name = caron;
transform = "{1, 0, 0, 1, 65, 200}";
}
);
layerId = "B965DA2D-85AA-48ED-BC60-A8A438260572";
width = 437;
},
{
components = (
{
name = D;
},
{
name = caron;
transform = "{1, 0, 0, 1, 32, 200}";
}
);
layerId = "113A2EC7-7A34-4A41-8395-62473D9E96C5";
width = 360;
}
);
leftKerningGroup = H;
rightKerningGroup = O;
unicode = 010E;
},
{
glyphname = Dcroat;
layers = (
{
associatedMasterId = "B965DA2D-85AA-48ED-BC60-A8A438260572";
layerId = "1A97840C-00EB-45FE-8D8D-2E841865655B";
width = 600;
},
{
background = {
paths = (
{
closed = 1;
nodes = (
"44 349 LINE SMOOTH",
"38 349 OFFCURVE",
"36 330 OFFCURVE",
"36 327 CURVE SMOOTH",
"36 314 OFFCURVE",
"46 312 OFFCURVE",
"49 312 CURVE SMOOTH",
"122 311 LINE SMOOTH",
"125 311 OFFCURVE",
"128 304 OFFCURVE",
"128 300 CURVE SMOOTH",
"128 240 OFFCURVE",
"126 193 OFFCURVE",
"126 133 CURVE SMOOTH",
"125 54 OFFCURVE",
"117 36 OFFCURVE",
"48 28 CURVE",
"36 26 OFFCURVE",
"27 21 OFFCURVE",
"27 13 CURVE SMOOTH",
"27 5 OFFCURVE",
"36 -2 OFFCURVE",
"59 -2 CURVE SMOOTH",
"75 -2 OFFCURVE",
"93 -2 OFFCURVE",
"112 -3 CURVE SMOOTH",
"178 -8 OFFCURVE",
"267 -11 OFFCURVE",
"308 -11 CURVE SMOOTH",
"405 -11 OFFCURVE",
"487 11 OFFCURVE",
"546 45 CURVE SMOOTH",
"616 84 OFFCURVE",
"706 188 OFFCURVE",
"706 334 CURVE SMOOTH",
"706 412 OFFCURVE",
"669 503 OFFCURVE",
"615 555 CURVE SMOOTH",
"575 592 OFFCURVE",
"478 652 OFFCURVE",
"338 652 CURVE SMOOTH",
"252 652 OFFCURVE",
"139 643 OFFCURVE",
"90 643 CURVE SMOOTH",
"61 643 LINE SMOOTH",
"45 643 OFFCURVE",
"37 637 OFFCURVE",
"37 629 CURVE SMOOTH",
"37 622 OFFCURVE",
"48 616 OFFCURVE",
"60 614 CURVE SMOOTH",
"121 605 OFFCURVE",
"122 591 OFFCURVE",
"124 527 CURVE SMOOTH",
"128 361 LINE SMOOTH",
"128 357 OFFCURVE",
"124 350 OFFCURVE",
"120 350 CURVE SMOOTH"
);
},
{
closed = 1;
nodes = (
"393 313 LINE SMOOTH",
"400 313 OFFCURVE",
"406 330 OFFCURVE",
"406 342 CURVE SMOOTH",
"406 345 OFFCURVE",
"401 350 OFFCURVE",
"390 350 CURVE SMOOTH",
"218 350 LINE SMOOTH",
"214 350 OFFCURVE",
"211 356 OFFCURVE",
"211 360 CURVE SMOOTH",
"213 444 OFFCURVE",
"213 588 OFFCURVE",
"215 599 CURVE",
"217 606 OFFCURVE",
"219 608 OFFCURVE",
"226 613 CURVE",
"234 618 OFFCURVE",
"259 621 OFFCURVE",
"294 621 CURVE SMOOTH",
"368 621 OFFCURVE",
"452 600 OFFCURVE",
"502 563 CURVE SMOOTH",
"566 514 OFFCURVE",
"609 421 OFFCURVE",
"609 334 CURVE SMOOTH",
"609 221 OFFCURVE",
"566 135 OFFCURVE",
"506 84 CURVE SMOOTH",
"449 37 OFFCURVE",
"366 19 OFFCURVE",
"320 19 CURVE SMOOTH",
"297 19 OFFCURVE",
"256 31 OFFCURVE",
"237 45 CURVE",
"225 52 OFFCURVE",
"218 64 OFFCURVE",
"215 96 CURVE SMOOTH",
"212 141 OFFCURVE",
"212 231 OFFCURVE",
"211 301 CURVE",
"211 305 OFFCURVE",
"214 311 OFFCURVE",
"217 311 CURVE SMOOTH"
);
}
);
};
components = (
{
name = D;
},
{
alignment = -1;
name = macron;
transform = "{1, 0, 0, 1, -17, -298}";
}
);
layerId = "B965DA2D-85AA-48ED-BC60-A8A438260572";
width = 437;
},
{
components = (
{
name = D;
},
{
alignment = -1;
name = macron;
transform = "{0.8249, 0, 0, 0.8249, -25, -179}";
}
);
layerId = "113A2EC7-7A34-4A41-8395-62473D9E96C5";
width = 360;
}
);
leftKerningGroup = H;
rightKerningGroup = O;
unicode = 0110;
},
{
color = 3;
glyphname = E;
layers = (
{
associatedMasterId = "B965DA2D-85AA-48ED-BC60-A8A438260572";
layerId = "1A97840C-00EB-45FE-8D8D-2E841865655B";
width = 600;
},
{
anchors = (
{
name = bottom;
position = "{179, 0}";
},
{
name = ogonek;
position = "{321, 10}";
},
{
name = top;
position = "{197, 700}";
},
{
name = topleft;
position = "{20, 700}";
}
);
layerId = "B965DA2D-85AA-48ED-BC60-A8A438260572";
paths = (
{
closed = 1;
nodes = (
"314 0 LINE",
"322 0 OFFCURVE",
"322 3 OFFCURVE",
"322 24 CURVE",
"95 24 LINE",
"95 676 LINE",
"314 676 LINE",
"320 676 OFFCURVE",
"320 680 OFFCURVE",
"320 700 CURVE",
"81 700 LINE",
"71 700 OFFCURVE",
"71 690 OFFCURVE",
"71 690 CURVE",
"71 0 LINE"
);
},
{
closed = 1;
nodes = (
"292 372 LINE",
"300 372 OFFCURVE",
"300 376 OFFCURVE",
"300 396 CURVE",
"87 396 LINE",
"87 372 LINE"
);
}
);
width = 357;
},
{
anchors = (
{
name = bottom;
position = "{150, 0}";
},
{
name = ogonek;
position = "{270, 10}";
},
{
name = top;
position = "{155, 700}";
},
{
name = topleft;
position = "{20, 700}";
}
);
layerId = "113A2EC7-7A34-4A41-8395-62473D9E96C5";
paths = (
{
closed = 1;
nodes = (
"263 0 LINE",
"283 0 OFFCURVE",
"283 6 OFFCURVE",
"283 100 CURVE",
"142 100 LINE",
"142 600 LINE",
"270 600 LINE",
"290 600 OFFCURVE",
"290 610 OFFCURVE",
"290 700 CURVE",
"50 700 LINE",
"31 700 OFFCURVE",
"30 680 OFFCURVE",
"30 680 CURVE",
"30 0 LINE"
);
},
{
closed = 1;
nodes = (
"244 328 LINE",
"263 328 OFFCURVE",
"263 346 OFFCURVE",
"263 430 CURVE",
"38 430 LINE",
"38 328 LINE"
);
}
);
width = 300;
}
);
leftKerningGroup = H;
rightKerningGroup = E;
unicode = 0045;
},
{
glyphname = Ecaron;
layers = (
{
associatedMasterId = "B965DA2D-85AA-48ED-BC60-A8A438260572";
layerId = "1A97840C-00EB-45FE-8D8D-2E841865655B";
width = 600;
},
{
background = {
paths = (
{
closed = 1;
nodes = (
"223 643 LINE SMOOTH",
"156 643 OFFCURVE",
"117 647 OFFCURVE",
"70 647 CURVE SMOOTH",
"56 647 OFFCURVE",
"42 642 OFFCURVE",
"42 633 CURVE SMOOTH",
"42 625 OFFCURVE",
"50 621 OFFCURVE",
"71 616 CURVE SMOOTH",
"115 606 OFFCURVE",
"125 594 OFFCURVE",
"127 550 CURVE SMOOTH",
"129 521 OFFCURVE",
"128 500 OFFCURVE",
"128 381 CURVE SMOOTH",
"128 257 OFFCURVE",
"123 139 OFFCURVE",
"120 97 CURVE SMOOTH",
"116 43 OFFCURVE",
"97 36 OFFCURVE",
"47 24 CURVE SMOOTH",
"31 20 OFFCURVE",
"19 15 OFFCURVE",
"19 8 CURVE SMOOTH",
"19 -3 OFFCURVE",
"30 -5 OFFCURVE",
"49 -5 CURVE SMOOTH",
"87 -5 OFFCURVE",
"109 0 OFFCURVE",
"162 0 CURVE SMOOTH",
"325 0 OFFCURVE",
"476 -8 OFFCURVE",
"487 -8 CURVE SMOOTH",
"492 -8 OFFCURVE",
"501 0 OFFCURVE",
"504 4 CURVE SMOOTH",
"511 13 OFFCURVE",
"539 103 OFFCURVE",
"540 111 CURVE",
"542 122 OFFCURVE",
"539 138 OFFCURVE",
"532 138 CURVE SMOOTH",
"526 138 OFFCURVE",
"520 132 OFFCURVE",
"509 110 CURVE SMOOTH",
"485 63 OFFCURVE",
"458 44 OFFCURVE",
"426 36 CURVE SMOOTH",
"404 30 OFFCURVE",
"343 29 OFFCURVE",
"331 29 CURVE SMOOTH",
"291 29 OFFCURVE",
"257 33 OFFCURVE",
"240 36 CURVE",
"233 38 OFFCURVE",
"225 46 OFFCURVE",
"221 58 CURVE",
"215 74 OFFCURVE",
"211 112 OFFCURVE",
"211 141 CURVE SMOOTH",
"211 184 OFFCURVE",
"210 277 OFFCURVE",
"214 298 CURVE",
"214 300 OFFCURVE",
"219 307 OFFCURVE",
"223 307 CURVE SMOOTH",
"250 307 OFFCURVE",
"290 307 OFFCURVE",
"322 305 CURVE SMOOTH",
"383 302 OFFCURVE",
"387 299 OFFCURVE",
"401 253 CURVE SMOOTH",
"404 242 OFFCURVE",
"411 231 OFFCURVE",
"418 231 CURVE SMOOTH",
"425 231 OFFCURVE",
"430 242 OFFCURVE",
"429 260 CURVE SMOOTH",
"428 280 OFFCURVE",
"426 294 OFFCURVE",
"426 321 CURVE SMOOTH",
"426 345 OFFCURVE",
"427 365 OFFCURVE",
"429 393 CURVE",
"430 401 OFFCURVE",
"428 415 OFFCURVE",
"421 415 CURVE SMOOTH",
"415 415 OFFCURVE",
"409 409 OFFCURVE",
"403 394 CURVE SMOOTH",
"385 348 OFFCURVE",
"381 344 OFFCURVE",
"287 344 CURVE SMOOTH",
"222 344 LINE SMOOTH",
"217 344 OFFCURVE",
"216 350 OFFCURVE",
"215 354 CURVE",
"213 369 OFFCURVE",
"216 557 OFFCURVE",
"218 582 CURVE SMOOTH",
"220 605 OFFCURVE",
"231 610 OFFCURVE",
"233 610 CURVE",
"277 612 OFFCURVE",
"349 610 OFFCURVE",
"375 606 CURVE SMOOTH",
"407 601 OFFCURVE",
"429 591 OFFCURVE",
"442 538 CURVE",
"444 528 OFFCURVE",
"449 514 OFFCURVE",
"458 514 CURVE SMOOTH",
"467 514 OFFCURVE",
"473 526 OFFCURVE",
"473 540 CURVE SMOOTH",
"473 560 OFFCURVE",
"471 589 OFFCURVE",
"471 635 CURVE",
"470 640 OFFCURVE",
"465 647 OFFCURVE",
"462 646 CURVE",
"447 644 OFFCURVE",
"403 643 OFFCURVE",
"370 643 CURVE SMOOTH"
);
},
{
closed = 1;
nodes = (
"296 686 OFFCURVE",
"311 695 OFFCURVE",
"326 707 CURVE SMOOTH",
"353 728 OFFCURVE",
"399 766 OFFCURVE",
"423 786 CURVE",
"444 806 OFFCURVE",
"442 816 OFFCURVE",
"423 816 CURVE SMOOTH",
"414 816 OFFCURVE",
"401 808 OFFCURVE",
"393 806 CURVE",
"362 790 OFFCURVE",
"326 773 OFFCURVE",
"299 760 CURVE",
"294 757 OFFCURVE",
"288 756 OFFCURVE",
"281 759 CURVE",
"249 775 OFFCURVE",
"217 792 OFFCURVE",
"183 807 CURVE",
"175 809 OFFCURVE",
"160 817 OFFCURVE",
"153 817 CURVE SMOOTH",
"135 817 OFFCURVE",
"136 798 OFFCURVE",
"152 788 CURVE",
"190 754 OFFCURVE",
"229 723 OFFCURVE",
"244 710 CURVE",
"263 695 OFFCURVE",
"277 686 OFFCURVE",
"286 686 CURVE SMOOTH"
);
}
);
};
components = (
{
name = E;
},
{
name = caron;
transform = "{1, 0, 0, 1, 72, 200}";
}
);
layerId = "B965DA2D-85AA-48ED-BC60-A8A438260572";
width = 357;
},
{
components = (
{
name = E;
},
{
name = caron;
transform = "{1, 0, 0, 1, 15, 200}";
}
);
layerId = "113A2EC7-7A34-4A41-8395-62473D9E96C5";
width = 300;
}
);
leftKerningGroup = H;
rightKerningGroup = E;
unicode = 011A;
},
{
glyphname = Edotaccent;
layers = (
{
associatedMasterId = "B965DA2D-85AA-48ED-BC60-A8A438260572";
layerId = "1A97840C-00EB-45FE-8D8D-2E841865655B";
width = 600;
},
{
background = {
paths = (
{
closed = 1;
nodes = (
"223 643 LINE SMOOTH",
"156 643 OFFCURVE",
"117 647 OFFCURVE",
"70 647 CURVE SMOOTH",
"56 647 OFFCURVE",
"42 642 OFFCURVE",
"42 633 CURVE SMOOTH",
"42 625 OFFCURVE",
"50 621 OFFCURVE",
"71 616 CURVE SMOOTH",
"115 606 OFFCURVE",
"125 594 OFFCURVE",
"127 550 CURVE SMOOTH",
"129 521 OFFCURVE",
"128 500 OFFCURVE",
"128 381 CURVE SMOOTH",
"128 257 OFFCURVE",
"123 139 OFFCURVE",
"120 97 CURVE SMOOTH",
"116 43 OFFCURVE",
"97 36 OFFCURVE",
"47 24 CURVE SMOOTH",
"31 20 OFFCURVE",
"19 15 OFFCURVE",
"19 8 CURVE SMOOTH",
"19 -3 OFFCURVE",
"30 -5 OFFCURVE",
"49 -5 CURVE SMOOTH",
"87 -5 OFFCURVE",
"109 0 OFFCURVE",
"162 0 CURVE SMOOTH",
"325 0 OFFCURVE",
"476 -8 OFFCURVE",
"487 -8 CURVE SMOOTH",
"492 -8 OFFCURVE",
"501 0 OFFCURVE",
"504 4 CURVE SMOOTH",
"511 13 OFFCURVE",
"539 103 OFFCURVE",
"540 111 CURVE",
"542 122 OFFCURVE",
"539 138 OFFCURVE",
"532 138 CURVE SMOOTH",
"526 138 OFFCURVE",
"520 132 OFFCURVE",
"509 110 CURVE SMOOTH",
"485 63 OFFCURVE",
"458 44 OFFCURVE",
"426 36 CURVE SMOOTH",
"404 30 OFFCURVE",
"343 29 OFFCURVE",
"331 29 CURVE SMOOTH",
"291 29 OFFCURVE",
"257 33 OFFCURVE",
"240 36 CURVE",
"233 38 OFFCURVE",
"225 46 OFFCURVE",
"221 58 CURVE",
"215 74 OFFCURVE",
"211 112 OFFCURVE",
"211 141 CURVE SMOOTH",
"211 184 OFFCURVE",
"210 277 OFFCURVE",
"214 298 CURVE",
"214 300 OFFCURVE",
"219 307 OFFCURVE",
"223 307 CURVE SMOOTH",
"250 307 OFFCURVE",
"290 307 OFFCURVE",
"322 305 CURVE SMOOTH",
"383 302 OFFCURVE",
"387 299 OFFCURVE",
"401 253 CURVE SMOOTH",
"404 242 OFFCURVE",
"411 231 OFFCURVE",
"418 231 CURVE SMOOTH",
"425 231 OFFCURVE",
"430 242 OFFCURVE",
"429 260 CURVE SMOOTH",
"428 280 OFFCURVE",
"426 294 OFFCURVE",
"426 321 CURVE SMOOTH",
"426 345 OFFCURVE",
"427 365 OFFCURVE",
"429 393 CURVE",
"430 401 OFFCURVE",
"428 415 OFFCURVE",
"421 415 CURVE SMOOTH",
"415 415 OFFCURVE",
"409 409 OFFCURVE",
"403 394 CURVE SMOOTH",
"385 348 OFFCURVE",
"381 344 OFFCURVE",
"287 344 CURVE SMOOTH",
"222 344 LINE SMOOTH",
"217 344 OFFCURVE",
"216 350 OFFCURVE",
"215 354 CURVE",
"213 369 OFFCURVE",
"216 557 OFFCURVE",
"218 582 CURVE SMOOTH",
"220 605 OFFCURVE",
"231 610 OFFCURVE",
"233 610 CURVE",
"277 612 OFFCURVE",
"349 610 OFFCURVE",
"375 606 CURVE SMOOTH",
"407 601 OFFCURVE",
"429 591 OFFCURVE",
"442 538 CURVE",
"444 528 OFFCURVE",
"449 514 OFFCURVE",
"458 514 CURVE SMOOTH",
"467 514 OFFCURVE",
"473 526 OFFCURVE",
"473 540 CURVE SMOOTH",
"473 560 OFFCURVE",
"471 589 OFFCURVE",
"471 635 CURVE",
"470 640 OFFCURVE",
"465 647 OFFCURVE",
"462 646 CURVE",
"447 644 OFFCURVE",
"403 643 OFFCURVE",
"370 643 CURVE SMOOTH"
);
},
{
closed = 1;
nodes = (
"259 797 OFFCURVE",
"237 771 OFFCURVE",
"237 745 CURVE SMOOTH",
"237 708 OFFCURVE",
"266 692 OFFCURVE",
"287 692 CURVE SMOOTH",
"308 692 OFFCURVE",
"337 711 OFFCURVE",
"337 743 CURVE SMOOTH",
"337 767 OFFCURVE",
"320 797 OFFCURVE",
"289 797 CURVE SMOOTH"
);
}
);
};
components = (
{
name = E;
},
{
name = dotaccent;
transform = "{1, 0, 0, 1, 72, 200}";
}
);
layerId = "B965DA2D-85AA-48ED-BC60-A8A438260572";
width = 357;
},
{
components = (
{
name = E;
},
{
name = dotaccent;
transform = "{1, 0, 0, 1, 15, 200}";
}
);
layerId = "113A2EC7-7A34-4A41-8395-62473D9E96C5";
width = 300;
}
);
leftKerningGroup = H;
rightKerningGroup = E;
unicode = 0116;
},
{
glyphname = Emacron;
layers = (
{
associatedMasterId = "B965DA2D-85AA-48ED-BC60-A8A438260572";
layerId = "1A97840C-00EB-45FE-8D8D-2E841865655B";
width = 600;
},
{
background = {
paths = (
{
closed = 1;
nodes = (
"223 643 LINE SMOOTH",
"156 643 OFFCURVE",
"117 647 OFFCURVE",
"70 647 CURVE SMOOTH",
"56 647 OFFCURVE",
"42 642 OFFCURVE",
"42 633 CURVE SMOOTH",
"42 625 OFFCURVE",
"50 621 OFFCURVE",
"71 616 CURVE SMOOTH",
"115 606 OFFCURVE",
"125 594 OFFCURVE",
"127 550 CURVE SMOOTH",
"129 521 OFFCURVE",
"128 500 OFFCURVE",
"128 381 CURVE SMOOTH",
"128 257 OFFCURVE",
"123 139 OFFCURVE",
"120 97 CURVE SMOOTH",
"116 43 OFFCURVE",
"97 36 OFFCURVE",
"47 24 CURVE SMOOTH",
"31 20 OFFCURVE",
"19 15 OFFCURVE",
"19 8 CURVE SMOOTH",
"19 -3 OFFCURVE",
"30 -5 OFFCURVE",
"49 -5 CURVE SMOOTH",
"87 -5 OFFCURVE",
"109 0 OFFCURVE",
"162 0 CURVE SMOOTH",
"325 0 OFFCURVE",
"476 -8 OFFCURVE",
"487 -8 CURVE SMOOTH",
"492 -8 OFFCURVE",
"501 0 OFFCURVE",
"504 4 CURVE SMOOTH",
"511 13 OFFCURVE",
"539 103 OFFCURVE",
"540 111 CURVE",
"542 122 OFFCURVE",
"539 138 OFFCURVE",
"532 138 CURVE SMOOTH",
"526 138 OFFCURVE",
"520 132 OFFCURVE",
"509 110 CURVE SMOOTH",
"485 63 OFFCURVE",
"458 44 OFFCURVE",
"426 36 CURVE SMOOTH",
"404 30 OFFCURVE",
"343 29 OFFCURVE",
"331 29 CURVE SMOOTH",
"291 29 OFFCURVE",
"257 33 OFFCURVE",
"240 36 CURVE",
"233 38 OFFCURVE",
"225 46 OFFCURVE",
"221 58 CURVE",
"215 74 OFFCURVE",
"211 112 OFFCURVE",
"211 141 CURVE SMOOTH",
"211 184 OFFCURVE",
"210 277 OFFCURVE",
"214 298 CURVE",
"214 300 OFFCURVE",
"219 307 OFFCURVE",
"223 307 CURVE SMOOTH",
"250 307 OFFCURVE",
"290 307 OFFCURVE",
"322 305 CURVE SMOOTH",
"383 302 OFFCURVE",
"387 299 OFFCURVE",
"401 253 CURVE SMOOTH",
"404 242 OFFCURVE",
"411 231 OFFCURVE",
"418 231 CURVE SMOOTH",
"425 231 OFFCURVE",
"430 242 OFFCURVE",
"429 260 CURVE SMOOTH",
"428 280 OFFCURVE",
"426 294 OFFCURVE",
"426 321 CURVE SMOOTH",
"426 345 OFFCURVE",
"427 365 OFFCURVE",
"429 393 CURVE",
"430 401 OFFCURVE",
"428 415 OFFCURVE",
"421 415 CURVE SMOOTH",
"415 415 OFFCURVE",
"409 409 OFFCURVE",
"403 394 CURVE SMOOTH",
"385 348 OFFCURVE",
"381 344 OFFCURVE",
"287 344 CURVE SMOOTH",
"222 344 LINE SMOOTH",
"217 344 OFFCURVE",
"216 350 OFFCURVE",
"215 354 CURVE",
"213 369 OFFCURVE",
"216 557 OFFCURVE",
"218 582 CURVE SMOOTH",
"220 605 OFFCURVE",
"231 610 OFFCURVE",
"233 610 CURVE",
"277 612 OFFCURVE",
"349 610 OFFCURVE",
"375 606 CURVE SMOOTH",
"407 601 OFFCURVE",
"429 591 OFFCURVE",
"442 538 CURVE",
"444 528 OFFCURVE",
"449 514 OFFCURVE",
"458 514 CURVE SMOOTH",
"467 514 OFFCURVE",
"473 526 OFFCURVE",
"473 540 CURVE SMOOTH",
"473 560 OFFCURVE",
"471 589 OFFCURVE",
"471 635 CURVE",
"470 640 OFFCURVE",
"465 647 OFFCURVE",
"462 646 CURVE",
"447 644 OFFCURVE",
"403 643 OFFCURVE",
"370 643 CURVE SMOOTH"
);
},
{
closed = 1;
nodes = (
"172 788 LINE SMOOTH",
"165 788 OFFCURVE",
"155 760 OFFCURVE",
"155 748 CURVE SMOOTH",
"155 738 OFFCURVE",
"158 730 OFFCURVE",
"164 730 CURVE SMOOTH",
"398 732 LINE SMOOTH",
"406 732 OFFCURVE",
"419 749 OFFCURVE",
"419 771 CURVE SMOOTH",
"419 782 OFFCURVE",
"412 795 OFFCURVE",
"408 795 CURVE SMOOTH"
);
}
);
};
components = (
{
name = E;
},
{
name = macron;
transform = "{1, 0, 0, 1, 72, 200}";
}
);
layerId = "B965DA2D-85AA-48ED-BC60-A8A438260572";
width = 357;
},
{
components = (
{
name = E;
},
{
name = macron;
transform = "{1, 0, 0, 1, 15, 200}";
}
);
layerId = "113A2EC7-7A34-4A41-8395-62473D9E96C5";
width = 300;
}
);
leftKerningGroup = H;
rightKerningGroup = E;
unicode = 0112;
},
{
glyphname = Eogonek;
layers = (
{
associatedMasterId = "B965DA2D-85AA-48ED-BC60-A8A438260572";
background = {
paths = (
{
closed = 1;
nodes = (
"137 -24 OFFCURVE",
"116 -63 OFFCURVE",
"116 -106 CURVE SMOOTH",
"116 -176 OFFCURVE",
"157 -195 OFFCURVE",
"205 -195 CURVE SMOOTH",
"246 -195 OFFCURVE",
"276 -184 OFFCURVE",
"276 -154 CURVE SMOOTH",
"276 -144 OFFCURVE",
"272 -125 OFFCURVE",
"265 -110 CURVE",
"258 -115 OFFCURVE",
"250 -117 OFFCURVE",
"240 -117 CURVE SMOOTH",
"222 -117 OFFCURVE",
"215 -108 OFFCURVE",
"215 -90 CURVE SMOOTH",
"215 -57 OFFCURVE",
"248 -16 OFFCURVE",
"274 4 CURVE SMOOTH",
"279 8 OFFCURVE",
"279 12 OFFCURVE",
"279 18 CURVE SMOOTH",
"278 698 LINE",
"164 1 LINE"
);
}
);
};
guideLines = (
{
angle = 90;
position = "{283, 262}";
}
);
layerId = "A86C0D18-4940-4857-9DB8-C549E76BDA08";
name = "Bold Apr 18 13, 18:12";
paths = (
{
closed = 1;
nodes = (
"142 100 LINE",
"142 328 LINE",
"244 328 LINE SMOOTH",
"263 328 OFFCURVE",
"263 346 OFFCURVE",
"263 430 CURVE",
"142 430 LINE",
"142 600 LINE",
"270 600 LINE SMOOTH",
"290 600 OFFCURVE",
"290 610 OFFCURVE",
"290 700 CURVE",
"50 700 LINE SMOOTH",
"31 700 OFFCURVE",
"30 680 OFFCURVE",
"30 680 CURVE",
"30 0 LINE",
"163 0 LINE",
"138 -25 OFFCURVE",
"116 -62 OFFCURVE",
"116 -106 CURVE SMOOTH",
"116 -176 OFFCURVE",
"157 -195 OFFCURVE",
"205 -195 CURVE SMOOTH",
"246 -195 OFFCURVE",
"276 -184 OFFCURVE",
"276 -154 CURVE SMOOTH",
"276 -144 OFFCURVE",
"272 -125 OFFCURVE",
"265 -110 CURVE",
"258 -115 OFFCURVE",
"250 -117 OFFCURVE",
"240 -117 CURVE SMOOTH",
"222 -117 OFFCURVE",
"215 -108 OFFCURVE",
"215 -90 CURVE SMOOTH",
"215 -59 OFFCURVE",
"242 -21 OFFCURVE",
"265 -5 CURVE SMOOTH",
"283 7 OFFCURVE",
"283 13 OFFCURVE",
"283 100 CURVE"
);
}
);
width = 300;
},
{
associatedMasterId = "B965DA2D-85AA-48ED-BC60-A8A438260572";
layerId = "1A97840C-00EB-45FE-8D8D-2E841865655B";
width = 600;
},
{
background = {
paths = (
{
closed = 1;
nodes = (
"223 643 LINE SMOOTH",
"156 643 OFFCURVE",
"117 647 OFFCURVE",
"70 647 CURVE SMOOTH",
"56 647 OFFCURVE",
"42 642 OFFCURVE",
"42 633 CURVE SMOOTH",
"42 625 OFFCURVE",
"50 621 OFFCURVE",
"71 616 CURVE SMOOTH",
"115 606 OFFCURVE",
"125 594 OFFCURVE",
"127 550 CURVE SMOOTH",
"129 521 OFFCURVE",
"128 500 OFFCURVE",
"128 381 CURVE SMOOTH",
"128 257 OFFCURVE",
"123 139 OFFCURVE",
"120 97 CURVE SMOOTH",
"116 43 OFFCURVE",
"97 36 OFFCURVE",
"47 24 CURVE SMOOTH",
"31 20 OFFCURVE",
"19 15 OFFCURVE",
"19 8 CURVE SMOOTH",
"19 -3 OFFCURVE",
"30 -5 OFFCURVE",
"49 -5 CURVE SMOOTH",
"87 -5 OFFCURVE",
"109 0 OFFCURVE",
"162 0 CURVE SMOOTH",
"261 0 OFFCURVE",
"358 -2 OFFCURVE",
"420 -5 CURVE",
"346 -54 OFFCURVE",
"293 -122 OFFCURVE",
"293 -174 CURVE SMOOTH",
"293 -223 OFFCURVE",
"324 -264 OFFCURVE",
"383 -264 CURVE SMOOTH",
"436 -264 OFFCURVE",
"468 -238 OFFCURVE",
"483 -215 CURVE",
"484 -213 OFFCURVE",
"489 -201 OFFCURVE",
"489 -194 CURVE SMOOTH",
"489 -187 OFFCURVE",
"484 -183 OFFCURVE",
"479 -186 CURVE",
"462 -195 OFFCURVE",
"441 -201 OFFCURVE",
"420 -201 CURVE SMOOTH",
"394 -201 OFFCURVE",
"368 -182 OFFCURVE",
"368 -151 CURVE SMOOTH",
"368 -115 OFFCURVE",
"395 -60 OFFCURVE",
"452 -6 CURVE",
"470 -7 OFFCURVE",
"483 -8 OFFCURVE",
"487 -8 CURVE SMOOTH",
"492 -8 OFFCURVE",
"501 0 OFFCURVE",
"504 4 CURVE SMOOTH",
"511 13 OFFCURVE",
"541 105 OFFCURVE",
"541 113 CURVE SMOOTH",
"541 124 OFFCURVE",
"541 136 OFFCURVE",
"533 136 CURVE SMOOTH",
"527 136 OFFCURVE",
"521 134 OFFCURVE",
"510 112 CURVE SMOOTH",
"486 65 OFFCURVE",
"458 44 OFFCURVE",
"426 36 CURVE SMOOTH",
"404 30 OFFCURVE",
"343 29 OFFCURVE",
"331 29 CURVE SMOOTH",
"291 29 OFFCURVE",
"257 33 OFFCURVE",
"240 36 CURVE",
"234 38 OFFCURVE",
"226 46 OFFCURVE",
"221 58 CURVE",
"215 74 OFFCURVE",
"211 112 OFFCURVE",
"211 141 CURVE SMOOTH",
"211 184 OFFCURVE",
"210 277 OFFCURVE",
"214 298 CURVE",
"214 300 OFFCURVE",
"220 307 OFFCURVE",
"224 307 CURVE SMOOTH",
"252 307 OFFCURVE",
"290 307 OFFCURVE",
"322 305 CURVE SMOOTH",
"383 302 OFFCURVE",
"387 299 OFFCURVE",
"401 253 CURVE SMOOTH",
"404 242 OFFCURVE",
"411 231 OFFCURVE",
"418 231 CURVE SMOOTH",
"425 231 OFFCURVE",
"430 242 OFFCURVE",
"429 260 CURVE SMOOTH",
"428 280 OFFCURVE",
"426 294 OFFCURVE",
"426 321 CURVE SMOOTH",
"426 345 OFFCURVE",
"427 365 OFFCURVE",
"429 393 CURVE",
"430 401 OFFCURVE",
"428 415 OFFCURVE",
"421 415 CURVE SMOOTH",
"415 415 OFFCURVE",
"409 409 OFFCURVE",
"403 394 CURVE SMOOTH",
"385 348 OFFCURVE",
"381 344 OFFCURVE",
"287 344 CURVE SMOOTH",
"224 344 LINE SMOOTH",
"217 344 OFFCURVE",
"216 352 OFFCURVE",
"215 355 CURVE",
"213 370 OFFCURVE",
"216 557 OFFCURVE",
"218 582 CURVE SMOOTH",
"220 605 OFFCURVE",
"231 610 OFFCURVE",
"233 610 CURVE",
"277 612 OFFCURVE",
"349 610 OFFCURVE",
"375 606 CURVE SMOOTH",
"407 601 OFFCURVE",
"429 591 OFFCURVE",
"442 538 CURVE",
"444 528 OFFCURVE",
"449 514 OFFCURVE",
"458 514 CURVE SMOOTH",
"467 514 OFFCURVE",
"473 526 OFFCURVE",
"473 540 CURVE SMOOTH",
"473 560 OFFCURVE",
"471 589 OFFCURVE",
"471 635 CURVE",
"470 640 OFFCURVE",
"463 647 OFFCURVE",
"460 646 CURVE",
"444 644 OFFCURVE",
"403 643 OFFCURVE",
"370 643 CURVE SMOOTH"
);
},
{
closed = 0;
nodes = (
"294 11 LINE",
"255 -15 OFFCURVE",
"209 -63 OFFCURVE",
"209 -118 CURVE SMOOTH",
"209 -168 OFFCURVE",
"235 -195 OFFCURVE",
"279 -195 CURVE SMOOTH",
"299 -195 OFFCURVE",
"320 -190 OFFCURVE",
"320 -178 CURVE SMOOTH",
"320 -172 OFFCURVE",
"317 -167 OFFCURVE",
"314 -162 CURVE",
"306 -167 OFFCURVE",
"296 -172 OFFCURVE",
"280 -172 CURVE SMOOTH",
"246 -172 OFFCURVE",
"233 -152 OFFCURVE",
"233 -117 CURVE SMOOTH",
"233 -70 OFFCURVE",
"273 -26 OFFCURVE",
"316 0 CURVE SMOOTH",
"321 3 OFFCURVE",
"323 5 OFFCURVE",
"321 11 CURVE SMOOTH"
);
}
);
};
guideLines = (
{
angle = 90;
position = "{322, 65}";
}
);
layerId = "B965DA2D-85AA-48ED-BC60-A8A438260572";
paths = (
{
closed = 1;
nodes = (
"299 -195 OFFCURVE",
"320 -190 OFFCURVE",
"320 -178 CURVE SMOOTH",
"320 -172 OFFCURVE",
"317 -167 OFFCURVE",
"314 -162 CURVE",
"302 -169 OFFCURVE",
"293 -172 OFFCURVE",
"279 -172 CURVE SMOOTH",
"248 -172 OFFCURVE",
"233 -154 OFFCURVE",
"233 -119 CURVE SMOOTH",
"233 -72 OFFCURVE",
"270 -29 OFFCURVE",
"312 -2 CURVE SMOOTH",
"321 4 OFFCURVE",
"322 6 OFFCURVE",
"322 24 CURVE",
"95 24 LINE",
"95 372 LINE",
"292 372 LINE SMOOTH",
"300 372 OFFCURVE",
"300 376 OFFCURVE",
"300 396 CURVE",
"95 396 LINE",
"95 676 LINE",
"314 676 LINE SMOOTH",
"320 676 OFFCURVE",
"320 680 OFFCURVE",
"320 700 CURVE",
"81 700 LINE SMOOTH",
"71 700 OFFCURVE",
"71 690 OFFCURVE",
"71 690 CURVE",
"71 0 LINE",
"279 0 LINE",
"242 -27 OFFCURVE",
"209 -73 OFFCURVE",
"209 -119 CURVE SMOOTH",
"209 -169 OFFCURVE",
"236 -195 OFFCURVE",
"278 -195 CURVE SMOOTH"
);
}
);
width = 357;
},
{
background = {
paths = (
{
closed = 1;
nodes = (
"137 -24 OFFCURVE",
"116 -63 OFFCURVE",
"116 -106 CURVE SMOOTH",
"116 -176 OFFCURVE",
"157 -195 OFFCURVE",
"205 -195 CURVE SMOOTH",
"246 -195 OFFCURVE",
"276 -184 OFFCURVE",
"276 -154 CURVE SMOOTH",
"276 -144 OFFCURVE",
"272 -125 OFFCURVE",
"265 -110 CURVE",
"258 -115 OFFCURVE",
"250 -117 OFFCURVE",
"240 -117 CURVE SMOOTH",
"222 -117 OFFCURVE",
"215 -108 OFFCURVE",
"215 -90 CURVE SMOOTH",
"215 -57 OFFCURVE",
"248 -16 OFFCURVE",
"274 4 CURVE SMOOTH",
"279 8 OFFCURVE",
"279 12 OFFCURVE",
"279 18 CURVE SMOOTH",
"278 698 LINE",
"164 1 LINE"
);
}
);
};
guideLines = (
{
angle = 90;
position = "{283, 262}";
}
);
layerId = "113A2EC7-7A34-4A41-8395-62473D9E96C5";
paths = (
{
closed = 1;
nodes = (
"246 -195 OFFCURVE",
"276 -184 OFFCURVE",
"276 -154 CURVE SMOOTH",
"276 -144 OFFCURVE",
"272 -125 OFFCURVE",
"265 -110 CURVE",
"258 -115 OFFCURVE",
"250 -117 OFFCURVE",
"240 -117 CURVE SMOOTH",
"222 -117 OFFCURVE",
"215 -108 OFFCURVE",
"215 -90 CURVE SMOOTH",
"215 -56 OFFCURVE",
"246 -22 OFFCURVE",
"266 -5 CURVE SMOOTH",
"282 8 OFFCURVE",
"283 9 OFFCURVE",
"283 100 CURVE",
"142 100 LINE",
"142 328 LINE",
"244 328 LINE SMOOTH",
"263 328 OFFCURVE",
"263 346 OFFCURVE",
"263 430 CURVE",
"142 430 LINE",
"142 600 LINE",
"270 600 LINE SMOOTH",
"290 600 OFFCURVE",
"290 610 OFFCURVE",
"290 700 CURVE",
"50 700 LINE SMOOTH",
"31 700 OFFCURVE",
"30 680 OFFCURVE",
"30 680 CURVE",
"30 0 LINE",
"163 0 LINE",
"138 -25 OFFCURVE",
"116 -62 OFFCURVE",
"116 -106 CURVE SMOOTH",
"116 -176 OFFCURVE",
"157 -195 OFFCURVE",
"205 -195 CURVE SMOOTH"
);
}
);
width = 300;
}
);
leftKerningGroup = H;
rightKerningGroup = E;
unicode = 0118;
},
{
color = 3;
glyphname = F;
layers = (
{
associatedMasterId = "B965DA2D-85AA-48ED-BC60-A8A438260572";
layerId = "1A97840C-00EB-45FE-8D8D-2E841865655B";
width = 600;
},
{
hints = (
{
horizontal = 1;
place = "{0, 0}";
type = Stem;
}
);
layerId = "B965DA2D-85AA-48ED-BC60-A8A438260572";
paths = (
{
closed = 1;
nodes = (
"85 0 LINE",
"95 0 OFFCURVE",
"95 10 OFFCURVE",
"95 10 CURVE",
"95 676 LINE",
"314 676 LINE SMOOTH",
"320 676 OFFCURVE",
"320 680 OFFCURVE",
"320 700 CURVE",
"81 700 LINE SMOOTH",
"71 700 OFFCURVE",
"71 690 OFFCURVE",
"71 690 CURVE",
"71 0 LINE"
);
},
{
closed = 1;
nodes = (
"292 373 LINE SMOOTH",
"300 373 OFFCURVE",
"300 377 OFFCURVE",
"300 397 CURVE",
"87 397 LINE",
"87 373 LINE"
);
}
);
width = 344;
},
{
hints = (
{
horizontal = 1;
place = "{0, 0}";
type = Stem;
}
);
layerId = "113A2EC7-7A34-4A41-8395-62473D9E96C5";
paths = (
{
closed = 1;
nodes = (
"124 0 LINE",
"144 0 OFFCURVE",
"142 20 OFFCURVE",
"142 20 CURVE",
"142 605 LINE",
"270 605 LINE SMOOTH",
"290 605 OFFCURVE",
"290 610 OFFCURVE",
"290 700 CURVE",
"50 700 LINE SMOOTH",
"31 700 OFFCURVE",
"30 680 OFFCURVE",
"30 680 CURVE",
"30 0 LINE"
);
},
{
closed = 1;
nodes = (
"244 328 LINE SMOOTH",
"263 328 OFFCURVE",
"263 346 OFFCURVE",
"263 430 CURVE",
"38 430 LINE",
"38 328 LINE"
);
}
);
width = 295;
}
);
leftKerningGroup = H;
rightKerningGroup = F;
unicode = 0046;
},
{
color = 3;
glyphname = G;
layers = (
{
associatedMasterId = "B965DA2D-85AA-48ED-BC60-A8A438260572";
layerId = "1A97840C-00EB-45FE-8D8D-2E841865655B";
width = 600;
},
{
anchors = (
{
name = bottom;
position = "{218, 0}";
},
{
name = top;
position = "{228, 700}";
}
);
layerId = "B965DA2D-85AA-48ED-BC60-A8A438260572";
paths = (
{
closed = 1;
nodes = (
"326 -10 OFFCURVE",
"360 44 OFFCURVE",
"367 60 CURVE",
"367 384 LINE",
"228 384 LINE",
"222 384 OFFCURVE",
"218 381 OFFCURVE",
"218 374 CURVE",
"218 360 LINE",
"343 360 LINE",
"343 67 LINE",
"336 50 OFFCURVE",
"298 14 OFFCURVE",
"235 14 CURVE SMOOTH",
"149 14 OFFCURVE",
"72 47 OFFCURVE",
"72 346 CURVE SMOOTH",
"72 628 OFFCURVE",
"151 686 OFFCURVE",
"256 686 CURVE SMOOTH",
"301 686 OFFCURVE",
"328 673 OFFCURVE",
"351 655 CURVE",
"355 661 OFFCURVE",
"356 666 OFFCURVE",
"356 671 CURVE SMOOTH",
"356 691 OFFCURVE",
"309 710 OFFCURVE",
"253 710 CURVE SMOOTH",
"134 710 OFFCURVE",
"48 644 OFFCURVE",
"48 346 CURVE SMOOTH",
"48 41 OFFCURVE",
"132 -10 OFFCURVE",
"233 -10 CURVE SMOOTH"
);
}
);
width = 415;
},
{
anchors = (
{
name = bottom;
position = "{209, 0}";
},
{
name = top;
position = "{217, 700}";
}
);
layerId = "113A2EC7-7A34-4A41-8395-62473D9E96C5";
paths = (
{
closed = 1;
nodes = (
"267 -10 OFFCURVE",
"316 0 OFFCURVE",
"348 21 CURVE",
"349 425 LINE",
"222 425 LINE",
"206 425 OFFCURVE",
"198 418 OFFCURVE",
"198 405 CURVE",
"198 333 LINE",
"244 333 LINE",
"244 109 LINE",
"240 105 OFFCURVE",
"232 100 OFFCURVE",
"212 100 CURVE SMOOTH",
"158 100 OFFCURVE",
"141 132 OFFCURVE",
"141 336 CURVE SMOOTH",
"141 528 OFFCURVE",
"163 600 OFFCURVE",
"264 600 CURVE SMOOTH",
"290 600 OFFCURVE",
"320 592 OFFCURVE",
"335 580 CURVE",
"342 600 OFFCURVE",
"349 626 OFFCURVE",
"349 652 CURVE SMOOTH",
"349 682 OFFCURVE",
"312 710 OFFCURVE",
"240 710 CURVE SMOOTH",
"101 710 OFFCURVE",
"20 649 OFFCURVE",
"20 327 CURVE SMOOTH",
"20 59 OFFCURVE",
"59 -10 OFFCURVE",
"210 -10 CURVE SMOOTH"
);
}
);
width = 369;
}
);
leftKerningGroup = O;
rightKerningGroup = G;
unicode = 0047;
},
{
glyphname = Gcommaaccent;
layers = (
{
associatedMasterId = "B965DA2D-85AA-48ED-BC60-A8A438260572";
layerId = "1A97840C-00EB-45FE-8D8D-2E841865655B";
width = 600;
},
{
background = {
paths = (
{
closed = 1;
nodes = (
"318 661 OFFCURVE",
"222 627 OFFCURVE",
"159 571 CURVE SMOOTH",
"77 499 OFFCURVE",
"46 408 OFFCURVE",
"46 319 CURVE SMOOTH",
"46 199 OFFCURVE",
"103 117 OFFCURVE",
"149 73 CURVE SMOOTH",
"210 18 OFFCURVE",
"303 -18 OFFCURVE",
"415 -18 CURVE SMOOTH",
"448 -18 OFFCURVE",
"510 -12 OFFCURVE",
"553 0 CURVE SMOOTH",
"592 11 OFFCURVE",
"626 19 OFFCURVE",
"644 24 CURVE SMOOTH",
"655 27 OFFCURVE",
"659 34 OFFCURVE",
"659 38 CURVE SMOOTH",
"659 43 OFFCURVE",
"660 46 OFFCURVE",
"642 56 CURVE SMOOTH",
"637 59 OFFCURVE",
"628 69 OFFCURVE",
"628 85 CURVE SMOOTH",
"628 126 OFFCURVE",
"629 198 OFFCURVE",
"633 209 CURVE SMOOTH",
"637 220 OFFCURVE",
"639 231 OFFCURVE",
"669 240 CURVE SMOOTH",
"681 244 OFFCURVE",
"692 250 OFFCURVE",
"692 257 CURVE SMOOTH",
"692 265 OFFCURVE",
"681 270 OFFCURVE",
"665 270 CURVE SMOOTH",
"633 270 OFFCURVE",
"599 266 OFFCURVE",
"575 266 CURVE SMOOTH",
"546 266 OFFCURVE",
"473 270 OFFCURVE",
"455 270 CURVE SMOOTH",
"436 270 OFFCURVE",
"425 263 OFFCURVE",
"425 256 CURVE SMOOTH",
"425 248 OFFCURVE",
"436 240 OFFCURVE",
"451 239 CURVE SMOOTH",
"526 234 OFFCURVE",
"534 215 OFFCURVE",
"541 192 CURVE",
"543 180 OFFCURVE",
"544 123 OFFCURVE",
"544 88 CURVE SMOOTH",
"544 75 OFFCURVE",
"531 41 OFFCURVE",
"523 36 CURVE SMOOTH",
"495 18 OFFCURVE",
"445 12 OFFCURVE",
"433 12 CURVE SMOOTH",
"340 12 OFFCURVE",
"244 60 OFFCURVE",
"191 150 CURVE SMOOTH",
"162 198 OFFCURVE",
"146 261 OFFCURVE",
"146 332 CURVE SMOOTH",
"146 490 OFFCURVE",
"247 630 OFFCURVE",
"418 630 CURVE SMOOTH",
"498 630 OFFCURVE",
"556 595 OFFCURVE",
"578 568 CURVE SMOOTH",
"593 549 OFFCURVE",
"606 525 OFFCURVE",
"616 498 CURVE SMOOTH",
"622 483 OFFCURVE",
"628 475 OFFCURVE",
"634 475 CURVE SMOOTH",
"641 475 OFFCURVE",
"647 484 OFFCURVE",
"647 497 CURVE SMOOTH",
"647 535 OFFCURVE",
"634 583 OFFCURVE",
"633 607 CURVE",
"633 623 OFFCURVE",
"625 631 OFFCURVE",
"621 631 CURVE",
"610 634 OFFCURVE",
"603 635 OFFCURVE",
"583 639 CURVE SMOOTH",
"541 648 OFFCURVE",
"488 661 OFFCURVE",
"415 661 CURVE SMOOTH"
);
},
{
closed = 1;
nodes = (
"377 -65 OFFCURVE",
"348 -74 OFFCURVE",
"348 -106 CURVE SMOOTH",
"348 -134 OFFCURVE",
"378 -140 OFFCURVE",
"390 -144 CURVE",
"407 -149 OFFCURVE",
"416 -156 OFFCURVE",
"416 -176 CURVE SMOOTH",
"416 -206 OFFCURVE",
"382 -232 OFFCURVE",
"358 -242 CURVE SMOOTH",
"351 -245 OFFCURVE",
"346 -248 OFFCURVE",
"346 -257 CURVE SMOOTH",
"346 -262 OFFCURVE",
"352 -265 OFFCURVE",
"360 -265 CURVE SMOOTH",
"380 -265 OFFCURVE",
"467 -237 OFFCURVE",
"467 -152 CURVE SMOOTH",
"467 -94 OFFCURVE",
"431 -65 OFFCURVE",
"394 -65 CURVE SMOOTH"
);
}
);
};
components = (
{
name = G;
},
{
name = commaaccentcomb;
transform = "{1, 0, 0, 1, 131, 0}";
}
);
layerId = "B965DA2D-85AA-48ED-BC60-A8A438260572";
width = 415;
},
{
components = (
{
name = G;
},
{
name = commaaccentcomb;
transform = "{1, 0, 0, 1, 112, 0}";
}
);
layerId = "113A2EC7-7A34-4A41-8395-62473D9E96C5";
width = 369;
}
);
leftKerningGroup = O;
rightKerningGroup = G;
unicode = 0122;
},
{
color = 3;
glyphname = H;
layers = (
{
associatedMasterId = "B965DA2D-85AA-48ED-BC60-A8A438260572";
layerId = "1A97840C-00EB-45FE-8D8D-2E841865655B";
width = 600;
},
{
anchors = (
{
name = center;
position = "{230, 350}";
},
{
name = top;
position = "{230, 700}";
}
);
hints = (
{
horizontal = 1;
place = "{0, 0}";
type = Stem;
},
{
horizontal = 1;
place = "{0, 0}";
type = Stem;
}
);
layerId = "B965DA2D-85AA-48ED-BC60-A8A438260572";
paths = (
{
closed = 1;
nodes = (
"390 0 OFFCURVE",
"391 0 OFFCURVE",
"391 10 CURVE",
"391 700 LINE",
"367 700 OFFCURVE",
"367 699 OFFCURVE",
"367 690 CURVE",
"367 0 LINE"
);
},
{
closed = 1;
nodes = (
"91 0 OFFCURVE",
"92 0 OFFCURVE",
"92 10 CURVE",
"92 700 LINE",
"69 700 OFFCURVE",
"68 700 OFFCURVE",
"68 690 CURVE",
"68 0 LINE"
);
},
{
closed = 1;
nodes = (
"379 373 LINE",
"379 397 LINE",
"84 397 LINE",
"84 373 LINE"
);
}
);
width = 459;
},
{
anchors = (
{
name = center;
position = "{191, 350}";
},
{
name = top;
position = "{191, 700}";
}
);
hints = (
{
horizontal = 1;
place = "{0, 0}";
type = Stem;
},
{
horizontal = 1;
place = "{0, 0}";
type = Stem;
}
);
layerId = "113A2EC7-7A34-4A41-8395-62473D9E96C5";
paths = (
{
closed = 1;
nodes = (
"353 0 OFFCURVE",
"351 0 OFFCURVE",
"351 20 CURVE",
"351 700 LINE",
"237 700 OFFCURVE",
"239 700 OFFCURVE",
"239 680 CURVE",
"239 0 LINE"
);
},
{
closed = 1;
nodes = (
"145 0 OFFCURVE",
"143 0 OFFCURVE",
"143 20 CURVE",
"143 700 LINE",
"29 700 OFFCURVE",
"31 700 OFFCURVE",
"31 680 CURVE",
"31 0 LINE"
);
},
{
closed = 1;
nodes = (
"290 320 LINE",
"289 425 LINE",
"84 425 LINE",
"84 320 LINE"
);
}
);
width = 382;
}
);
unicode = 0048;
},
{
color = 9;
glyphname = I;
layers = (
{
associatedMasterId = "B965DA2D-85AA-48ED-BC60-A8A438260572";
layerId = "1A97840C-00EB-45FE-8D8D-2E841865655B";
width = 600;
},
{
anchors = (
{
name = bottom;
position = "{81, 0}";
},
{
name = ogonek;
position = "{93, 10}";
},
{
name = top;
position = "{81, 700}";
},
{
name = topleft;
position = "{20, 700}";
}
);
hints = (
{
horizontal = 1;
place = "{0, 0}";
type = Stem;
},
{
horizontal = 1;
place = "{0, 0}";
type = Stem;
}
);
layerId = "B965DA2D-85AA-48ED-BC60-A8A438260572";
paths = (
{
closed = 1;
nodes = (
"91 0 OFFCURVE",
"93 0 OFFCURVE",
"93 10 CURVE",
"93 700 LINE",
"69 700 OFFCURVE",
"68 700 OFFCURVE",
"68 684 CURVE",
"68 0 LINE"
);
}
);
width = 161;
},
{
anchors = (
{
name = bottom;
position = "{87, 0}";
},
{
name = ogonek;
position = "{130, 10}";
},
{
name = top;
position = "{87, 700}";
},
{
name = topleft;
position = "{20, 700}";
}
);
hints = (
{
horizontal = 1;
place = "{0, 0}";
type = Stem;
},
{
horizontal = 1;
place = "{0, 0}";
type = Stem;
}
);
layerId = "113A2EC7-7A34-4A41-8395-62473D9E96C5";
paths = (
{
closed = 1;
nodes = (
"143 0 OFFCURVE",
"144 0 OFFCURVE",
"144 20 CURVE",
"144 700 LINE",
"32 700 OFFCURVE",
"30 700 OFFCURVE",
"30 651 CURVE",
"30 0 LINE"
);
}
);
width = 174;
}
);
unicode = 0049;
},
{
glyphname = IJ;
layers = (
{
associatedMasterId = "B965DA2D-85AA-48ED-BC60-A8A438260572";
layerId = "1A97840C-00EB-45FE-8D8D-2E841865655B";
width = 600;
},
{
background = {
paths = (
{
closed = 1;
nodes = (
"128 241 OFFCURVE",
"126 137 OFFCURVE",
"123 102 CURVE SMOOTH",
"119 55 OFFCURVE",
"115 40 OFFCURVE",
"65 29 CURVE SMOOTH",
"45 25 OFFCURVE",
"35 19 OFFCURVE",
"35 12 CURVE SMOOTH",
"35 5 OFFCURVE",
"42 -2 OFFCURVE",
"61 -2 CURVE SMOOTH",
"98 -2 OFFCURVE",
"107 0 OFFCURVE",
"137 0 CURVE SMOOTH",
"164 0 OFFCURVE",
"235 -6 OFFCURVE",
"286 -6 CURVE SMOOTH",
"298 -6 OFFCURVE",
"313 -1 OFFCURVE",
"313 7 CURVE SMOOTH",
"313 14 OFFCURVE",
"305 21 OFFCURVE",
"287 24 CURVE SMOOTH",
"222 37 OFFCURVE",
"217 56 OFFCURVE",
"214 110 CURVE SMOOTH",
"212 142 OFFCURVE",
"211 204 OFFCURVE",
"211 259 CURVE SMOOTH",
"211 455 OFFCURVE",
"212 520 OFFCURVE",
"217 553 CURVE SMOOTH",
"221 580 OFFCURVE",
"220 605 OFFCURVE",
"278 617 CURVE SMOOTH",
"294 620 OFFCURVE",
"304 626 OFFCURVE",
"304 634 CURVE SMOOTH",
"304 642 OFFCURVE",
"295 646 OFFCURVE",
"279 646 CURVE SMOOTH",
"244 646 OFFCURVE",
"221 643 OFFCURVE",
"172 643 CURVE SMOOTH",
"139 643 OFFCURVE",
"89 646 OFFCURVE",
"63 646 CURVE SMOOTH",
"49 646 OFFCURVE",
"38 642 OFFCURVE",
"38 634 CURVE SMOOTH",
"38 627 OFFCURVE",
"44 620 OFFCURVE",
"66 616 CURVE SMOOTH",
"122 606 OFFCURVE",
"122 591 OFFCURVE",
"125 545 CURVE SMOOTH",
"127 512 OFFCURVE",
"128 388 OFFCURVE",
"128 326 CURVE SMOOTH"
);
},
{
closed = 1;
nodes = (
"266 -186 OFFCURVE",
"298 -206 OFFCURVE",
"331 -206 CURVE SMOOTH",
"357 -206 OFFCURVE",
"399 -193 OFFCURVE",
"445 -158 CURVE SMOOTH",
"496 -119 OFFCURVE",
"552 -31 OFFCURVE",
"553 90 CURVE SMOOTH",
"553 176 OFFCURVE",
"557 461 OFFCURVE",
"557 543 CURVE SMOOTH",
"557 594 OFFCURVE",
"574 608 OFFCURVE",
"614 616 CURVE SMOOTH",
"635 620 OFFCURVE",
"644 626 OFFCURVE",
"644 636 CURVE SMOOTH",
"644 644 OFFCURVE",
"629 646 OFFCURVE",
"617 646 CURVE SMOOTH",
"586 646 OFFCURVE",
"547 643 OFFCURVE",
"512 643 CURVE SMOOTH",
"468 643 OFFCURVE",
"432 646 OFFCURVE",
"401 646 CURVE SMOOTH",
"382 646 OFFCURVE",
"374 642 OFFCURVE",
"374 634 CURVE SMOOTH",
"374 626 OFFCURVE",
"382 619 OFFCURVE",
"405 615 CURVE SMOOTH",
"456 606 OFFCURVE",
"462 581 OFFCURVE",
"464 561 CURVE SMOOTH",
"468 513 OFFCURVE",
"470 411 OFFCURVE",
"470 267 CURVE SMOOTH",
"470 125 OFFCURVE",
"468 17 OFFCURVE",
"464 -45 CURVE SMOOTH",
"461 -87 OFFCURVE",
"452 -111 OFFCURVE",
"436 -128 CURVE",
"422 -144 OFFCURVE",
"413 -147 OFFCURVE",
"396 -147 CURVE SMOOTH",
"382 -147 OFFCURVE",
"363 -138 OFFCURVE",
"344 -126 CURVE",
"337 -121 OFFCURVE",
"317 -114 OFFCURVE",
"313 -114 CURVE SMOOTH",
"308 -114 OFFCURVE",
"292 -124 OFFCURVE",
"289 -127 CURVE SMOOTH",
"279 -137 OFFCURVE",
"266 -158 OFFCURVE",
"266 -167 CURVE SMOOTH"
);
}
);
};
components = (
{
name = I;
},
{
name = J;
transform = "{1, 0, 0, 1, 161, 0}";
}
);
layerId = "B965DA2D-85AA-48ED-BC60-A8A438260572";
width = 458;
},
{
components = (
{
name = I;
},
{
name = J;
transform = "{1, 0, 0, 1, 174, 0}";
}
);
layerId = "113A2EC7-7A34-4A41-8395-62473D9E96C5";
width = 475;
}
);
rightKerningGroup = J;
unicode = 0132;
},
{
glyphname = Imacron;
layers = (
{
associatedMasterId = "B965DA2D-85AA-48ED-BC60-A8A438260572";
layerId = "1A97840C-00EB-45FE-8D8D-2E841865655B";
width = 600;
},
{
background = {
paths = (
{
closed = 1;
nodes = (
"128 241 OFFCURVE",
"126 137 OFFCURVE",
"123 102 CURVE SMOOTH",
"119 55 OFFCURVE",
"115 40 OFFCURVE",
"65 29 CURVE SMOOTH",
"45 25 OFFCURVE",
"35 19 OFFCURVE",
"35 12 CURVE SMOOTH",
"35 5 OFFCURVE",
"42 -2 OFFCURVE",
"61 -2 CURVE SMOOTH",
"98 -2 OFFCURVE",
"107 0 OFFCURVE",
"137 0 CURVE SMOOTH",
"164 0 OFFCURVE",
"235 -6 OFFCURVE",
"286 -6 CURVE SMOOTH",
"298 -6 OFFCURVE",
"313 -1 OFFCURVE",
"313 7 CURVE SMOOTH",
"313 14 OFFCURVE",
"305 21 OFFCURVE",
"287 24 CURVE SMOOTH",
"222 37 OFFCURVE",
"217 56 OFFCURVE",
"214 110 CURVE SMOOTH",
"212 142 OFFCURVE",
"211 204 OFFCURVE",
"211 259 CURVE SMOOTH",
"211 455 OFFCURVE",
"212 520 OFFCURVE",
"217 553 CURVE SMOOTH",
"221 580 OFFCURVE",
"220 605 OFFCURVE",
"278 617 CURVE SMOOTH",
"294 620 OFFCURVE",
"304 626 OFFCURVE",
"304 634 CURVE SMOOTH",
"304 642 OFFCURVE",
"295 646 OFFCURVE",
"279 646 CURVE SMOOTH",
"244 646 OFFCURVE",
"221 643 OFFCURVE",
"172 643 CURVE SMOOTH",
"139 643 OFFCURVE",
"89 646 OFFCURVE",
"63 646 CURVE SMOOTH",
"49 646 OFFCURVE",
"38 642 OFFCURVE",
"38 634 CURVE SMOOTH",
"38 627 OFFCURVE",
"44 620 OFFCURVE",
"66 616 CURVE SMOOTH",
"122 606 OFFCURVE",
"122 591 OFFCURVE",
"125 545 CURVE SMOOTH",
"127 512 OFFCURVE",
"128 388 OFFCURVE",
"128 326 CURVE SMOOTH"
);
},
{
closed = 1;
nodes = (
"55 790 LINE SMOOTH",
"48 790 OFFCURVE",
"38 762 OFFCURVE",
"38 750 CURVE SMOOTH",
"38 740 OFFCURVE",
"41 732 OFFCURVE",
"47 732 CURVE SMOOTH",
"281 734 LINE SMOOTH",
"289 734 OFFCURVE",
"302 751 OFFCURVE",
"302 773 CURVE SMOOTH",
"302 784 OFFCURVE",
"295 797 OFFCURVE",
"291 797 CURVE SMOOTH"
);
}
);
};
components = (
{
name = I;
},
{
name = macron;
transform = "{1, 0, 0, 1, -44, 200}";
}
);
layerId = "B965DA2D-85AA-48ED-BC60-A8A438260572";
width = 161;
},
{
components = (
{
name = I;
},
{
name = macron;
transform = "{1, 0, 0, 1, -53, 200}";
}
);
layerId = "113A2EC7-7A34-4A41-8395-62473D9E96C5";
width = 174;
}
);
unicode = 012A;
},
{
glyphname = Iogonek;
layers = (
{
associatedMasterId = "B965DA2D-85AA-48ED-BC60-A8A438260572";
layerId = "1A97840C-00EB-45FE-8D8D-2E841865655B";
width = 600;
},
{
background = {
paths = (
{
closed = 1;
nodes = (
"128 241 OFFCURVE",
"126 137 OFFCURVE",
"123 102 CURVE SMOOTH",
"119 55 OFFCURVE",
"115 39 OFFCURVE",
"65 28 CURVE SMOOTH",
"45 23 OFFCURVE",
"35 19 OFFCURVE",
"35 12 CURVE SMOOTH",
"35 5 OFFCURVE",
"42 -2 OFFCURVE",
"61 -2 CURVE SMOOTH",
"98 -2 OFFCURVE",
"107 0 OFFCURVE",
"137 0 CURVE SMOOTH",
"147 0 OFFCURVE",
"162 -1 OFFCURVE",
"181 -2 CURVE",
"116 -53 OFFCURVE",
"66 -123 OFFCURVE",
"66 -177 CURVE SMOOTH",
"66 -225 OFFCURVE",
"97 -267 OFFCURVE",
"155 -267 CURVE SMOOTH",
"207 -267 OFFCURVE",
"243 -241 OFFCURVE",
"256 -218 CURVE",
"257 -215 OFFCURVE",
"263 -202 OFFCURVE",
"263 -195 CURVE SMOOTH",
"263 -189 OFFCURVE",
"257 -184 OFFCURVE",
"251 -187 CURVE",
"235 -196 OFFCURVE",
"221 -204 OFFCURVE",
"191 -204 CURVE SMOOTH",
"164 -204 OFFCURVE",
"142 -183 OFFCURVE",
"142 -151 CURVE SMOOTH",
"142 -116 OFFCURVE",
"164 -58 OFFCURVE",
"211 -3 CURVE",
"236 -5 OFFCURVE",
"263 -6 OFFCURVE",
"286 -6 CURVE SMOOTH",
"298 -6 OFFCURVE",
"313 -1 OFFCURVE",
"313 7 CURVE SMOOTH",
"313 14 OFFCURVE",
"305 21 OFFCURVE",
"287 24 CURVE SMOOTH",
"222 37 OFFCURVE",
"217 56 OFFCURVE",
"214 110 CURVE SMOOTH",
"212 142 OFFCURVE",
"211 204 OFFCURVE",
"211 259 CURVE SMOOTH",
"211 455 OFFCURVE",
"212 520 OFFCURVE",
"217 553 CURVE SMOOTH",
"221 580 OFFCURVE",
"220 605 OFFCURVE",
"278 617 CURVE SMOOTH",
"294 620 OFFCURVE",
"304 626 OFFCURVE",
"304 634 CURVE SMOOTH",
"304 642 OFFCURVE",
"295 646 OFFCURVE",
"279 646 CURVE SMOOTH",
"244 646 OFFCURVE",
"221 643 OFFCURVE",
"172 643 CURVE SMOOTH",
"139 643 OFFCURVE",
"89 646 OFFCURVE",
"63 646 CURVE SMOOTH",
"49 646 OFFCURVE",
"38 642 OFFCURVE",
"38 634 CURVE SMOOTH",
"38 628 OFFCURVE",
"44 620 OFFCURVE",
"67 616 CURVE SMOOTH",
"122 606 OFFCURVE",
"122 591 OFFCURVE",
"125 545 CURVE SMOOTH",
"127 512 OFFCURVE",
"128 388 OFFCURVE",
"128 326 CURVE SMOOTH"
);
}
);
};
layerId = "B965DA2D-85AA-48ED-BC60-A8A438260572";
paths = (
{
closed = 1;
nodes = (
"88 -195 OFFCURVE",
"105 -188 OFFCURVE",
"104 -177 CURVE SMOOTH",
"104 -173 OFFCURVE",
"101 -165 OFFCURVE",
"98 -162 CURVE",
"86 -168 OFFCURVE",
"78 -171 OFFCURVE",
"64 -171 CURVE SMOOTH",
"31 -171 OFFCURVE",
"17 -153 OFFCURVE",
"17 -122 CURVE SMOOTH",
"17 -74 OFFCURVE",
"49 -30 OFFCURVE",
"79 -6 CURVE SMOOTH",
"86 -1 OFFCURVE",
"92 2 OFFCURVE",
"92 10 CURVE",
"92 700 LINE",
"69 700 OFFCURVE",
"68 700 OFFCURVE",
"68 684 CURVE SMOOTH",
"68 11.895 LINE",
"29 -21 OFFCURVE",
"-7 -64 OFFCURVE",
"-7 -121 CURVE SMOOTH",
"-7 -167 OFFCURVE",
"17 -195 OFFCURVE",
"64 -195 CURVE SMOOTH"
);
}
);
width = 160;
},
{
background = {
paths = (
{
closed = 0;
nodes = (
"66 -195 LINE",
"107 -195 OFFCURVE",
"137 -184 OFFCURVE",
"137 -154 CURVE SMOOTH",
"137 -144 OFFCURVE",
"133 -125 OFFCURVE",
"126 -110 CURVE",
"119 -115 OFFCURVE",
"111 -117 OFFCURVE",
"101 -117 CURVE SMOOTH",
"83 -117 OFFCURVE",
"76 -108 OFFCURVE",
"76 -90 CURVE SMOOTH",
"76 -56 OFFCURVE",
"107 -22 OFFCURVE",
"127 -5 CURVE SMOOTH",
"143 8 OFFCURVE",
"144 9 OFFCURVE",
"144 100 CURVE"
);
}
);
};
layerId = "113A2EC7-7A34-4A41-8395-62473D9E96C5";
paths = (
{
closed = 1;
nodes = (
"116 -195 OFFCURVE",
"147 -184 OFFCURVE",
"147 -154 CURVE SMOOTH",
"147 -144 OFFCURVE",
"143 -125 OFFCURVE",
"136 -110 CURVE",
"129 -115 OFFCURVE",
"121 -117 OFFCURVE",
"112 -117 CURVE SMOOTH",
"93 -117 OFFCURVE",
"86 -108 OFFCURVE",
"86 -91 CURVE SMOOTH",
"86 -55 OFFCURVE",
"116 -21 OFFCURVE",
"133 -3 CURVE SMOOTH",
"142 6 OFFCURVE",
"144 11 OFFCURVE",
"144 20 CURVE SMOOTH",
"144 700 LINE",
"32 700 OFFCURVE",
"30 700 OFFCURVE",
"30 651 CURVE SMOOTH",
"30 0 LINE",
"9 -30 OFFCURVE",
"-13 -62 OFFCURVE",
"-13 -110 CURVE SMOOTH",
"-13 -176 OFFCURVE",
"30 -195 OFFCURVE",
"79 -195 CURVE SMOOTH"
);
}
);
width = 174;
}
);
unicode = 012E;
},
{
color = 3;
glyphname = J;
layers = (
{
associatedMasterId = "B965DA2D-85AA-48ED-BC60-A8A438260572";
layerId = "1A97840C-00EB-45FE-8D8D-2E841865655B";
width = 600;
},
{
anchors = (
{
name = top;
position = "{149, 700}";
}
);
hints = (
{
horizontal = 1;
place = "{0, 0}";
type = Stem;
}
);
layerId = "B965DA2D-85AA-48ED-BC60-A8A438260572";
paths = (
{
closed = 1;
nodes = (
"227 -10 OFFCURVE",
"229 97 OFFCURVE",
"229 172 CURVE SMOOTH",
"229 700 LINE",
"205 700 OFFCURVE",
"205 700 OFFCURVE",
"205 685 CURVE",
"205 184 LINE SMOOTH",
"205 102 OFFCURVE",
"203 14 OFFCURVE",
"115 14 CURVE SMOOTH",
"76 14 OFFCURVE",
"48 31 OFFCURVE",
"29 54 CURVE",
"25 50 OFFCURVE",
"21 42 OFFCURVE",
"21 35 CURVE SMOOTH",
"21 15 OFFCURVE",
"62 -10 OFFCURVE",
"116 -10 CURVE SMOOTH"
);
}
);
width = 297;
},
{
anchors = (
{
name = top;
position = "{151, 700}";
}
);
hints = (
{
horizontal = 1;
place = "{0, 0}";
type = Stem;
}
);
layerId = "113A2EC7-7A34-4A41-8395-62473D9E96C5";
paths = (
{
closed = 1;
nodes = (
"230 -9 OFFCURVE",
"271 49 OFFCURVE",
"271 161 CURVE SMOOTH",
"271 700 LINE",
"157 700 OFFCURVE",
"157 700 OFFCURVE",
"157 651 CURVE",
"157 183 LINE SMOOTH",
"157 107 OFFCURVE",
"148 90 OFFCURVE",
"105 90 CURVE SMOOTH",
"76 90 OFFCURVE",
"44 105 OFFCURVE",
"25 119 CURVE",
"19 105 OFFCURVE",
"10 87 OFFCURVE",
"10 58 CURVE SMOOTH",
"10 24 OFFCURVE",
"25 -9 OFFCURVE",
"121 -9 CURVE SMOOTH"
);
}
);
width = 301;
}
);
leftKerningGroup = J;
rightKerningGroup = J;
unicode = 004A;
},
{
color = 3;
glyphname = K;
layers = (
{
associatedMasterId = "B965DA2D-85AA-48ED-BC60-A8A438260572";
layerId = "1A97840C-00EB-45FE-8D8D-2E841865655B";
width = 600;
},
{
anchors = (
{
name = bottom;
position = "{196, 0}";
},
{
name = top;
position = "{196, 700}";
}
);
hints = (
{
horizontal = 1;
place = "{0, 0}";
type = Stem;
},
{
horizontal = 1;
place = "{0, 0}";
type = Stem;
}
);
layerId = "B965DA2D-85AA-48ED-BC60-A8A438260572";
paths = (
{
closed = 1;
nodes = (
"370 -1 OFFCURVE",
"374 3 OFFCURVE",
"370 13 CURVE",
"296 230 OFFCURVE",
"205 346 OFFCURVE",
"115 392 CURVE",
"363 685 LINE SMOOTH",
"371 694 OFFCURVE",
"369 700 OFFCURVE",
"357 700 CURVE SMOOTH",
"352 700 OFFCURVE",
"347 700 OFFCURVE",
"342 699 CURVE",
"84 389 LINE",
"84 379 LINE",
"108 369 OFFCURVE",
"131 359 OFFCURVE",
"151 339 CURVE SMOOTH",
"206 286 OFFCURVE",
"268 219 OFFCURVE",
"350 0 CURVE",
"354 -1 OFFCURVE",
"359 -1 OFFCURVE",
"363 -1 CURVE SMOOTH"
);
},
{
closed = 1;
nodes = (
"92 0 OFFCURVE",
"92 0 OFFCURVE",
"92 10 CURVE",
"92 700 LINE",
"68 700 OFFCURVE",
"68 700 OFFCURVE",
"68 690 CURVE",
"68 0 LINE"
);
}
);
width = 392;
},
{
anchors = (
{
name = bottom;
position = "{194, 0}";
},
{
name = top;
position = "{194, 700}";
}
);
hints = (
{
horizontal = 1;
place = "{0, 0}";
type = Stem;
},
{
horizontal = 1;
place = "{0, 0}";
type = Stem;
}
);
layerId = "113A2EC7-7A34-4A41-8395-62473D9E96C5";
paths = (
{
closed = 1;
nodes = (
"358 -2 OFFCURVE",
"365 3 OFFCURVE",
"365 21 CURVE",
"365 198 OFFCURVE",
"330 333 OFFCURVE",
"257 401 CURVE",
"371 673 LINE SMOOTH",
"379 693 OFFCURVE",
"363 701 OFFCURVE",
"323 701 CURVE SMOOTH",
"304 701 OFFCURVE",
"278 699 OFFCURVE",
"251 693 CURVE",
"118 352 LINE",
"118 335 LINE",
"136 333 OFFCURVE",
"157 323 OFFCURVE",
"172 306 CURVE SMOOTH",
"229 242 OFFCURVE",
"238 123 OFFCURVE",
"238 1 CURVE",
"266 -1 OFFCURVE",
"293 -2 OFFCURVE",
"318 -2 CURVE SMOOTH"
);
},
{
closed = 1;
nodes = (
"142 0 OFFCURVE",
"142 0 OFFCURVE",
"142 20 CURVE",
"142 700 LINE",
"28 700 OFFCURVE",
"28 700 OFFCURVE",
"28 680 CURVE",
"28 0 LINE"
);
}
);
width = 388;
}
);
rightKerningGroup = K;
unicode = 004B;
},
{
glyphname = Kcommaaccent;
layers = (
{
associatedMasterId = "B965DA2D-85AA-48ED-BC60-A8A438260572";
layerId = "1A97840C-00EB-45FE-8D8D-2E841865655B";
width = 600;
},
{
background = {
paths = (
{
closed = 1;
nodes = (
"43 628 OFFCURVE",
"46 622 OFFCURVE",
"69 616 CURVE SMOOTH",
"109 606 OFFCURVE",
"122 595 OFFCURVE",
"124 560 CURVE SMOOTH",
"126 524 OFFCURVE",
"128 506 OFFCURVE",
"128 346 CURVE SMOOTH",
"128 238 OFFCURVE",
"126 144 OFFCURVE",
"125 110 CURVE SMOOTH",
"122 51 OFFCURVE",
"103 37 OFFCURVE",
"54 27 CURVE SMOOTH",
"33 22 OFFCURVE",
"25 19 OFFCURVE",
"25 10 CURVE SMOOTH",
"25 3 OFFCURVE",
"38 -3 OFFCURVE",
"49 -3 CURVE SMOOTH",
"81 -3 OFFCURVE",
"114 0 OFFCURVE",
"146 0 CURVE SMOOTH",
"177 0 OFFCURVE",
"247 -3 OFFCURVE",
"269 -3 CURVE SMOOTH",
"285 -3 OFFCURVE",
"295 2 OFFCURVE",
"295 10 CURVE SMOOTH",
"295 17 OFFCURVE",
"290 24 OFFCURVE",
"272 28 CURVE",
"227 40 OFFCURVE",
"213 55 OFFCURVE",
"212 81 CURVE SMOOTH",
"211 118 OFFCURVE",
"208 280 OFFCURVE",
"210 299 CURVE SMOOTH",
"211 307 OFFCURVE",
"210 320 OFFCURVE",
"215 320 CURVE SMOOTH",
"223 320 OFFCURVE",
"233 307 OFFCURVE",
"260 278 CURVE SMOOTH",
"312 225 OFFCURVE",
"447 82 OFFCURVE",
"477 44 CURVE",
"479 41 OFFCURVE",
"476 35 OFFCURVE",
"472 34 CURVE",
"433 26 OFFCURVE",
"429 22 OFFCURVE",
"429 17 CURVE SMOOTH",
"429 10 OFFCURVE",
"436 -1 OFFCURVE",
"450 -1 CURVE SMOOTH",
"473 -1 OFFCURVE",
"484 0 OFFCURVE",
"520 0 CURVE SMOOTH",
"547 0 OFFCURVE",
"639 -8 OFFCURVE",
"666 -8 CURVE SMOOTH",
"677 -8 OFFCURVE",
"691 -3 OFFCURVE",
"691 7 CURVE SMOOTH",
"691 11 OFFCURVE",
"682 18 OFFCURVE",
"671 21 CURVE",
"635 27 OFFCURVE",
"612 29 OFFCURVE",
"566 75 CURVE SMOOTH",
"491 152 OFFCURVE",
"320 327 OFFCURVE",
"298 355 CURVE",
"295 358 OFFCURVE",
"296 359 OFFCURVE",
"298 365 CURVE",
"310 384 OFFCURVE",
"440 504 OFFCURVE",
"487 541 CURVE SMOOTH",
"551 590 OFFCURVE",
"575 606 OFFCURVE",
"632 618 CURVE",
"647 622 OFFCURVE",
"659 630 OFFCURVE",
"659 636 CURVE SMOOTH",
"659 644 OFFCURVE",
"651 648 OFFCURVE",
"633 648 CURVE SMOOTH",
"605 648 OFFCURVE",
"509 643 OFFCURVE",
"485 643 CURVE SMOOTH",
"467 643 OFFCURVE",
"466 644 OFFCURVE",
"447 644 CURVE SMOOTH",
"432 644 OFFCURVE",
"421 640 OFFCURVE",
"421 631 CURVE SMOOTH",
"421 623 OFFCURVE",
"432 620 OFFCURVE",
"444 616 CURVE",
"477 607 OFFCURVE",
"481 591 OFFCURVE",
"455 562 CURVE SMOOTH",
"424 527 OFFCURVE",
"264 370 OFFCURVE",
"232 346 CURVE",
"231 346 OFFCURVE",
"221 339 OFFCURVE",
"217 339 CURVE SMOOTH",
"213 339 OFFCURVE",
"211 342 OFFCURVE",
"210 346 CURVE",
"208 360 OFFCURVE",
"208 523 OFFCURVE",
"211 561 CURVE SMOOTH",
"213 600 OFFCURVE",
"225 609 OFFCURVE",
"259 616 CURVE",
"275 620 OFFCURVE",
"288 625 OFFCURVE",
"288 633 CURVE SMOOTH",
"288 642 OFFCURVE",
"278 645 OFFCURVE",
"261 645 CURVE SMOOTH",
"237 645 OFFCURVE",
"198 643 OFFCURVE",
"168 643 CURVE SMOOTH",
"136 643 OFFCURVE",
"94 646 OFFCURVE",
"70 646 CURVE SMOOTH",
"55 646 OFFCURVE",
"43 642 OFFCURVE",
"43 633 CURVE SMOOTH"
);
},
{
closed = 1;
nodes = (
"332 -46 OFFCURVE",
"303 -55 OFFCURVE",
"303 -87 CURVE SMOOTH",
"303 -115 OFFCURVE",
"333 -121 OFFCURVE",
"345 -125 CURVE",
"362 -130 OFFCURVE",
"371 -137 OFFCURVE",
"371 -157 CURVE SMOOTH",
"371 -187 OFFCURVE",
"337 -213 OFFCURVE",
"313 -223 CURVE SMOOTH",
"306 -226 OFFCURVE",
"301 -229 OFFCURVE",
"301 -238 CURVE SMOOTH",
"301 -243 OFFCURVE",
"307 -246 OFFCURVE",
"315 -246 CURVE SMOOTH",
"335 -246 OFFCURVE",
"422 -218 OFFCURVE",
"422 -133 CURVE SMOOTH",
"422 -75 OFFCURVE",
"386 -46 OFFCURVE",
"349 -46 CURVE SMOOTH"
);
}
);
};
components = (
{
name = K;
},
{
name = commaaccentcomb;
transform = "{1, 0, 0, 1, 109, 0}";
}
);
layerId = "B965DA2D-85AA-48ED-BC60-A8A438260572";
width = 392;
},
{
components = (
{
name = K;
},
{
name = commaaccentcomb;
transform = "{1, 0, 0, 1, 97, 0}";
}
);
layerId = "113A2EC7-7A34-4A41-8395-62473D9E96C5";
width = 388;
}
);
unicode = 0136;
},
{
color = 3;
glyphname = L;
layers = (
{
associatedMasterId = "B965DA2D-85AA-48ED-BC60-A8A438260572";
layerId = "1A97840C-00EB-45FE-8D8D-2E841865655B";
width = 600;
},
{
anchors = (
{
name = bottom;
position = "{172, 0}";
},
{
name = top;
position = "{172, 700}";
}
);
hints = (
{
horizontal = 1;
place = "{0, 0}";
type = Stem;
}
);
layerId = "B965DA2D-85AA-48ED-BC60-A8A438260572";
paths = (
{
closed = 1;
nodes = (
"313 0 LINE",
"319 0 OFFCURVE",
"323 1 OFFCURVE",
"323 10 CURVE",
"323 23 LINE",
"94 23 LINE",
"94 700 LINE",
"68 700 OFFCURVE",
"68 700 OFFCURVE",
"68 685 CURVE",
"68 0 LINE"
);
}
);
width = 343;
},
{
anchors = (
{
name = bottom;
position = "{149, 0}";
},
{
name = top;
position = "{89, 700}";
}
);
hints = (
{
horizontal = 1;
place = "{0, 0}";
type = Stem;
}
);
layerId = "113A2EC7-7A34-4A41-8395-62473D9E96C5";
paths = (
{
closed = 1;
nodes = (
"263 0 LINE",
"275 0 OFFCURVE",
"283 4 OFFCURVE",
"283 20 CURVE",
"283 105 LINE",
"142 105 LINE",
"142 700 LINE",
"32 700 OFFCURVE",
"30 700 OFFCURVE",
"30 672 CURVE",
"30 0 LINE"
);
}
);
width = 298;
}
);
leftKerningGroup = H;
rightKerningGroup = L;
unicode = 004C;
},
{
glyphname = Lacute;
layers = (
{
associatedMasterId = "B965DA2D-85AA-48ED-BC60-A8A438260572";
layerId = "1A97840C-00EB-45FE-8D8D-2E841865655B";
width = 600;
},
{
background = {
paths = (
{
closed = 1;
nodes = (
"46 626 OFFCURVE",
"54 618 OFFCURVE",
"74 614 CURVE SMOOTH",
"121 605 OFFCURVE",
"126 586 OFFCURVE",
"127 564 CURVE SMOOTH",
"128 531 OFFCURVE",
"128 462 OFFCURVE",
"128 422 CURVE SMOOTH",
"128 277 OFFCURVE",
"125 118 OFFCURVE",
"123 93 CURVE",
"118 54 OFFCURVE",
"104 35 OFFCURVE",
"49 24 CURVE SMOOTH",
"33 21 OFFCURVE",
"25 13 OFFCURVE",
"25 6 CURVE SMOOTH",
"25 -3 OFFCURVE",
"35 -5 OFFCURVE",
"54 -5 CURVE SMOOTH",
"68 -5 OFFCURVE",
"115 0 OFFCURVE",
"183 0 CURVE SMOOTH",
"386 0 OFFCURVE",
"477 -6 OFFCURVE",
"489 -6 CURVE SMOOTH",
"493 -6 OFFCURVE",
"512 0 OFFCURVE",
"513 11 CURVE",
"521 49 OFFCURVE",
"528 70 OFFCURVE",
"544 119 CURVE",
"548 135 OFFCURVE",
"545 146 OFFCURVE",
"540 146 CURVE SMOOTH",
"535 146 OFFCURVE",
"526 142 OFFCURVE",
"515 124 CURVE",
"488 86 OFFCURVE",
"472 71 OFFCURVE",
"458 57 CURVE",
"438 39 OFFCURVE",
"426 39 OFFCURVE",
"418 38 CURVE SMOOTH",
"403 36 OFFCURVE",
"375 35 OFFCURVE",
"347 35 CURVE SMOOTH",
"314 35 OFFCURVE",
"277 36 OFFCURVE",
"251 40 CURVE SMOOTH",
"243 41 OFFCURVE",
"219 64 OFFCURVE",
"217 78 CURVE SMOOTH",
"213 111 OFFCURVE",
"210 207 OFFCURVE",
"210 285 CURVE SMOOTH",
"210 433 OFFCURVE",
"210 534 OFFCURVE",
"216 579 CURVE SMOOTH",
"218 594 OFFCURVE",
"225 605 OFFCURVE",
"283 618 CURVE",
"298 622 OFFCURVE",
"306 628 OFFCURVE",
"306 635 CURVE SMOOTH",
"306 642 OFFCURVE",
"299 646 OFFCURVE",
"281 646 CURVE SMOOTH",
"257 646 OFFCURVE",
"189 643 OFFCURVE",
"150 643 CURVE SMOOTH",
"121 643 OFFCURVE",
"103 645 OFFCURVE",
"76 645 CURVE SMOOTH",
"54 645 OFFCURVE",
"46 640 OFFCURVE",
"46 633 CURVE SMOOTH"
);
},
{
closed = 1;
nodes = (
"232 806 OFFCURVE",
"177 757 OFFCURVE",
"145 727 CURVE SMOOTH",
"129 712 OFFCURVE",
"131 700 OFFCURVE",
"133 700 CURVE",
"143 690 OFFCURVE",
"161 696 OFFCURVE",
"169 700 CURVE",
"216 721 OFFCURVE",
"270 750 OFFCURVE",
"315 780 CURVE",
"326 786 OFFCURVE",
"337 800 OFFCURVE",
"337 808 CURVE SMOOTH",
"337 822 OFFCURVE",
"315 838 OFFCURVE",
"306 844 CURVE",
"300 845 OFFCURVE",
"287 849 OFFCURVE",
"274 838 CURVE"
);
}
);
};
components = (
{
name = L;
},
{
name = acutecomb;
transform = "{1, 0, 0, 1, 47, 200}";
}
);
layerId = "B965DA2D-85AA-48ED-BC60-A8A438260572";
width = 343;
},
{
components = (
{
name = L;
},
{
name = acutecomb;
transform = "{1, 0, 0, 1, -41, 200}";
}
);
layerId = "113A2EC7-7A34-4A41-8395-62473D9E96C5";
width = 298;
}
);
leftKerningGroup = H;
rightKerningGroup = L;
unicode = 0139;
},
{
color = 4;
glyphname = Lcaron;
layers = (
{
associatedMasterId = "B965DA2D-85AA-48ED-BC60-A8A438260572";
layerId = "1A97840C-00EB-45FE-8D8D-2E841865655B";
width = 600;
},
{
background = {
paths = (
{
closed = 1;
nodes = (
"46 626 OFFCURVE",
"54 618 OFFCURVE",
"74 614 CURVE SMOOTH",
"121 605 OFFCURVE",
"126 586 OFFCURVE",
"127 564 CURVE SMOOTH",
"128 531 OFFCURVE",
"128 462 OFFCURVE",
"128 422 CURVE SMOOTH",
"128 277 OFFCURVE",
"125 118 OFFCURVE",
"123 93 CURVE",
"118 54 OFFCURVE",
"104 35 OFFCURVE",
"49 24 CURVE SMOOTH",
"33 21 OFFCURVE",
"25 13 OFFCURVE",
"25 6 CURVE SMOOTH",
"25 -3 OFFCURVE",
"35 -5 OFFCURVE",
"54 -5 CURVE SMOOTH",
"68 -5 OFFCURVE",
"115 0 OFFCURVE",
"183 0 CURVE SMOOTH",
"386 0 OFFCURVE",
"477 -6 OFFCURVE",
"489 -6 CURVE SMOOTH",
"493 -6 OFFCURVE",
"512 0 OFFCURVE",
"513 11 CURVE",
"521 49 OFFCURVE",
"528 70 OFFCURVE",
"544 119 CURVE",
"548 135 OFFCURVE",
"545 146 OFFCURVE",
"540 146 CURVE SMOOTH",
"535 146 OFFCURVE",
"526 142 OFFCURVE",
"515 124 CURVE",
"488 86 OFFCURVE",
"472 71 OFFCURVE",
"458 57 CURVE",
"438 39 OFFCURVE",
"426 39 OFFCURVE",
"418 38 CURVE SMOOTH",
"403 36 OFFCURVE",
"375 35 OFFCURVE",
"347 35 CURVE SMOOTH",
"314 35 OFFCURVE",
"277 36 OFFCURVE",
"251 40 CURVE SMOOTH",
"243 41 OFFCURVE",
"219 64 OFFCURVE",
"217 78 CURVE SMOOTH",
"213 111 OFFCURVE",
"210 207 OFFCURVE",
"210 285 CURVE SMOOTH",
"210 433 OFFCURVE",
"210 534 OFFCURVE",
"216 579 CURVE SMOOTH",
"218 594 OFFCURVE",
"225 605 OFFCURVE",
"283 618 CURVE",
"298 622 OFFCURVE",
"306 628 OFFCURVE",
"306 635 CURVE SMOOTH",
"306 642 OFFCURVE",
"299 646 OFFCURVE",
"281 646 CURVE SMOOTH",
"257 646 OFFCURVE",
"189 643 OFFCURVE",
"150 643 CURVE SMOOTH",
"121 643 OFFCURVE",
"103 645 OFFCURVE",
"76 645 CURVE SMOOTH",
"54 645 OFFCURVE",
"46 640 OFFCURVE",
"46 633 CURVE SMOOTH"
);
},
{
closed = 1;
nodes = (
"415 666 OFFCURVE",
"383 644 OFFCURVE",
"375 635 CURVE",
"372 632 OFFCURVE",
"369 624 OFFCURVE",
"369 623 CURVE",
"370 602 OFFCURVE",
"375 501 OFFCURVE",
"376 463 CURVE SMOOTH",
"376 453 OFFCURVE",
"378 442 OFFCURVE",
"388 442 CURVE SMOOTH",
"397 442 OFFCURVE",
"407 464 OFFCURVE",
"409 469 CURVE",
"422 508 OFFCURVE",
"442 615 OFFCURVE",
"441 648 CURVE",
"441 658 OFFCURVE",
"438 666 OFFCURVE",
"429 666 CURVE SMOOTH"
);
}
);
};
components = (
{
alignment = -1;
name = L;
},
{
alignment = -1;
name = __caroncomb.alt;
transform = "{1, 0, 0, 1, 199, -35}";
}
);
layerId = "B965DA2D-85AA-48ED-BC60-A8A438260572";
width = 353;
},
{
components = (
{
alignment = -1;
name = L;
},
{
alignment = -1;
name = __caroncomb.alt;
transform = "{1, 0, 0, 1, 189, -35}";
}
);
layerId = "113A2EC7-7A34-4A41-8395-62473D9E96C5";
width = 298;
}
);
leftKerningGroup = H;
rightKerningGroup = L;
unicode = 013D;
},
{
glyphname = Lcommaaccent;
layers = (
{
associatedMasterId = "B965DA2D-85AA-48ED-BC60-A8A438260572";
layerId = "1A97840C-00EB-45FE-8D8D-2E841865655B";
width = 600;
},
{
background = {
paths = (
{
closed = 1;
nodes = (
"46 626 OFFCURVE",
"54 618 OFFCURVE",
"74 614 CURVE SMOOTH",
"121 605 OFFCURVE",
"126 586 OFFCURVE",
"127 564 CURVE SMOOTH",
"128 531 OFFCURVE",
"128 462 OFFCURVE",
"128 422 CURVE SMOOTH",
"128 277 OFFCURVE",
"125 118 OFFCURVE",
"123 93 CURVE",
"118 54 OFFCURVE",
"104 35 OFFCURVE",
"49 24 CURVE SMOOTH",
"33 21 OFFCURVE",
"25 13 OFFCURVE",
"25 6 CURVE SMOOTH",
"25 -3 OFFCURVE",
"35 -5 OFFCURVE",
"54 -5 CURVE SMOOTH",
"68 -5 OFFCURVE",
"115 0 OFFCURVE",
"183 0 CURVE SMOOTH",
"386 0 OFFCURVE",
"477 -6 OFFCURVE",
"489 -6 CURVE SMOOTH",
"493 -6 OFFCURVE",
"512 0 OFFCURVE",
"513 11 CURVE",
"521 49 OFFCURVE",
"528 70 OFFCURVE",
"544 119 CURVE",
"548 135 OFFCURVE",
"545 146 OFFCURVE",
"540 146 CURVE SMOOTH",
"535 146 OFFCURVE",
"526 142 OFFCURVE",
"515 124 CURVE",
"488 86 OFFCURVE",
"472 71 OFFCURVE",
"458 57 CURVE",
"438 39 OFFCURVE",
"426 39 OFFCURVE",
"418 38 CURVE SMOOTH",
"403 36 OFFCURVE",
"375 35 OFFCURVE",
"347 35 CURVE SMOOTH",
"314 35 OFFCURVE",
"277 36 OFFCURVE",
"251 40 CURVE SMOOTH",
"243 41 OFFCURVE",
"219 64 OFFCURVE",
"217 78 CURVE SMOOTH",
"213 111 OFFCURVE",
"210 207 OFFCURVE",
"210 285 CURVE SMOOTH",
"210 433 OFFCURVE",
"210 534 OFFCURVE",
"216 579 CURVE SMOOTH",
"218 594 OFFCURVE",
"225 605 OFFCURVE",
"283 618 CURVE",
"298 622 OFFCURVE",
"306 628 OFFCURVE",
"306 635 CURVE SMOOTH",
"306 642 OFFCURVE",
"299 646 OFFCURVE",
"281 646 CURVE SMOOTH",
"257 646 OFFCURVE",
"189 643 OFFCURVE",
"150 643 CURVE SMOOTH",
"121 643 OFFCURVE",
"103 645 OFFCURVE",
"76 645 CURVE SMOOTH",
"54 645 OFFCURVE",
"46 640 OFFCURVE",
"46 633 CURVE SMOOTH"
);
},
{
closed = 1;
nodes = (
"270 -51 OFFCURVE",
"241 -60 OFFCURVE",
"241 -92 CURVE SMOOTH",
"241 -120 OFFCURVE",
"271 -126 OFFCURVE",
"283 -130 CURVE",
"300 -135 OFFCURVE",
"309 -142 OFFCURVE",
"309 -162 CURVE SMOOTH",
"309 -192 OFFCURVE",
"275 -218 OFFCURVE",
"251 -228 CURVE SMOOTH",
"244 -231 OFFCURVE",
"239 -234 OFFCURVE",
"239 -243 CURVE SMOOTH",
"239 -248 OFFCURVE",
"245 -251 OFFCURVE",
"253 -251 CURVE SMOOTH",
"273 -251 OFFCURVE",
"360 -223 OFFCURVE",
"360 -138 CURVE SMOOTH",
"360 -80 OFFCURVE",
"324 -51 OFFCURVE",
"287 -51 CURVE SMOOTH"
);
}
);
};
components = (
{
name = L;
},
{
name = commaaccentcomb;
transform = "{1, 0, 0, 1, 85, 0}";
}
);
layerId = "B965DA2D-85AA-48ED-BC60-A8A438260572";
width = 343;
},
{
components = (
{
name = L;
},
{
name = commaaccentcomb;
transform = "{1, 0, 0, 1, 52, 0}";
}
);
layerId = "113A2EC7-7A34-4A41-8395-62473D9E96C5";
width = 298;
}
);
leftKerningGroup = H;
rightKerningGroup = L;
unicode = 013B;
},
{
glyphname = Ldot;
layers = (
{
associatedMasterId = "B965DA2D-85AA-48ED-BC60-A8A438260572";
layerId = "1A97840C-00EB-45FE-8D8D-2E841865655B";
width = 600;
},
{
background = {
paths = (
{
closed = 1;
nodes = (
"46 626 OFFCURVE",
"54 618 OFFCURVE",
"74 614 CURVE SMOOTH",
"121 605 OFFCURVE",
"126 586 OFFCURVE",
"127 564 CURVE SMOOTH",
"128 531 OFFCURVE",
"128 462 OFFCURVE",
"128 422 CURVE SMOOTH",
"128 277 OFFCURVE",
"125 118 OFFCURVE",
"123 93 CURVE",
"118 54 OFFCURVE",
"104 35 OFFCURVE",
"49 24 CURVE SMOOTH",
"33 21 OFFCURVE",
"25 13 OFFCURVE",
"25 6 CURVE SMOOTH",
"25 -3 OFFCURVE",
"35 -5 OFFCURVE",
"54 -5 CURVE SMOOTH",
"68 -5 OFFCURVE",
"115 0 OFFCURVE",
"183 0 CURVE SMOOTH",
"386 0 OFFCURVE",
"477 -6 OFFCURVE",
"489 -6 CURVE SMOOTH",
"493 -6 OFFCURVE",
"512 0 OFFCURVE",
"513 11 CURVE",
"521 49 OFFCURVE",
"528 70 OFFCURVE",
"544 119 CURVE",
"548 135 OFFCURVE",
"545 146 OFFCURVE",
"540 146 CURVE SMOOTH",
"535 146 OFFCURVE",
"526 142 OFFCURVE",
"515 124 CURVE",
"488 86 OFFCURVE",
"472 71 OFFCURVE",
"458 57 CURVE",
"438 39 OFFCURVE",
"426 39 OFFCURVE",
"418 38 CURVE SMOOTH",
"403 36 OFFCURVE",
"375 35 OFFCURVE",
"347 35 CURVE SMOOTH",
"314 35 OFFCURVE",
"277 36 OFFCURVE",
"251 40 CURVE SMOOTH",
"243 41 OFFCURVE",
"219 64 OFFCURVE",
"217 78 CURVE SMOOTH",
"213 111 OFFCURVE",
"210 207 OFFCURVE",
"210 285 CURVE SMOOTH",
"210 433 OFFCURVE",
"210 534 OFFCURVE",
"216 579 CURVE SMOOTH",
"218 594 OFFCURVE",
"225 605 OFFCURVE",
"283 618 CURVE",
"298 622 OFFCURVE",
"306 628 OFFCURVE",
"306 635 CURVE SMOOTH",
"306 642 OFFCURVE",
"299 646 OFFCURVE",
"281 646 CURVE SMOOTH",
"257 646 OFFCURVE",
"189 643 OFFCURVE",
"150 643 CURVE SMOOTH",
"121 643 OFFCURVE",
"103 645 OFFCURVE",
"76 645 CURVE SMOOTH",
"54 645 OFFCURVE",
"46 640 OFFCURVE",
"46 633 CURVE SMOOTH"
);
},
{
closed = 1;
nodes = (
"380 411 OFFCURVE",
"358 385 OFFCURVE",
"358 359 CURVE SMOOTH",
"358 322 OFFCURVE",
"387 306 OFFCURVE",
"408 306 CURVE SMOOTH",
"429 306 OFFCURVE",
"458 325 OFFCURVE",
"458 357 CURVE SMOOTH",
"458 381 OFFCURVE",
"441 411 OFFCURVE",
"410 411 CURVE SMOOTH"
);
}
);
};
components = (
{
name = L;
},
{
name = periodcentered;
transform = "{1, 0, 0, 1, 137, 53}";
}
);
layerId = "B965DA2D-85AA-48ED-BC60-A8A438260572";
width = 353;
},
{
components = (
{
name = L;
},
{
name = periodcentered;
transform = "{1, 0, 0, 1, 114, 58}";
}
);
layerId = "113A2EC7-7A34-4A41-8395-62473D9E96C5";
width = 325;
}
);
leftKerningGroup = H;
rightKerningGroup = L;
unicode = 013F;
},
{
color = 3;
glyphname = Lslash;
layers = (
{
associatedMasterId = "B965DA2D-85AA-48ED-BC60-A8A438260572";
layerId = "1A97840C-00EB-45FE-8D8D-2E841865655B";
width = 600;
},
{
hints = (
{
horizontal = 1;
place = "{0, 0}";
type = Stem;
},
{
horizontal = 1;
place = "{0, 0}";
type = Stem;
},
{
horizontal = 1;
place = "{0, 0}";
type = Stem;
}
);
layerId = "B965DA2D-85AA-48ED-BC60-A8A438260572";
paths = (
{
closed = 1;
nodes = (
"313 0 LINE",
"323 0 OFFCURVE",
"323 10 OFFCURVE",
"323 10 CURVE",
"323 23 LINE",
"94 23 LINE",
"94 700 LINE",
"68 700 OFFCURVE",
"68 700 OFFCURVE",
"68 685 CURVE",
"68 0 LINE"
);
},
{
closed = 1;
nodes = (
"200 402 LINE SMOOTH",
"209 406 OFFCURVE",
"208 408 OFFCURVE",
"200 429 CURVE",
"17 355 LINE SMOOTH",
"8 351 OFFCURVE",
"9 348 OFFCURVE",
"17 328 CURVE"
);
}
);
width = 343;
},
{
hints = (
{
horizontal = 1;
place = "{0, 0}";
type = Stem;
},
{
horizontal = 1;
place = "{0, 0}";
type = Stem;
},
{
horizontal = 1;
place = "{0, 0}";
type = Stem;
}
);
layerId = "113A2EC7-7A34-4A41-8395-62473D9E96C5";
paths = (
{
closed = 1;
nodes = (
"283 0 LINE",
"303 0 OFFCURVE",
"303 20 OFFCURVE",
"303 20 CURVE",
"303 105 LINE",
"162 105 LINE",
"162 700 LINE",
"52 700 OFFCURVE",
"50 700 OFFCURVE",
"50 672 CURVE",
"50 0 LINE"
);
},
{
closed = 1;
nodes = (
"244 339 LINE SMOOTH",
"264 343 OFFCURVE",
"257 373 OFFCURVE",
"243 437 CURVE",
"13 388 LINE SMOOTH",
"-7 383 OFFCURVE",
"-1 353 OFFCURVE",
"13 289 CURVE"
);
}
);
width = 318;
}
);
leftKerningGroup = H;
rightKerningGroup = L;
unicode = 0141;
},
{
color = 3;
glyphname = M;
layers = (
{
associatedMasterId = "B965DA2D-85AA-48ED-BC60-A8A438260572";
layerId = "1A97840C-00EB-45FE-8D8D-2E841865655B";
width = 600;
},
{
hints = (
{
horizontal = 1;
place = "{0, 0}";
type = Stem;
},
{
horizontal = 1;
place = "{0, 0}";
type = Stem;
}
);
layerId = "B965DA2D-85AA-48ED-BC60-A8A438260572";
paths = (
{
closed = 1;
nodes = (
"256 129 LINE",
"260 129 OFFCURVE",
"265 132 OFFCURVE",
"267 139 CURVE SMOOTH",
"330 328 LINE SMOOTH",
"330 328 OFFCURVE",
"425 630 OFFCURVE",
"425 630 CURVE",
"418 690 LINE",
"293 289 LINE",
"293 289 OFFCURVE",
"254 163 OFFCURVE",
"254 163 CURVE",
"254 163 OFFCURVE",
"214 293 OFFCURVE",
"214 293 CURVE SMOOTH",
"89 700 LINE",
"81 637 LINE",
"81 637 OFFCURVE",
"180 328 OFFCURVE",
"180 328 CURVE SMOOTH",
"241 129 LINE"
);
},
{
closed = 1;
nodes = (
"92 0 OFFCURVE",
"92 0 OFFCURVE",
"92 10 CURVE",
"92 352 LINE SMOOTH",
"92 352 OFFCURVE",
"92 631 OFFCURVE",
"92 631 CURVE",
"92 686 LINE",
"89 700 LINE",
"78 700 LINE SMOOTH",
"72 700 OFFCURVE",
"68 697 OFFCURVE",
"68 690 CURVE",
"68 0 LINE"
);
},
{
closed = 1;
nodes = (
"442 0 OFFCURVE",
"442 0 OFFCURVE",
"442 10 CURVE",
"442 700 LINE",
"442 700 OFFCURVE",
"442 700 OFFCURVE",
"428 700 CURVE",
"420 700 OFFCURVE",
"418 690 OFFCURVE",
"418 690 CURVE",
"418 659 LINE",
"418 647 LINE",
"418 647 OFFCURVE",
"418 342 OFFCURVE",
"418 342 CURVE SMOOTH",
"418 0 LINE"
);
}
);
width = 510;
},
{
hints = (
{
horizontal = 1;
place = "{0, 0}";
type = Stem;
},
{
horizontal = 1;
place = "{0, 0}";
type = Stem;
}
);
layerId = "113A2EC7-7A34-4A41-8395-62473D9E96C5";
paths = (
{
closed = 1;
nodes = (
"254 167 LINE",
"258 167 OFFCURVE",
"263 168 OFFCURVE",
"265 174 CURVE SMOOTH",
"313 307 LINE SMOOTH",
"331 358 OFFCURVE",
"385 578 OFFCURVE",
"385 578 CURVE",
"333 680 LINE",
"265 452 LINE",
"247 393 OFFCURVE",
"241 353 OFFCURVE",
"241 353 CURVE",
"241 353 OFFCURVE",
"234 392 OFFCURVE",
"214 454 CURVE SMOOTH",
"135 700 LINE",
"91 580 LINE",
"91 580 OFFCURVE",
"145 355 OFFCURVE",
"161 307 CURVE SMOOTH",
"208 167 LINE"
);
},
{
closed = 1;
nodes = (
"134 0 OFFCURVE",
"141 0 OFFCURVE",
"141 20 CURVE",
"138 191 LINE SMOOTH",
"136 355 OFFCURVE",
"109 489 OFFCURVE",
"109 489 CURVE",
"141 510 LINE",
"135 700 LINE",
"50 700 LINE SMOOTH",
"39 700 OFFCURVE",
"30 700 OFFCURVE",
"30 680 CURVE",
"30 0 LINE"
);
},
{
closed = 1;
nodes = (
"447 0 OFFCURVE",
"447 0 OFFCURVE",
"447 20 CURVE",
"447 700 LINE",
"447 700 OFFCURVE",
"447 700 OFFCURVE",
"353 700 CURVE",
"341 700 OFFCURVE",
"338 695 OFFCURVE",
"333 680 CURVE",
"333 512 LINE",
"366 489 LINE",
"366 489 OFFCURVE",
"341 352 OFFCURVE",
"337 190 CURVE SMOOTH",
"332 0 LINE"
);
}
);
width = 477;
}
);
leftKerningGroup = H;
rightKerningGroup = H;
unicode = 004D;
},
{
color = 3;
glyphname = N;
layers = (
{
associatedMasterId = "B965DA2D-85AA-48ED-BC60-A8A438260572";
layerId = "1A97840C-00EB-45FE-8D8D-2E841865655B";
width = 600;
},
{
anchors = (
{
name = bottom;
position = "{235, 0}";
},
{
name = top;
position = "{235, 700}";
}
);
hints = (
{
horizontal = 1;
place = "{0, 0}";
type = Stem;
},
{
horizontal = 1;
place = "{0, 0}";
type = Stem;
}
);
layerId = "B965DA2D-85AA-48ED-BC60-A8A438260572";
paths = (
{
closed = 1;
nodes = (
"392 0 LINE",
"399 17 LINE",
"384 50 LINE",
"384 50 OFFCURVE",
"218 417 OFFCURVE",
"218 417 CURVE SMOOTH",
"90 700 LINE",
"78 700 LINE",
"71 683 LINE",
"80 664 LINE",
"80 664 OFFCURVE",
"249 288 OFFCURVE",
"249 288 CURVE SMOOTH",
"380 0 LINE"
);
},
{
closed = 1;
nodes = (
"92 0 OFFCURVE",
"92 0 OFFCURVE",
"92 10 CURVE",
"92 257 LINE SMOOTH",
"92 257 OFFCURVE",
"92 669 OFFCURVE",
"92 669 CURVE",
"92 690 LINE",
"78 700 LINE",
"71 700 OFFCURVE",
"68 697 OFFCURVE",
"68 690 CURVE",
"68 0 LINE"
);
},
{
closed = 1;
nodes = (
"398 0 OFFCURVE",
"402 3 OFFCURVE",
"402 10 CURVE",
"402 700 LINE",
"378 700 OFFCURVE",
"378 700 OFFCURVE",
"378 690 CURVE",
"378 450 LINE SMOOTH",
"378 450 OFFCURVE",
"378 37 OFFCURVE",
"378 37 CURVE",
"378 10 LINE",
"392 0 LINE"
);
}
);
width = 470;
},
{
anchors = (
{
name = bottom;
position = "{215, 0}";
},
{
name = top;
position = "{215, 700}";
}
);
hints = (
{
horizontal = 1;
place = "{0, 0}";
type = Stem;
},
{
horizontal = 1;
place = "{0, 0}";
type = Stem;
}
);
layerId = "113A2EC7-7A34-4A41-8395-62473D9E96C5";
paths = (
{
closed = 1;
nodes = (
"380 0 LINE",
"388 65 LINE",
"320 138 LINE",
"320 138 OFFCURVE",
"284 331 OFFCURVE",
"243 437 CURVE SMOOTH",
"139 700 LINE",
"50 700 LINE",
"45 635 LINE",
"111 569 LINE",
"111 569 OFFCURVE",
"150 362 OFFCURVE",
"187 268 CURVE SMOOTH",
"293 0 LINE"
);
},
{
closed = 1;
nodes = (
"141 0 OFFCURVE",
"142 0 OFFCURVE",
"142 20 CURVE",
"142 260 LINE SMOOTH",
"142 329 OFFCURVE",
"135 426 OFFCURVE",
"125 511 CURVE",
"142 680 LINE",
"50 700 LINE",
"36 700 OFFCURVE",
"30 694 OFFCURVE",
"30 680 CURVE",
"30 0 LINE"
);
},
{
closed = 1;
nodes = (
"393 0 OFFCURVE",
"400 8 OFFCURVE",
"400 20 CURVE",
"400 700 LINE",
"290 700 OFFCURVE",
"288 700 OFFCURVE",
"288 680 CURVE",
"288 447 LINE SMOOTH",
"288 375 OFFCURVE",
"292 304 OFFCURVE",
"303 212 CURVE",
"288 20 LINE",
"380 0 LINE"
);
}
);
width = 430;
}
);
leftKerningGroup = H;
rightKerningGroup = H;
unicode = 004E;
},
{
glyphname = Nacute;
layers = (
{
associatedMasterId = "B965DA2D-85AA-48ED-BC60-A8A438260572";
layerId = "1A97840C-00EB-45FE-8D8D-2E841865655B";
width = 600;
},
{
background = {
paths = (
{
closed = 1;
nodes = (
"15 626 OFFCURVE",
"26 621 OFFCURVE",
"37 618 CURVE SMOOTH",
"82 606 OFFCURVE",
"93 605 OFFCURVE",
"121 572 CURVE",
"123 569 OFFCURVE",
"128 560 OFFCURVE",
"128 524 CURVE SMOOTH",
"128 441 OFFCURVE",
"114 201 OFFCURVE",
"109 120 CURVE SMOOTH",
"105 46 OFFCURVE",
"86 42 OFFCURVE",
"39 26 CURVE",
"29 23 OFFCURVE",
"19 17 OFFCURVE",
"19 9 CURVE SMOOTH",
"19 -1 OFFCURVE",
"31 -2 OFFCURVE",
"45 -2 CURVE SMOOTH",
"62 -2 OFFCURVE",
"88 0 OFFCURVE",
"110 0 CURVE SMOOTH",
"146 0 OFFCURVE",
"188 -5 OFFCURVE",
"217 -5 CURVE SMOOTH",
"236 -5 OFFCURVE",
"249 -2 OFFCURVE",
"249 8 CURVE SMOOTH",
"249 14 OFFCURVE",
"245 21 OFFCURVE",
"224 26 CURVE",
"176 40 OFFCURVE",
"165 55 OFFCURVE",
"161 101 CURVE SMOOTH",
"159 132 OFFCURVE",
"162 286 OFFCURVE",
"162 376 CURVE SMOOTH",
"163 454 OFFCURVE",
"166 482 OFFCURVE",
"167 509 CURVE",
"167 514 OFFCURVE",
"174 516 OFFCURVE",
"178 511 CURVE SMOOTH",
"268 403 OFFCURVE",
"441 208 OFFCURVE",
"535 96 CURVE SMOOTH",
"562 63 OFFCURVE",
"580 37 OFFCURVE",
"597 16 CURVE",
"606 4 OFFCURVE",
"628 -16 OFFCURVE",
"642 -16 CURVE SMOOTH",
"651 -16 OFFCURVE",
"656 -5 OFFCURVE",
"656 5 CURVE SMOOTH",
"656 21 OFFCURVE",
"649 96 OFFCURVE",
"649 138 CURVE SMOOTH",
"649 310 OFFCURVE",
"658 507 OFFCURVE",
"660 543 CURVE SMOOTH",
"663 597 OFFCURVE",
"681 606 OFFCURVE",
"724 616 CURVE",
"742 621 OFFCURVE",
"748 630 OFFCURVE",
"748 636 CURVE SMOOTH",
"748 644 OFFCURVE",
"742 647 OFFCURVE",
"725 647 CURVE SMOOTH",
"699 647 OFFCURVE",
"667 643 OFFCURVE",
"631 643 CURVE SMOOTH",
"599 643 OFFCURVE",
"571 644 OFFCURVE",
"545 644 CURVE SMOOTH",
"533 644 OFFCURVE",
"519 642 OFFCURVE",
"519 635 CURVE SMOOTH",
"519 627 OFFCURVE",
"526 619 OFFCURVE",
"546 613 CURVE SMOOTH",
"601 597 OFFCURVE",
"608 573 OFFCURVE",
"609 552 CURVE",
"612 521 OFFCURVE",
"614 486 OFFCURVE",
"614 452 CURVE SMOOTH",
"614 308 OFFCURVE",
"617 200 OFFCURVE",
"612 168 CURVE",
"612 165 OFFCURVE",
"608 155 OFFCURVE",
"602 161 CURVE",
"535 234 OFFCURVE",
"315 474 OFFCURVE",
"270 531 CURVE SMOOTH",
"231 582 OFFCURVE",
"206 612 OFFCURVE",
"191 630 CURVE",
"185 636 OFFCURVE",
"176 643 OFFCURVE",
"170 643 CURVE SMOOTH",
"119 643 OFFCURVE",
"70 646 OFFCURVE",
"48 646 CURVE SMOOTH",
"25 646 OFFCURVE",
"15 642 OFFCURVE",
"15 634 CURVE SMOOTH"
);
},
{
closed = 1;
nodes = (
"407 805 OFFCURVE",
"352 756 OFFCURVE",
"320 726 CURVE SMOOTH",
"304 711 OFFCURVE",
"306 699 OFFCURVE",
"308 699 CURVE",
"318 689 OFFCURVE",
"336 695 OFFCURVE",
"344 699 CURVE",
"391 720 OFFCURVE",
"445 749 OFFCURVE",
"490 779 CURVE",
"501 785 OFFCURVE",
"512 799 OFFCURVE",
"512 807 CURVE SMOOTH",
"512 821 OFFCURVE",
"490 837 OFFCURVE",
"481 843 CURVE",
"475 844 OFFCURVE",
"462 848 OFFCURVE",
"449 837 CURVE"
);
}
);
};
components = (
{
name = N;
},
{
name = acutecomb;
transform = "{1, 0, 0, 1, 110, 200}";
}
);
layerId = "B965DA2D-85AA-48ED-BC60-A8A438260572";
width = 470;
},
{
components = (
{
name = N;
},
{
name = acutecomb;
transform = "{1, 0, 0, 1, 85, 200}";
}
);
layerId = "113A2EC7-7A34-4A41-8395-62473D9E96C5";
width = 430;
}
);
leftKerningGroup = H;
rightKerningGroup = H;
unicode = 0143;
},
{
glyphname = Ncaron;
layers = (
{
associatedMasterId = "B965DA2D-85AA-48ED-BC60-A8A438260572";
layerId = "1A97840C-00EB-45FE-8D8D-2E841865655B";
width = 600;
},
{
background = {
paths = (
{
closed = 1;
nodes = (
"15 626 OFFCURVE",
"26 621 OFFCURVE",
"37 618 CURVE SMOOTH",
"82 606 OFFCURVE",
"93 605 OFFCURVE",
"121 572 CURVE",
"123 569 OFFCURVE",
"128 560 OFFCURVE",
"128 524 CURVE SMOOTH",
"128 441 OFFCURVE",
"114 201 OFFCURVE",
"109 120 CURVE SMOOTH",
"105 46 OFFCURVE",
"86 42 OFFCURVE",
"39 26 CURVE",
"29 23 OFFCURVE",
"19 17 OFFCURVE",
"19 9 CURVE SMOOTH",
"19 -1 OFFCURVE",
"31 -2 OFFCURVE",
"45 -2 CURVE SMOOTH",
"62 -2 OFFCURVE",
"88 0 OFFCURVE",
"110 0 CURVE SMOOTH",
"146 0 OFFCURVE",
"188 -5 OFFCURVE",
"217 -5 CURVE SMOOTH",
"236 -5 OFFCURVE",
"249 -2 OFFCURVE",
"249 8 CURVE SMOOTH",
"249 14 OFFCURVE",
"245 21 OFFCURVE",
"224 26 CURVE",
"176 40 OFFCURVE",
"165 55 OFFCURVE",
"161 101 CURVE SMOOTH",
"159 132 OFFCURVE",
"162 286 OFFCURVE",
"162 376 CURVE SMOOTH",
"163 454 OFFCURVE",
"166 482 OFFCURVE",
"167 509 CURVE",
"167 514 OFFCURVE",
"174 516 OFFCURVE",
"178 511 CURVE SMOOTH",
"268 403 OFFCURVE",
"441 208 OFFCURVE",
"535 96 CURVE SMOOTH",
"562 63 OFFCURVE",
"580 37 OFFCURVE",
"597 16 CURVE",
"606 4 OFFCURVE",
"628 -16 OFFCURVE",
"642 -16 CURVE SMOOTH",
"651 -16 OFFCURVE",
"656 -5 OFFCURVE",
"656 5 CURVE SMOOTH",
"656 21 OFFCURVE",
"649 96 OFFCURVE",
"649 138 CURVE SMOOTH",
"649 310 OFFCURVE",
"658 507 OFFCURVE",
"660 543 CURVE SMOOTH",
"663 597 OFFCURVE",
"681 606 OFFCURVE",
"724 616 CURVE",
"742 621 OFFCURVE",
"748 630 OFFCURVE",
"748 636 CURVE SMOOTH",
"748 644 OFFCURVE",
"742 647 OFFCURVE",
"725 647 CURVE SMOOTH",
"699 647 OFFCURVE",
"667 643 OFFCURVE",
"631 643 CURVE SMOOTH",
"599 643 OFFCURVE",
"571 644 OFFCURVE",
"545 644 CURVE SMOOTH",
"533 644 OFFCURVE",
"519 642 OFFCURVE",
"519 635 CURVE SMOOTH",
"519 627 OFFCURVE",
"526 619 OFFCURVE",
"546 613 CURVE SMOOTH",
"601 597 OFFCURVE",
"608 573 OFFCURVE",
"609 552 CURVE",
"612 521 OFFCURVE",
"614 486 OFFCURVE",
"614 452 CURVE SMOOTH",
"614 308 OFFCURVE",
"617 200 OFFCURVE",
"612 168 CURVE",
"612 165 OFFCURVE",
"608 155 OFFCURVE",
"602 161 CURVE",
"535 234 OFFCURVE",
"315 474 OFFCURVE",
"270 531 CURVE SMOOTH",
"231 582 OFFCURVE",
"206 612 OFFCURVE",
"191 630 CURVE",
"185 636 OFFCURVE",
"176 643 OFFCURVE",
"170 643 CURVE SMOOTH",
"119 643 OFFCURVE",
"70 646 OFFCURVE",
"48 646 CURVE SMOOTH",
"25 646 OFFCURVE",
"15 642 OFFCURVE",
"15 634 CURVE SMOOTH"
);
},
{
closed = 1;
nodes = (
"399 689 OFFCURVE",
"414 698 OFFCURVE",
"429 710 CURVE SMOOTH",
"456 731 OFFCURVE",
"502 769 OFFCURVE",
"526 789 CURVE",
"547 809 OFFCURVE",
"545 819 OFFCURVE",
"526 819 CURVE SMOOTH",
"517 819 OFFCURVE",
"504 811 OFFCURVE",
"496 809 CURVE",
"465 793 OFFCURVE",
"429 776 OFFCURVE",
"402 763 CURVE",
"397 760 OFFCURVE",
"391 759 OFFCURVE",
"384 762 CURVE",
"352 778 OFFCURVE",
"320 795 OFFCURVE",
"286 810 CURVE",
"278 812 OFFCURVE",
"263 820 OFFCURVE",
"256 820 CURVE SMOOTH",
"238 820 OFFCURVE",
"239 801 OFFCURVE",
"255 791 CURVE",
"293 757 OFFCURVE",
"332 726 OFFCURVE",
"347 713 CURVE",
"366 698 OFFCURVE",
"380 689 OFFCURVE",
"389 689 CURVE SMOOTH"
);
}
);
};
components = (
{
name = N;
},
{
name = caron;
transform = "{1, 0, 0, 1, 110, 200}";
}
);
layerId = "B965DA2D-85AA-48ED-BC60-A8A438260572";
width = 470;
},
{
components = (
{
name = N;
},
{
name = caron;
transform = "{1, 0, 0, 1, 75, 200}";
}
);
layerId = "113A2EC7-7A34-4A41-8395-62473D9E96C5";
width = 430;
}
);
leftKerningGroup = H;
rightKerningGroup = H;
unicode = 0147;
},
{
glyphname = Ncommaaccent;
layers = (
{
associatedMasterId = "B965DA2D-85AA-48ED-BC60-A8A438260572";
layerId = "1A97840C-00EB-45FE-8D8D-2E841865655B";
width = 600;
},
{
background = {
paths = (
{
closed = 1;
nodes = (
"15 626 OFFCURVE",
"26 621 OFFCURVE",
"37 618 CURVE SMOOTH",
"82 606 OFFCURVE",
"93 605 OFFCURVE",
"121 572 CURVE",
"123 569 OFFCURVE",
"128 560 OFFCURVE",
"128 524 CURVE SMOOTH",
"128 441 OFFCURVE",
"114 201 OFFCURVE",
"109 120 CURVE SMOOTH",
"105 46 OFFCURVE",
"86 42 OFFCURVE",
"39 26 CURVE",
"29 23 OFFCURVE",
"19 17 OFFCURVE",
"19 9 CURVE SMOOTH",
"19 -1 OFFCURVE",
"31 -2 OFFCURVE",
"45 -2 CURVE SMOOTH",
"62 -2 OFFCURVE",
"88 0 OFFCURVE",
"110 0 CURVE SMOOTH",
"146 0 OFFCURVE",
"188 -5 OFFCURVE",
"217 -5 CURVE SMOOTH",
"236 -5 OFFCURVE",
"249 -2 OFFCURVE",
"249 8 CURVE SMOOTH",
"249 14 OFFCURVE",
"245 21 OFFCURVE",
"224 26 CURVE",
"176 40 OFFCURVE",
"165 55 OFFCURVE",
"161 101 CURVE SMOOTH",
"159 132 OFFCURVE",
"162 286 OFFCURVE",
"162 376 CURVE SMOOTH",
"163 454 OFFCURVE",
"166 482 OFFCURVE",
"167 509 CURVE",
"167 514 OFFCURVE",
"174 516 OFFCURVE",
"178 511 CURVE SMOOTH",
"268 403 OFFCURVE",
"441 208 OFFCURVE",
"535 96 CURVE SMOOTH",
"562 63 OFFCURVE",
"580 37 OFFCURVE",
"597 16 CURVE",
"606 4 OFFCURVE",
"628 -16 OFFCURVE",
"642 -16 CURVE SMOOTH",
"651 -16 OFFCURVE",
"656 -5 OFFCURVE",
"656 5 CURVE SMOOTH",
"656 21 OFFCURVE",
"649 96 OFFCURVE",
"649 138 CURVE SMOOTH",
"649 310 OFFCURVE",
"658 507 OFFCURVE",
"660 543 CURVE SMOOTH",
"663 597 OFFCURVE",
"681 606 OFFCURVE",
"724 616 CURVE",
"742 621 OFFCURVE",
"748 630 OFFCURVE",
"748 636 CURVE SMOOTH",
"748 644 OFFCURVE",
"742 647 OFFCURVE",
"725 647 CURVE SMOOTH",
"699 647 OFFCURVE",
"667 643 OFFCURVE",
"631 643 CURVE SMOOTH",
"599 643 OFFCURVE",
"571 644 OFFCURVE",
"545 644 CURVE SMOOTH",
"533 644 OFFCURVE",
"519 642 OFFCURVE",
"519 635 CURVE SMOOTH",
"519 627 OFFCURVE",
"526 619 OFFCURVE",
"546 613 CURVE SMOOTH",
"601 597 OFFCURVE",
"608 573 OFFCURVE",
"609 552 CURVE",
"612 521 OFFCURVE",
"614 486 OFFCURVE",
"614 452 CURVE SMOOTH",
"614 308 OFFCURVE",
"617 200 OFFCURVE",
"612 168 CURVE",
"612 165 OFFCURVE",
"608 155 OFFCURVE",
"602 161 CURVE",
"535 234 OFFCURVE",
"315 474 OFFCURVE",
"270 531 CURVE SMOOTH",
"231 582 OFFCURVE",
"206 612 OFFCURVE",
"191 630 CURVE",
"185 636 OFFCURVE",
"176 643 OFFCURVE",
"170 643 CURVE SMOOTH",
"119 643 OFFCURVE",
"70 646 OFFCURVE",
"48 646 CURVE SMOOTH",
"25 646 OFFCURVE",
"15 642 OFFCURVE",
"15 634 CURVE SMOOTH"
);
},
{
closed = 1;
nodes = (
"364 -36 OFFCURVE",
"335 -45 OFFCURVE",
"335 -77 CURVE SMOOTH",
"335 -105 OFFCURVE",
"365 -111 OFFCURVE",
"377 -115 CURVE",
"394 -120 OFFCURVE",
"403 -127 OFFCURVE",
"403 -147 CURVE SMOOTH",
"403 -177 OFFCURVE",
"369 -203 OFFCURVE",
"345 -213 CURVE SMOOTH",
"338 -216 OFFCURVE",
"333 -219 OFFCURVE",
"333 -228 CURVE SMOOTH",
"333 -233 OFFCURVE",
"339 -236 OFFCURVE",
"347 -236 CURVE SMOOTH",
"367 -236 OFFCURVE",
"454 -208 OFFCURVE",
"454 -123 CURVE SMOOTH",
"454 -65 OFFCURVE",
"418 -36 OFFCURVE",
"381 -36 CURVE SMOOTH"
);
}
);
};
components = (
{
name = N;
},
{
name = commaaccentcomb;
transform = "{1, 0, 0, 1, 148, 0}";
}
);
layerId = "B965DA2D-85AA-48ED-BC60-A8A438260572";
width = 470;
},
{
components = (
{
name = N;
},
{
name = commaaccentcomb;
transform = "{1, 0, 0, 1, 118, 0}";
}
);
layerId = "113A2EC7-7A34-4A41-8395-62473D9E96C5";
width = 430;
}
);
leftKerningGroup = H;
rightKerningGroup = H;
unicode = 0145;
},
{
color = 3;
glyphname = O;
layers = (
{
associatedMasterId = "B965DA2D-85AA-48ED-BC60-A8A438260572";
layerId = "1A97840C-00EB-45FE-8D8D-2E841865655B";
width = 600;
},
{
anchors = (
{
name = bottom;
position = "{233, 0}";
},
{
name = center;
position = "{233, 350}";
},
{
name = ogonek;
position = "{419, 10}";
},
{
name = top;
position = "{233, 700}";
},
{
name = topleft;
position = "{20, 700}";
},
{
name = topright;
position = "{359, 700}";
}
);
layerId = "B965DA2D-85AA-48ED-BC60-A8A438260572";
paths = (
{
closed = 1;
nodes = (
"362 -10 OFFCURVE",
"418 91 OFFCURVE",
"418 355 CURVE SMOOTH",
"418 615 OFFCURVE",
"370 710 OFFCURVE",
"241 710 CURVE SMOOTH",
"111 710 OFFCURVE",
"48 609 OFFCURVE",
"48 355 CURVE SMOOTH",
"48 80 OFFCURVE",
"103 -10 OFFCURVE",
"230 -10 CURVE SMOOTH"
);
},
{
closed = 1;
nodes = (
"120 14 OFFCURVE",
"72 101 OFFCURVE",
"72 343 CURVE SMOOTH",
"72 596 OFFCURVE",
"128 686 OFFCURVE",
"240 686 CURVE SMOOTH",
"347 686 OFFCURVE",
"394 605 OFFCURVE",
"394 358 CURVE SMOOTH",
"394 104 OFFCURVE",
"344 14 OFFCURVE",
"229 14 CURVE SMOOTH"
);
}
);
width = 466;
},
{
anchors = (
{
name = bottom;
position = "{205, 0}";
},
{
name = center;
position = "{205, 350}";
},
{
name = ogonek;
position = "{368, 10}";
},
{
name = top;
position = "{205, 700}";
},
{
name = topleft;
position = "{20, 700}";
},
{
name = topright;
position = "{334, 700}";
}
);
layerId = "113A2EC7-7A34-4A41-8395-62473D9E96C5";
paths = (
{
closed = 1;
nodes = (
"331 -10 OFFCURVE",
"389 77 OFFCURVE",
"389 358 CURVE SMOOTH",
"389 634 OFFCURVE",
"341 710 OFFCURVE",
"211 710 CURVE SMOOTH",
"82 710 OFFCURVE",
"20 626 OFFCURVE",
"20 354 CURVE SMOOTH",
"20 58 OFFCURVE",
"69 -10 OFFCURVE",
"200 -10 CURVE SMOOTH"
);
},
{
closed = 1;
nodes = (
"155 106 OFFCURVE",
"148 173 OFFCURVE",
"148 329 CURVE SMOOTH",
"148 525 OFFCURVE",
"161 594 OFFCURVE",
"209 594 CURVE SMOOTH",
"261 594 OFFCURVE",
"266 528 OFFCURVE",
"266 354 CURVE SMOOTH",
"266 177 OFFCURVE",
"255 106 OFFCURVE",
"206 106 CURVE SMOOTH"
);
}
);
width = 409;
}
);
leftKerningGroup = O;
rightKerningGroup = O;
unicode = 004F;
},
{
glyphname = Ohungarumlaut;
layers = (
{
associatedMasterId = "B965DA2D-85AA-48ED-BC60-A8A438260572";
layerId = "1A97840C-00EB-45FE-8D8D-2E841865655B";
width = 600;
},
{
background = {
paths = (
{
closed = 1;
nodes = (
"315 661 OFFCURVE",
"229 631 OFFCURVE",
"180 591 CURVE SMOOTH",
"104 530 OFFCURVE",
"50 445 OFFCURVE",
"50 322 CURVE SMOOTH",
"50 236 OFFCURVE",
"80 155 OFFCURVE",
"133 96 CURVE SMOOTH",
"194 26 OFFCURVE",
"291 -18 OFFCURVE",
"393 -18 CURVE SMOOTH",
"444 -18 OFFCURVE",
"527 -4 OFFCURVE",
"590 40 CURVE SMOOTH",
"663 92 OFFCURVE",
"732 190 OFFCURVE",
"732 330 CURVE SMOOTH",
"732 520 OFFCURVE",
"577 661 OFFCURVE",
"385 661 CURVE SMOOTH"
);
},
{
closed = 1;
nodes = (
"409 628 OFFCURVE",
"472 607 OFFCURVE",
"513 574 CURVE SMOOTH",
"587 514 OFFCURVE",
"634 409 OFFCURVE",
"634 300 CURVE SMOOTH",
"634 181 OFFCURVE",
"589 100 OFFCURVE",
"549 64 CURVE",
"538 52 OFFCURVE",
"500 16 OFFCURVE",
"417 16 CURVE SMOOTH",
"257 16 OFFCURVE",
"147 187 OFFCURVE",
"147 336 CURVE SMOOTH",
"147 453 OFFCURVE",
"181 528 OFFCURVE",
"225 571 CURVE SMOOTH",
"260 606 OFFCURVE",
"321 628 OFFCURVE",
"363 628 CURVE SMOOTH"
);
},
{
closed = 1;
nodes = (
"336 744 OFFCURVE",
"368 784 OFFCURVE",
"388 815 CURVE",
"392 823 OFFCURVE",
"393 831 OFFCURVE",
"393 835 CURVE SMOOTH",
"393 846 OFFCURVE",
"373 854 OFFCURVE",
"352 854 CURVE SMOOTH",
"347 854 OFFCURVE",
"336 848 OFFCURVE",
"330 835 CURVE SMOOTH",
"315 805 OFFCURVE",
"293 759 OFFCURVE",
"282 726 CURVE SMOOTH",
"276 709 OFFCURVE",
"276 695 OFFCURVE",
"284 695 CURVE SMOOTH",
"295 695 OFFCURVE",
"310 710 OFFCURVE",
"312 713 CURVE"
);
},
{
closed = 1;
nodes = (
"494 747 OFFCURVE",
"530 795 OFFCURVE",
"547 827 CURVE",
"550 832 OFFCURVE",
"551 840 OFFCURVE",
"551 845 CURVE SMOOTH",
"551 857 OFFCURVE",
"523 866 OFFCURVE",
"509 866 CURVE SMOOTH",
"504 866 OFFCURVE",
"497 861 OFFCURVE",
"489 847 CURVE",
"475 819 OFFCURVE",
"445 755 OFFCURVE",
"437 728 CURVE SMOOTH",
"431 708 OFFCURVE",
"433 699 OFFCURVE",
"439 699 CURVE SMOOTH",
"451 699 OFFCURVE",
"465 713 OFFCURVE",
"468 716 CURVE"
);
}
);
};
components = (
{
name = O;
},
{
name = hungarumlaut;
transform = "{1, 0, 0, 1, 132, 200}";
}
);
layerId = "B965DA2D-85AA-48ED-BC60-A8A438260572";
width = 466;
},
{
components = (
{
name = O;
},
{
name = hungarumlaut;
transform = "{1, 0, 0, 1, 80, 200}";
}
);
layerId = "113A2EC7-7A34-4A41-8395-62473D9E96C5";
width = 409;
}
);
leftKerningGroup = O;
rightKerningGroup = O;
unicode = 0150;
},
{
glyphname = Omacron;
layers = (
{
associatedMasterId = "B965DA2D-85AA-48ED-BC60-A8A438260572";
layerId = "1A97840C-00EB-45FE-8D8D-2E841865655B";
width = 600;
},
{
background = {
paths = (
{
closed = 1;
nodes = (
"315 661 OFFCURVE",
"229 631 OFFCURVE",
"180 591 CURVE SMOOTH",
"104 530 OFFCURVE",
"50 445 OFFCURVE",
"50 322 CURVE SMOOTH",
"50 236 OFFCURVE",
"80 155 OFFCURVE",
"133 96 CURVE SMOOTH",
"194 26 OFFCURVE",
"291 -18 OFFCURVE",
"393 -18 CURVE SMOOTH",
"444 -18 OFFCURVE",
"527 -4 OFFCURVE",
"590 40 CURVE SMOOTH",
"663 92 OFFCURVE",
"732 190 OFFCURVE",
"732 330 CURVE SMOOTH",
"732 520 OFFCURVE",
"577 661 OFFCURVE",
"385 661 CURVE SMOOTH"
);
},
{
closed = 1;
nodes = (
"409 628 OFFCURVE",
"472 607 OFFCURVE",
"513 574 CURVE SMOOTH",
"587 514 OFFCURVE",
"634 409 OFFCURVE",
"634 300 CURVE SMOOTH",
"634 181 OFFCURVE",
"589 100 OFFCURVE",
"549 64 CURVE",
"538 52 OFFCURVE",
"500 16 OFFCURVE",
"417 16 CURVE SMOOTH",
"257 16 OFFCURVE",
"147 187 OFFCURVE",
"147 336 CURVE SMOOTH",
"147 453 OFFCURVE",
"181 528 OFFCURVE",
"225 571 CURVE SMOOTH",
"260 606 OFFCURVE",
"321 628 OFFCURVE",
"363 628 CURVE SMOOTH"
);
},
{
closed = 1;
nodes = (
"273 797 LINE SMOOTH",
"266 797 OFFCURVE",
"256 769 OFFCURVE",
"256 757 CURVE SMOOTH",
"256 747 OFFCURVE",
"259 739 OFFCURVE",
"265 739 CURVE SMOOTH",
"499 741 LINE SMOOTH",
"507 741 OFFCURVE",
"520 758 OFFCURVE",
"520 780 CURVE SMOOTH",
"520 791 OFFCURVE",
"513 804 OFFCURVE",
"509 804 CURVE SMOOTH"
);
}
);
};
components = (
{
name = O;
},
{
name = macron;
transform = "{1, 0, 0, 1, 108, 200}";
}
);
layerId = "B965DA2D-85AA-48ED-BC60-A8A438260572";
width = 466;
},
{
components = (
{
name = O;
},
{
name = macron;
transform = "{1, 0, 0, 1, 65, 200}";
}
);
layerId = "113A2EC7-7A34-4A41-8395-62473D9E96C5";
width = 409;
}
);
leftKerningGroup = O;
rightKerningGroup = O;
unicode = 014C;
},
{
color = 3;
glyphname = Oslash;
layers = (
{
associatedMasterId = "B965DA2D-85AA-48ED-BC60-A8A438260572";
layerId = "1A97840C-00EB-45FE-8D8D-2E841865655B";
width = 600;
},
{
anchors = (
{
name = top;
position = "{233, 700}";
}
);
background = {
paths = (
{
closed = 1;
nodes = (
"364 644 OFFCURVE",
"390 709 OFFCURVE",
"390 709 CURVE",
"388 719 OFFCURVE",
"371 719 OFFCURVE",
"371 719 CURVE",
"371 719 OFFCURVE",
"345 654 OFFCURVE",
"345 654 CURVE",
"347 642 OFFCURVE",
"364 644 OFFCURVE",
"364 644 CURVE"
);
}
);
};
layerId = "B965DA2D-85AA-48ED-BC60-A8A438260572";
paths = (
{
closed = 1;
nodes = (
"109 710 OFFCURVE",
"48 609 OFFCURVE",
"48 355 CURVE SMOOTH",
"48 80 OFFCURVE",
"103 -10 OFFCURVE",
"230 -10 CURVE SMOOTH",
"362 -10 OFFCURVE",
"418 91 OFFCURVE",
"418 355 CURVE SMOOTH",
"418 615 OFFCURVE",
"368 710 OFFCURVE",
"239 710 CURVE SMOOTH"
);
},
{
closed = 1;
nodes = (
"347 686 OFFCURVE",
"394 605 OFFCURVE",
"394 358 CURVE SMOOTH",
"394 104 OFFCURVE",
"344 14 OFFCURVE",
"229 14 CURVE SMOOTH",
"120 14 OFFCURVE",
"72 101 OFFCURVE",
"72 343 CURVE SMOOTH",
"72 596 OFFCURVE",
"128 686 OFFCURVE",
"240 686 CURVE SMOOTH"
);
},
{
closed = 1;
nodes = (
"101 60 OFFCURVE",
"73 -7 OFFCURVE",
"73 -7 CURVE",
"75 -19 OFFCURVE",
"92 -17 OFFCURVE",
"92 -17 CURVE",
"92 -17 OFFCURVE",
"120 50 OFFCURVE",
"120 50 CURVE",
"118 60 OFFCURVE",
"101 60 OFFCURVE",
"101 60 CURVE"
);
},
{
closed = 1;
nodes = (
"106 48 OFFCURVE",
"123 50 OFFCURVE",
"123 50 CURVE",
"123 50 OFFCURVE",
"362 646 OFFCURVE",
"362 646 CURVE",
"360 656 OFFCURVE",
"343 656 OFFCURVE",
"343 656 CURVE",
"104 60 LINE"
);
},
{
closed = 1;
nodes = (
"364 644 OFFCURVE",
"390 709 OFFCURVE",
"390 709 CURVE",
"388 719 OFFCURVE",
"371 719 OFFCURVE",
"371 719 CURVE",
"371 719 OFFCURVE",
"345 654 OFFCURVE",
"345 654 CURVE",
"347 642 OFFCURVE",
"364 644 OFFCURVE",
"364 644 CURVE"
);
}
);
width = 466;
},
{
anchors = (
{
name = top;
position = "{210, 700}";
}
);
layerId = "113A2EC7-7A34-4A41-8395-62473D9E96C5";
paths = (
{
closed = 1;
nodes = (
"84 710 OFFCURVE",
"25 626 OFFCURVE",
"25 354 CURVE SMOOTH",
"25 58 OFFCURVE",
"74 -10 OFFCURVE",
"205 -10 CURVE SMOOTH",
"336 -10 OFFCURVE",
"394 77 OFFCURVE",
"394 358 CURVE SMOOTH",
"394 634 OFFCURVE",
"343 710 OFFCURVE",
"213 710 CURVE SMOOTH"
);
},
{
closed = 1;
nodes = (
"266 595 OFFCURVE",
"271 528 OFFCURVE",
"271 354 CURVE SMOOTH",
"271 123 OFFCURVE",
"239 106 OFFCURVE",
"201 106 CURVE SMOOTH",
"150 106 OFFCURVE",
"153 173 OFFCURVE",
"153 329 CURVE SMOOTH",
"153 525 OFFCURVE",
"166 595 OFFCURVE",
"212 595 CURVE SMOOTH"
);
},
{
closed = 1;
nodes = (
"48 156 OFFCURVE",
"-6 29 OFFCURVE",
"-4 18 CURVE",
"0 -2 OFFCURVE",
"39 -16 OFFCURVE",
"63 -15 CURVE",
"69 -1 OFFCURVE",
"112 100 OFFCURVE",
"109 118 CURVE",
"105 144 OFFCURVE",
"48 156 OFFCURVE",
"48 156 CURVE"
);
},
{
closed = 1;
nodes = (
"103 85 OFFCURVE",
"159 76 OFFCURVE",
"159 76 CURVE",
"159 76 OFFCURVE",
"330 583 OFFCURVE",
"327 601 CURVE",
"322 627 OFFCURVE",
"270 635 OFFCURVE",
"270 635 CURVE",
"99 106 LINE"
);
},
{
closed = 1;
nodes = (
"375 508 OFFCURVE",
"431 668 OFFCURVE",
"428 686 CURVE",
"423 712 OFFCURVE",
"359 719 OFFCURVE",
"359 719 CURVE",
"346 696 OFFCURVE",
"295 550 OFFCURVE",
"295 550 CURVE",
"299 530 OFFCURVE",
"375 508 OFFCURVE",
"375 508 CURVE"
);
}
);
width = 419;
}
);
leftKerningGroup = O;
rightKerningGroup = O;
unicode = 00D8;
},
{
color = 3;
glyphname = OE;
layers = (
{
associatedMasterId = "B965DA2D-85AA-48ED-BC60-A8A438260572";
layerId = "1A97840C-00EB-45FE-8D8D-2E841865655B";
width = 600;
},
{
anchors = (
{
name = top;
position = "{335, 700}";
}
);
layerId = "B965DA2D-85AA-48ED-BC60-A8A438260572";
paths = (
{
closed = 1;
nodes = (
"362 -10 OFFCURVE",
"408 91 OFFCURVE",
"408 355 CURVE SMOOTH",
"408 615 OFFCURVE",
"368 710 OFFCURVE",
"239 710 CURVE SMOOTH",
"109 710 OFFCURVE",
"48 609 OFFCURVE",
"48 355 CURVE SMOOTH",
"48 80 OFFCURVE",
"103 -10 OFFCURVE",
"230 -10 CURVE SMOOTH"
);
},
{
closed = 1;
nodes = (
"120 14 OFFCURVE",
"72 101 OFFCURVE",
"72 343 CURVE SMOOTH",
"72 596 OFFCURVE",
"128 686 OFFCURVE",
"240 686 CURVE SMOOTH",
"347 686 OFFCURVE",
"384 605 OFFCURVE",
"384 358 CURVE SMOOTH",
"384 104 OFFCURVE",
"344 14 OFFCURVE",
"229 14 CURVE SMOOTH"
);
},
{
closed = 1;
nodes = (
"627 0 LINE",
"635 0 OFFCURVE",
"635 3 OFFCURVE",
"635 24 CURVE",
"408 24 LINE",
"408 676 LINE",
"627 676 LINE",
"633 676 OFFCURVE",
"633 680 OFFCURVE",
"633 700 CURVE",
"394 700 LINE",
"384 700 OFFCURVE",
"384 690 OFFCURVE",
"384 690 CURVE",
"384 0 LINE"
);
},
{
closed = 1;
nodes = (
"605 372 LINE",
"613 372 OFFCURVE",
"613 376 OFFCURVE",
"613 396 CURVE",
"400 396 LINE",
"400 372 LINE"
);
}
);
width = 670;
},
{
anchors = (
{
name = top;
position = "{274, 700}";
}
);
layerId = "113A2EC7-7A34-4A41-8395-62473D9E96C5";
paths = (
{
closed = 1;
nodes = (
"326 -8 OFFCURVE",
"384 82 OFFCURVE",
"384 356 CURVE SMOOTH",
"384 627 OFFCURVE",
"333 709 OFFCURVE",
"203 709 CURVE SMOOTH",
"74 709 OFFCURVE",
"15 619 OFFCURVE",
"15 352 CURVE SMOOTH",
"15 63 OFFCURVE",
"64 -8 OFFCURVE",
"195 -8 CURVE SMOOTH"
);
},
{
closed = 1;
nodes = (
"150 101 OFFCURVE",
"143 173 OFFCURVE",
"143 329 CURVE SMOOTH",
"143 525 OFFCURVE",
"156 603 OFFCURVE",
"202 603 CURVE SMOOTH",
"256 603 OFFCURVE",
"261 528 OFFCURVE",
"261 354 CURVE SMOOTH",
"261 177 OFFCURVE",
"250 101 OFFCURVE",
"201 101 CURVE SMOOTH"
);
},
{
closed = 1;
nodes = (
"511 0 LINE",
"531 0 OFFCURVE",
"531 6 OFFCURVE",
"531 100 CURVE",
"390 100 LINE",
"390 600 LINE",
"518 600 LINE",
"538 600 OFFCURVE",
"538 610 OFFCURVE",
"538 700 CURVE",
"318 700 LINE",
"299 700 OFFCURVE",
"298 680 OFFCURVE",
"298 680 CURVE",
"298 0 LINE"
);
},
{
closed = 1;
nodes = (
"492 328 LINE",
"511 328 OFFCURVE",
"511 346 OFFCURVE",
"511 430 CURVE",
"286 430 LINE",
"286 328 LINE"
);
}
);
width = 548;
}
);
leftKerningGroup = O;
rightKerningGroup = E;
unicode = 0152;
},
{
color = 3;
glyphname = P;
layers = (
{
associatedMasterId = "B965DA2D-85AA-48ED-BC60-A8A438260572";
layerId = "1A97840C-00EB-45FE-8D8D-2E841865655B";
width = 600;
},
{
hints = (
{
horizontal = 1;
place = "{0, 0}";
type = Stem;
}
);
layerId = "B965DA2D-85AA-48ED-BC60-A8A438260572";
paths = (
{
closed = 1;
nodes = (
"179 310 LINE SMOOTH",
"290 310 OFFCURVE",
"351 383 OFFCURVE",
"351 518 CURVE SMOOTH",
"351 610 OFFCURVE",
"313 700 OFFCURVE",
"187 700 CURVE SMOOTH",
"81 700 LINE",
"79 700 OFFCURVE",
"80 693 OFFCURVE",
"80 684 CURVE SMOOTH",
"80 321 LINE SMOOTH",
"80 316 OFFCURVE",
"69 310 OFFCURVE",
"86 310 CURVE SMOOTH"
);
},
{
closed = 1;
nodes = (
"92 0 OFFCURVE",
"92 0 OFFCURVE",
"92 10 CURVE",
"92 690 LINE",
"92 690 OFFCURVE",
"92 700 OFFCURVE",
"82 700 CURVE SMOOTH",
"78 700 LINE SMOOTH",
"72 700 OFFCURVE",
"68 697 OFFCURVE",
"68 690 CURVE",
"68 0 LINE"
);
},
{
closed = 1;
nodes = (
"86 676 LINE",
"182 676 LINE",
"295 676 OFFCURVE",
"327 602 OFFCURVE",
"327 518 CURVE SMOOTH",
"327 408 OFFCURVE",
"281 334 OFFCURVE",
"178 334 CURVE",
"86 334 LINE"
);
}
);
width = 381;
},
{
hints = (
{
horizontal = 1;
place = "{0, 0}";
type = Stem;
}
);
layerId = "113A2EC7-7A34-4A41-8395-62473D9E96C5";
paths = (
{
closed = 1;
nodes = (
"149 270 LINE SMOOTH",
"242 270 OFFCURVE",
"339 313 OFFCURVE",
"339 494 CURVE SMOOTH",
"339 658 OFFCURVE",
"270 700 OFFCURVE",
"144 700 CURVE SMOOTH",
"58 700 LINE",
"36 700 OFFCURVE",
"40 680 OFFCURVE",
"40 680 CURVE SMOOTH",
"40 298 LINE SMOOTH",
"40 277 OFFCURVE",
"40 270 OFFCURVE",
"63 270 CURVE SMOOTH"
);
},
{
closed = 1;
nodes = (
"141 0 OFFCURVE",
"142 0 OFFCURVE",
"142 20 CURVE",
"142 680 LINE",
"142 680 OFFCURVE",
"142 700 OFFCURVE",
"122 700 CURVE SMOOTH",
"50 700 LINE SMOOTH",
"33 700 OFFCURVE",
"30 694 OFFCURVE",
"30 680 CURVE",
"30 0 LINE"
);
},
{
closed = 1;
nodes = (
"142 603 LINE",
"169 603 LINE",
"200 603 OFFCURVE",
"213 572 OFFCURVE",
"213 508 CURVE SMOOTH",
"213 396 OFFCURVE",
"193 373 OFFCURVE",
"162 373 CURVE",
"142 373 LINE"
);
}
);
width = 349;
}
);
rightKerningGroup = P;
unicode = 0050;
},
{
color = 3;
glyphname = Thorn;
layers = (
{
associatedMasterId = "B965DA2D-85AA-48ED-BC60-A8A438260572";
layerId = "1A97840C-00EB-45FE-8D8D-2E841865655B";
width = 600;
},
{
hints = (
{
horizontal = 1;
place = "{0, 0}";
type = Stem;
},
{
horizontal = 1;
place = "{0, 0}";
type = Stem;
}
);
layerId = "B965DA2D-85AA-48ED-BC60-A8A438260572";
paths = (
{
closed = 1;
nodes = (
"92 0 OFFCURVE",
"92 0 OFFCURVE",
"92 10 CURVE SMOOTH",
"92 169 LINE",
"179 169 LINE",
"290 169 OFFCURVE",
"351 242 OFFCURVE",
"351 377 CURVE SMOOTH",
"351 469 OFFCURVE",
"313 559 OFFCURVE",
"187 559 CURVE",
"92 559 LINE",
"92 700 LINE",
"85 700 LINE SMOOTH",
"75 700 OFFCURVE",
"68 700 OFFCURVE",
"68 692 CURVE SMOOTH",
"68 0 LINE"
);
},
{
closed = 1;
nodes = (
"149 193 OFFCURVE",
"121 193 OFFCURVE",
"92 193 CURVE",
"92 535 LINE",
"122 535 OFFCURVE",
"152 535 OFFCURVE",
"182 535 CURVE SMOOTH",
"295 535 OFFCURVE",
"327 461 OFFCURVE",
"327 377 CURVE SMOOTH",
"327 267 OFFCURVE",
"281 193 OFFCURVE",
"178 193 CURVE SMOOTH"
);
}
);
width = 381;
},
{
hints = (
{
horizontal = 1;
place = "{0, 0}";
type = Stem;
},
{
horizontal = 1;
place = "{0, 0}";
type = Stem;
}
);
layerId = "113A2EC7-7A34-4A41-8395-62473D9E96C5";
paths = (
{
closed = 1;
nodes = (
"136 0 OFFCURVE",
"142 0 OFFCURVE",
"142 20 CURVE SMOOTH",
"142 140 LINE",
"149 140 LINE SMOOTH",
"242 140 OFFCURVE",
"339 183 OFFCURVE",
"339 364 CURVE SMOOTH",
"339 528 OFFCURVE",
"270 570 OFFCURVE",
"144 570 CURVE SMOOTH",
"142 570 LINE",
"142 700 LINE",
"106 700 LINE SMOOTH",
"43 700 OFFCURVE",
"30 697 OFFCURVE",
"30 673 CURVE SMOOTH",
"30 0 LINE"
);
},
{
closed = 1;
nodes = (
"149 243 OFFCURVE",
"142 247 OFFCURVE",
"142 247 CURVE",
"142 470 LINE",
"148 472 OFFCURVE",
"153 473 OFFCURVE",
"169 473 CURVE SMOOTH",
"200 473 OFFCURVE",
"213 442 OFFCURVE",
"213 378 CURVE SMOOTH",
"213 266 OFFCURVE",
"193 243 OFFCURVE",
"162 243 CURVE SMOOTH"
);
}
);
width = 349;
}
);
unicode = 00DE;
},
{
color = 3;
glyphname = Q;
layers = (
{
associatedMasterId = "B965DA2D-85AA-48ED-BC60-A8A438260572";
layerId = "1A97840C-00EB-45FE-8D8D-2E841865655B";
width = 600;
},
{
components = (
{
name = O;
}
);
layerId = "B965DA2D-85AA-48ED-BC60-A8A438260572";
paths = (
{
closed = 1;
nodes = (
"359 -129 OFFCURVE",
"395 -117 OFFCURVE",
"395 -105 CURVE SMOOTH",
"395 -100 OFFCURVE",
"393 -94 OFFCURVE",
"389 -90 CURVE",
"374 -100 OFFCURVE",
"354 -107 OFFCURVE",
"322 -107 CURVE SMOOTH",
"284 -107 OFFCURVE",
"265 -85 OFFCURVE",
"250 1 CURVE",
"225 1 LINE",
"241 -94 OFFCURVE",
"268 -129 OFFCURVE",
"319 -129 CURVE SMOOTH"
);
}
);
width = 466;
},
{
components = (
{
name = O;
}
);
layerId = "113A2EC7-7A34-4A41-8395-62473D9E96C5";
paths = (
{
closed = 1;
nodes = (
"351 -142 OFFCURVE",
"418 -135 OFFCURVE",
"418 -92 CURVE SMOOTH",
"418 -77 OFFCURVE",
"413 -49 OFFCURVE",
"403 -33 CURVE",
"381 -47 OFFCURVE",
"357 -50 OFFCURVE",
"343 -50 CURVE SMOOTH",
"311 -50 OFFCURVE",
"300 -24 OFFCURVE",
"295 35 CURVE",
"166 5 LINE",
"192 -96 OFFCURVE",
"238 -142 OFFCURVE",
"320 -142 CURVE SMOOTH"
);
}
);
width = 409;
}
);
leftKerningGroup = O;
rightKerningGroup = O;
unicode = 0051;
},
{
color = 3;
glyphname = R;
layers = (
{
associatedMasterId = "B965DA2D-85AA-48ED-BC60-A8A438260572";
layerId = "1A97840C-00EB-45FE-8D8D-2E841865655B";
width = 600;
},
{
anchors = (
{
name = bottom;
position = "{193, 0}";
},
{
name = top;
position = "{173, 700}";
}
);
hints = (
{
horizontal = 1;
place = "{0, 0}";
type = Stem;
}
);
layerId = "B965DA2D-85AA-48ED-BC60-A8A438260572";
paths = (
{
closed = 1;
nodes = (
"179 310 LINE SMOOTH",
"290 310 OFFCURVE",
"351 383 OFFCURVE",
"351 518 CURVE SMOOTH",
"351 610 OFFCURVE",
"313 700 OFFCURVE",
"187 700 CURVE SMOOTH",
"81 700 LINE",
"79 700 OFFCURVE",
"80 693 OFFCURVE",
"80 684 CURVE SMOOTH",
"80 321 LINE SMOOTH",
"80 316 OFFCURVE",
"69 310 OFFCURVE",
"86 310 CURVE SMOOTH"
);
},
{
closed = 1;
nodes = (
"92 0 OFFCURVE",
"92 0 OFFCURVE",
"92 10 CURVE SMOOTH",
"92 690 LINE",
"92 690 OFFCURVE",
"92 700 OFFCURVE",
"82 700 CURVE SMOOTH",
"78 700 LINE SMOOTH",
"68 700 OFFCURVE",
"68 690 OFFCURVE",
"68 690 CURVE",
"68 0 LINE"
);
},
{
closed = 1;
nodes = (
"339 1 OFFCURVE",
"341 3 OFFCURVE",
"340 12 CURVE",
"316 210 OFFCURVE",
"222 325 OFFCURVE",
"222 325 CURVE",
"219 329 OFFCURVE",
"218 330 OFFCURVE",
"212 330 CURVE",
"204 326 LINE SMOOTH",
"196 322 OFFCURVE",
"200 314 OFFCURVE",
"200 314 CURVE",
"200 314 OFFCURVE",
"285 222 OFFCURVE",
"317 0 CURVE",
"323 0 OFFCURVE",
"327 0 OFFCURVE",
"330 0 CURVE SMOOTH"
);
},
{
closed = 1;
nodes = (
"86 676 LINE",
"182 676 LINE",
"295 676 OFFCURVE",
"327 602 OFFCURVE",
"327 518 CURVE SMOOTH",
"327 408 OFFCURVE",
"281 334 OFFCURVE",
"178 334 CURVE",
"86 334 LINE"
);
}
);
width = 385;
},
{
anchors = (
{
name = bottom;
position = "{183, 0}";
},
{
name = top;
position = "{163, 700}";
}
);
hints = (
{
horizontal = 1;
place = "{0, 0}";
type = Stem;
}
);
layerId = "113A2EC7-7A34-4A41-8395-62473D9E96C5";
paths = (
{
closed = 1;
nodes = (
"149 270 LINE SMOOTH",
"242 270 OFFCURVE",
"339 313 OFFCURVE",
"339 494 CURVE SMOOTH",
"339 658 OFFCURVE",
"270 700 OFFCURVE",
"144 700 CURVE SMOOTH",
"58 700 LINE",
"36 700 OFFCURVE",
"40 680 OFFCURVE",
"40 680 CURVE SMOOTH",
"40 298 LINE SMOOTH",
"40 277 OFFCURVE",
"40 270 OFFCURVE",
"63 270 CURVE SMOOTH"
);
},
{
closed = 1;
nodes = (
"140 0 OFFCURVE",
"142 0 OFFCURVE",
"142 20 CURVE SMOOTH",
"142 680 LINE",
"142 680 OFFCURVE",
"142 700 OFFCURVE",
"122 700 CURVE SMOOTH",
"50 700 LINE SMOOTH",
"30 700 OFFCURVE",
"30 680 OFFCURVE",
"30 680 CURVE",
"30 0 LINE"
);
},
{
closed = 1;
nodes = (
"351 -3 OFFCURVE",
"355 3 OFFCURVE",
"355 22 CURVE",
"347 259 OFFCURVE",
"236 341 OFFCURVE",
"236 341 CURVE",
"233 348 OFFCURVE",
"228 352 OFFCURVE",
"215 352 CURVE",
"152 316 LINE SMOOTH",
"134 307 OFFCURVE",
"145 295 OFFCURVE",
"145 295 CURVE",
"145 295 OFFCURVE",
"226 235 OFFCURVE",
"231 0 CURVE",
"256 -2 OFFCURVE",
"279 -3 OFFCURVE",
"297 -3 CURVE SMOOTH"
);
},
{
closed = 1;
nodes = (
"142 603 LINE",
"169 603 LINE",
"200 603 OFFCURVE",
"213 572 OFFCURVE",
"213 500 CURVE SMOOTH",
"213 396 OFFCURVE",
"193 373 OFFCURVE",
"162 373 CURVE",
"142 373 LINE"
);
}
);
width = 365;
}
);
rightKerningGroup = R;
unicode = 0052;
},
{
glyphname = Racute;
layers = (
{
associatedMasterId = "B965DA2D-85AA-48ED-BC60-A8A438260572";
layerId = "1A97840C-00EB-45FE-8D8D-2E841865655B";
width = 600;
},
{
background = {
paths = (
{
closed = 1;
nodes = (
"506 529 OFFCURVE",
"482 579 OFFCURVE",
"449 606 CURVE SMOOTH",
"409 639 OFFCURVE",
"355 648 OFFCURVE",
"286 648 CURVE SMOOTH",
"232 648 OFFCURVE",
"161 643 OFFCURVE",
"124 643 CURVE SMOOTH",
"68 643 LINE SMOOTH",
"46 643 OFFCURVE",
"41 638 OFFCURVE",
"41 631 CURVE SMOOTH",
"41 623 OFFCURVE",
"50 618 OFFCURVE",
"65 614 CURVE SMOOTH",
"110 603 OFFCURVE",
"119 601 OFFCURVE",
"123 564 CURVE SMOOTH",
"127 525 OFFCURVE",
"129 434 OFFCURVE",
"129 280 CURVE SMOOTH",
"129 220 OFFCURVE",
"125 114 OFFCURVE",
"123 83 CURVE SMOOTH",
"120 45 OFFCURVE",
"102 39 OFFCURVE",
"58 25 CURVE",
"45 20 OFFCURVE",
"36 18 OFFCURVE",
"36 10 CURVE SMOOTH",
"36 0 OFFCURVE",
"49 -4 OFFCURVE",
"62 -4 CURVE SMOOTH",
"73 -4 OFFCURVE",
"125 0 OFFCURVE",
"143 0 CURVE SMOOTH",
"211 0 OFFCURVE",
"230 -6 OFFCURVE",
"272 -6 CURVE SMOOTH",
"277 -6 OFFCURVE",
"296 -3 OFFCURVE",
"296 7 CURVE SMOOTH",
"296 12 OFFCURVE",
"289 19 OFFCURVE",
"272 24 CURVE",
"225 35 OFFCURVE",
"214 49 OFFCURVE",
"212 91 CURVE SMOOTH",
"209 149 OFFCURVE",
"207 276 OFFCURVE",
"208 293 CURVE",
"208 296 OFFCURVE",
"213 305 OFFCURVE",
"220 305 CURVE SMOOTH",
"250 305 OFFCURVE",
"287 296 OFFCURVE",
"291 292 CURVE",
"297 288 OFFCURVE",
"317 263 OFFCURVE",
"331 242 CURVE SMOOTH",
"371 179 OFFCURVE",
"422 102 OFFCURVE",
"457 54 CURVE SMOOTH",
"486 17 OFFCURVE",
"543 -11 OFFCURVE",
"590 -11 CURVE SMOOTH",
"611 -11 OFFCURVE",
"633 -9 OFFCURVE",
"645 -4 CURVE",
"651 -1 OFFCURVE",
"659 3 OFFCURVE",
"659 9 CURVE SMOOTH",
"659 13 OFFCURVE",
"651 21 OFFCURVE",
"643 23 CURVE",
"599 32 OFFCURVE",
"572 50 OFFCURVE",
"545 82 CURVE SMOOTH",
"484 150 OFFCURVE",
"400 285 OFFCURVE",
"390 309 CURVE",
"388 313 OFFCURVE",
"391 322 OFFCURVE",
"394 324 CURVE SMOOTH",
"401 329 OFFCURVE",
"420 338 OFFCURVE",
"425 341 CURVE SMOOTH",
"474 371 OFFCURVE",
"506 427 OFFCURVE",
"506 481 CURVE SMOOTH"
);
},
{
closed = 1;
nodes = (
"417 416 OFFCURVE",
"378 372 OFFCURVE",
"351 355 CURVE SMOOTH",
"337 346 OFFCURVE",
"284 329 OFFCURVE",
"226 329 CURVE SMOOTH",
"220 329 OFFCURVE",
"212 336 OFFCURVE",
"210 344 CURVE",
"207 361 OFFCURVE",
"210 554 OFFCURVE",
"213 589 CURVE",
"213 593 OFFCURVE",
"220 608 OFFCURVE",
"225 610 CURVE",
"236 615 OFFCURVE",
"268 617 OFFCURVE",
"273 617 CURVE SMOOTH",
"305 617 OFFCURVE",
"348 602 OFFCURVE",
"372 579 CURVE SMOOTH",
"401 550 OFFCURVE",
"417 503 OFFCURVE",
"417 479 CURVE SMOOTH"
);
},
{
closed = 1;
nodes = (
"317 803 OFFCURVE",
"262 754 OFFCURVE",
"230 724 CURVE SMOOTH",
"214 709 OFFCURVE",
"216 697 OFFCURVE",
"218 697 CURVE",
"228 687 OFFCURVE",
"246 693 OFFCURVE",
"254 697 CURVE",
"301 718 OFFCURVE",
"355 747 OFFCURVE",
"400 777 CURVE",
"411 783 OFFCURVE",
"422 797 OFFCURVE",
"422 805 CURVE SMOOTH",
"422 819 OFFCURVE",
"400 835 OFFCURVE",
"391 841 CURVE",
"385 842 OFFCURVE",
"372 846 OFFCURVE",
"359 835 CURVE"
);
}
);
};
components = (
{
name = R;
},
{
name = acutecomb;
transform = "{1, 0, 0, 1, 48, 200}";
}
);
layerId = "B965DA2D-85AA-48ED-BC60-A8A438260572";
width = 385;
},
{
components = (
{
name = R;
},
{
name = acutecomb;
transform = "{1, 0, 0, 1, 33, 200}";
}
);
layerId = "113A2EC7-7A34-4A41-8395-62473D9E96C5";
width = 365;
}
);
unicode = 0154;
},
{
glyphname = Rcaron;
layers = (
{
associatedMasterId = "B965DA2D-85AA-48ED-BC60-A8A438260572";
layerId = "1A97840C-00EB-45FE-8D8D-2E841865655B";
width = 600;
},
{
background = {
paths = (
{
closed = 1;
nodes = (
"506 529 OFFCURVE",
"482 579 OFFCURVE",
"449 606 CURVE SMOOTH",
"409 639 OFFCURVE",
"355 648 OFFCURVE",
"286 648 CURVE SMOOTH",
"232 648 OFFCURVE",
"161 643 OFFCURVE",
"124 643 CURVE SMOOTH",
"68 643 LINE SMOOTH",
"46 643 OFFCURVE",
"41 638 OFFCURVE",
"41 631 CURVE SMOOTH",
"41 623 OFFCURVE",
"50 618 OFFCURVE",
"65 614 CURVE SMOOTH",
"110 603 OFFCURVE",
"119 601 OFFCURVE",
"123 564 CURVE SMOOTH",
"127 525 OFFCURVE",
"129 434 OFFCURVE",
"129 280 CURVE SMOOTH",
"129 220 OFFCURVE",
"125 114 OFFCURVE",
"123 83 CURVE SMOOTH",
"120 45 OFFCURVE",
"102 39 OFFCURVE",
"58 25 CURVE",
"45 20 OFFCURVE",
"36 18 OFFCURVE",
"36 10 CURVE SMOOTH",
"36 0 OFFCURVE",
"49 -4 OFFCURVE",
"62 -4 CURVE SMOOTH",
"73 -4 OFFCURVE",
"125 0 OFFCURVE",
"143 0 CURVE SMOOTH",
"211 0 OFFCURVE",
"230 -6 OFFCURVE",
"272 -6 CURVE SMOOTH",
"277 -6 OFFCURVE",
"296 -3 OFFCURVE",
"296 7 CURVE SMOOTH",
"296 12 OFFCURVE",
"289 19 OFFCURVE",
"272 24 CURVE",
"225 35 OFFCURVE",
"214 49 OFFCURVE",
"212 91 CURVE SMOOTH",
"209 149 OFFCURVE",
"207 276 OFFCURVE",
"208 293 CURVE",
"208 296 OFFCURVE",
"213 305 OFFCURVE",
"220 305 CURVE SMOOTH",
"250 305 OFFCURVE",
"287 296 OFFCURVE",
"291 292 CURVE",
"297 288 OFFCURVE",
"317 263 OFFCURVE",
"331 242 CURVE SMOOTH",
"371 179 OFFCURVE",
"422 102 OFFCURVE",
"457 54 CURVE SMOOTH",
"486 17 OFFCURVE",
"543 -11 OFFCURVE",
"590 -11 CURVE SMOOTH",
"611 -11 OFFCURVE",
"633 -9 OFFCURVE",
"645 -4 CURVE",
"651 -1 OFFCURVE",
"659 3 OFFCURVE",
"659 9 CURVE SMOOTH",
"659 13 OFFCURVE",
"651 21 OFFCURVE",
"643 23 CURVE",
"599 32 OFFCURVE",
"572 50 OFFCURVE",
"545 82 CURVE SMOOTH",
"484 150 OFFCURVE",
"400 285 OFFCURVE",
"390 309 CURVE",
"388 313 OFFCURVE",
"391 322 OFFCURVE",
"394 324 CURVE SMOOTH",
"401 329 OFFCURVE",
"420 338 OFFCURVE",
"425 341 CURVE SMOOTH",
"474 371 OFFCURVE",
"506 427 OFFCURVE",
"506 481 CURVE SMOOTH"
);
},
{
closed = 1;
nodes = (
"417 416 OFFCURVE",
"378 372 OFFCURVE",
"351 355 CURVE SMOOTH",
"337 346 OFFCURVE",
"284 329 OFFCURVE",
"226 329 CURVE SMOOTH",
"220 329 OFFCURVE",
"212 336 OFFCURVE",
"210 344 CURVE",
"207 361 OFFCURVE",
"210 554 OFFCURVE",
"213 589 CURVE",
"213 593 OFFCURVE",
"220 608 OFFCURVE",
"225 610 CURVE",
"236 615 OFFCURVE",
"268 617 OFFCURVE",
"273 617 CURVE SMOOTH",
"305 617 OFFCURVE",
"348 602 OFFCURVE",
"372 579 CURVE SMOOTH",
"401 550 OFFCURVE",
"417 503 OFFCURVE",
"417 479 CURVE SMOOTH"
);
},
{
closed = 1;
nodes = (
"283 692 OFFCURVE",
"298 701 OFFCURVE",
"313 713 CURVE SMOOTH",
"340 734 OFFCURVE",
"386 772 OFFCURVE",
"410 792 CURVE",
"431 812 OFFCURVE",
"429 822 OFFCURVE",
"410 822 CURVE SMOOTH",
"401 822 OFFCURVE",
"388 814 OFFCURVE",
"380 812 CURVE",
"349 796 OFFCURVE",
"313 779 OFFCURVE",
"286 766 CURVE",
"281 763 OFFCURVE",
"275 762 OFFCURVE",
"268 765 CURVE",
"236 781 OFFCURVE",
"204 798 OFFCURVE",
"170 813 CURVE",
"162 815 OFFCURVE",
"147 823 OFFCURVE",
"140 823 CURVE SMOOTH",
"122 823 OFFCURVE",
"123 804 OFFCURVE",
"139 794 CURVE",
"177 760 OFFCURVE",
"216 729 OFFCURVE",
"231 716 CURVE",
"250 701 OFFCURVE",
"264 692 OFFCURVE",
"273 692 CURVE SMOOTH"
);
}
);
};
components = (
{
name = R;
},
{
name = caron;
transform = "{1, 0, 0, 1, 48, 200}";
}
);
layerId = "B965DA2D-85AA-48ED-BC60-A8A438260572";
width = 385;
},
{
components = (
{
name = R;
},
{
name = caron;
transform = "{1, 0, 0, 1, 23, 200}";
}
);
layerId = "113A2EC7-7A34-4A41-8395-62473D9E96C5";
width = 365;
}
);
unicode = 0158;
},
{
glyphname = Rcommaaccent;
layers = (
{
associatedMasterId = "B965DA2D-85AA-48ED-BC60-A8A438260572";
layerId = "1A97840C-00EB-45FE-8D8D-2E841865655B";
width = 600;
},
{
background = {
paths = (
{
closed = 1;
nodes = (
"506 529 OFFCURVE",
"482 579 OFFCURVE",
"449 606 CURVE SMOOTH",
"409 639 OFFCURVE",
"355 648 OFFCURVE",
"286 648 CURVE SMOOTH",
"232 648 OFFCURVE",
"161 643 OFFCURVE",
"124 643 CURVE SMOOTH",
"68 643 LINE SMOOTH",
"46 643 OFFCURVE",
"41 638 OFFCURVE",
"41 631 CURVE SMOOTH",
"41 623 OFFCURVE",
"50 618 OFFCURVE",
"65 614 CURVE SMOOTH",
"110 603 OFFCURVE",
"119 601 OFFCURVE",
"123 564 CURVE SMOOTH",
"127 525 OFFCURVE",
"129 434 OFFCURVE",
"129 280 CURVE SMOOTH",
"129 220 OFFCURVE",
"125 114 OFFCURVE",
"123 83 CURVE SMOOTH",
"120 45 OFFCURVE",
"102 39 OFFCURVE",
"58 25 CURVE",
"45 20 OFFCURVE",
"36 18 OFFCURVE",
"36 10 CURVE SMOOTH",
"36 0 OFFCURVE",
"49 -4 OFFCURVE",
"62 -4 CURVE SMOOTH",
"73 -4 OFFCURVE",
"125 0 OFFCURVE",
"143 0 CURVE SMOOTH",
"211 0 OFFCURVE",
"230 -6 OFFCURVE",
"272 -6 CURVE SMOOTH",
"277 -6 OFFCURVE",
"296 -3 OFFCURVE",
"296 7 CURVE SMOOTH",
"296 12 OFFCURVE",
"289 19 OFFCURVE",
"272 24 CURVE",
"225 35 OFFCURVE",
"214 49 OFFCURVE",
"212 91 CURVE SMOOTH",
"209 149 OFFCURVE",
"207 276 OFFCURVE",
"208 293 CURVE",
"208 296 OFFCURVE",
"213 305 OFFCURVE",
"220 305 CURVE SMOOTH",
"250 305 OFFCURVE",
"287 296 OFFCURVE",
"291 292 CURVE",
"297 288 OFFCURVE",
"317 263 OFFCURVE",
"331 242 CURVE SMOOTH",
"371 179 OFFCURVE",
"422 102 OFFCURVE",
"457 54 CURVE SMOOTH",
"486 17 OFFCURVE",
"543 -11 OFFCURVE",
"590 -11 CURVE SMOOTH",
"611 -11 OFFCURVE",
"633 -9 OFFCURVE",
"645 -4 CURVE",
"651 -1 OFFCURVE",
"659 3 OFFCURVE",
"659 9 CURVE SMOOTH",
"659 13 OFFCURVE",
"651 21 OFFCURVE",
"643 23 CURVE",
"599 32 OFFCURVE",
"572 50 OFFCURVE",
"545 82 CURVE SMOOTH",
"484 150 OFFCURVE",
"400 285 OFFCURVE",
"390 309 CURVE",
"388 313 OFFCURVE",
"391 322 OFFCURVE",
"394 324 CURVE SMOOTH",
"401 329 OFFCURVE",
"420 338 OFFCURVE",
"425 341 CURVE SMOOTH",
"474 371 OFFCURVE",
"506 427 OFFCURVE",
"506 481 CURVE SMOOTH"
);
},
{
closed = 1;
nodes = (
"417 416 OFFCURVE",
"378 372 OFFCURVE",
"351 355 CURVE SMOOTH",
"337 346 OFFCURVE",
"284 329 OFFCURVE",
"226 329 CURVE SMOOTH",
"220 329 OFFCURVE",
"212 336 OFFCURVE",
"210 344 CURVE",
"207 361 OFFCURVE",
"210 554 OFFCURVE",
"213 589 CURVE",
"213 593 OFFCURVE",
"220 608 OFFCURVE",
"225 610 CURVE",
"236 615 OFFCURVE",
"268 617 OFFCURVE",
"273 617 CURVE SMOOTH",
"305 617 OFFCURVE",
"348 602 OFFCURVE",
"372 579 CURVE SMOOTH",
"401 550 OFFCURVE",
"417 503 OFFCURVE",
"417 479 CURVE SMOOTH"
);
},
{
closed = 1;
nodes = (
"335 -40 OFFCURVE",
"306 -49 OFFCURVE",
"306 -81 CURVE SMOOTH",
"306 -109 OFFCURVE",
"336 -115 OFFCURVE",
"348 -119 CURVE",
"365 -124 OFFCURVE",
"374 -131 OFFCURVE",
"374 -151 CURVE SMOOTH",
"374 -181 OFFCURVE",
"340 -207 OFFCURVE",
"316 -217 CURVE SMOOTH",
"309 -220 OFFCURVE",
"304 -223 OFFCURVE",
"304 -232 CURVE SMOOTH",
"304 -237 OFFCURVE",
"310 -240 OFFCURVE",
"318 -240 CURVE SMOOTH",
"338 -240 OFFCURVE",
"425 -212 OFFCURVE",
"425 -127 CURVE SMOOTH",
"425 -69 OFFCURVE",
"389 -40 OFFCURVE",
"352 -40 CURVE SMOOTH"
);
}
);
};
components = (
{
name = R;
},
{
name = commaaccentcomb;
transform = "{1, 0, 0, 1, 106, 0}";
}
);
layerId = "B965DA2D-85AA-48ED-BC60-A8A438260572";
width = 385;
},
{
components = (
{
name = R;
},
{
name = commaaccentcomb;
transform = "{1, 0, 0, 1, 86, 0}";
}
);
layerId = "113A2EC7-7A34-4A41-8395-62473D9E96C5";
width = 365;
}
);
unicode = 0156;
},
{
color = 3;
glyphname = S;
layers = (
{
associatedMasterId = "B965DA2D-85AA-48ED-BC60-A8A438260572";
layerId = "1A97840C-00EB-45FE-8D8D-2E841865655B";
width = 600;
},
{
anchors = (
{
name = bottom;
position = "{191, 0}";
},
{
name = top;
position = "{192, 700}";
}
);
layerId = "B965DA2D-85AA-48ED-BC60-A8A438260572";
paths = (
{
closed = 1;
nodes = (
"291 -10 OFFCURVE",
"345 61 OFFCURVE",
"345 166 CURVE SMOOTH",
"345 237 OFFCURVE",
"326 284 OFFCURVE",
"266 344 CURVE SMOOTH",
"135 467 LINE SMOOTH",
"99 503 OFFCURVE",
"70 538 OFFCURVE",
"70 585 CURVE SMOOTH",
"70 645 OFFCURVE",
"123 687 OFFCURVE",
"202 687 CURVE SMOOTH",
"263 687 OFFCURVE",
"302 670 OFFCURVE",
"320 655 CURVE SMOOTH",
"325 659 OFFCURVE",
"329 666 OFFCURVE",
"329 672 CURVE SMOOTH",
"329 687 OFFCURVE",
"291 710 OFFCURVE",
"208 710 CURVE SMOOTH",
"107 710 OFFCURVE",
"46 657 OFFCURVE",
"46 584 CURVE SMOOTH",
"46 531 OFFCURVE",
"76 490 OFFCURVE",
"121 445 CURVE SMOOTH",
"238 337 LINE SMOOTH",
"300 275 OFFCURVE",
"321 229 OFFCURVE",
"321 161 CURVE SMOOTH",
"321 75 OFFCURVE",
"278 14 OFFCURVE",
"176 14 CURVE SMOOTH",
"107 14 OFFCURVE",
"75 32 OFFCURVE",
"54 52 CURVE SMOOTH",
"46 49 OFFCURVE",
"42 43 OFFCURVE",
"42 36 CURVE SMOOTH",
"42 22 OFFCURVE",
"81 -10 OFFCURVE",
"174 -10 CURVE SMOOTH"
);
}
);
width = 383;
},
{
anchors = (
{
name = bottom;
position = "{172, 0}";
},
{
name = top;
position = "{172, 700}";
}
);
layerId = "113A2EC7-7A34-4A41-8395-62473D9E96C5";
paths = (
{
closed = 1;
nodes = (
"292 -10 OFFCURVE",
"329 85 OFFCURVE",
"329 185 CURVE SMOOTH",
"329 242 OFFCURVE",
"317 286 OFFCURVE",
"269 348 CURVE SMOOTH",
"173 471 LINE SMOOTH",
"147 507 OFFCURVE",
"137 529 OFFCURVE",
"137 560 CURVE SMOOTH",
"137 595 OFFCURVE",
"167 611 OFFCURVE",
"216 611 CURVE SMOOTH",
"254 611 OFFCURVE",
"292 599 OFFCURVE",
"303 591 CURVE SMOOTH",
"322 612 OFFCURVE",
"329 635 OFFCURVE",
"329 654 CURVE SMOOTH",
"329 689 OFFCURVE",
"294 710 OFFCURVE",
"193 710 CURVE SMOOTH",
"75 710 OFFCURVE",
"15 647 OFFCURVE",
"15 557 CURVE SMOOTH",
"15 513 OFFCURVE",
"25 471 OFFCURVE",
"71 410 CURVE SMOOTH",
"162 288 LINE SMOOTH",
"197 242 OFFCURVE",
"207 216 OFFCURVE",
"207 182 CURVE SMOOTH",
"207 135 OFFCURVE",
"189 105 OFFCURVE",
"134 105 CURVE SMOOTH",
"98 105 OFFCURVE",
"62 119 OFFCURVE",
"41 138 CURVE SMOOTH",
"24 112 OFFCURVE",
"16 79 OFFCURVE",
"16 57 CURVE SMOOTH",
"16 22 OFFCURVE",
"57 -10 OFFCURVE",
"147 -10 CURVE SMOOTH"
);
}
);
width = 344;
}
);
leftKerningGroup = S;
rightKerningGroup = S;
unicode = 0053;
},
{
glyphname = Sacute;
layers = (
{
associatedMasterId = "B965DA2D-85AA-48ED-BC60-A8A438260572";
layerId = "1A97840C-00EB-45FE-8D8D-2E841865655B";
width = 600;
},
{
background = {
paths = (
{
closed = 1;
nodes = (
"204 661 OFFCURVE",
"157 640 OFFCURVE",
"126 612 CURVE SMOOTH",
"92 582 OFFCURVE",
"71 537 OFFCURVE",
"71 490 CURVE SMOOTH",
"71 405 OFFCURVE",
"131 347 OFFCURVE",
"216 292 CURVE SMOOTH",
"321 225 OFFCURVE",
"341 180 OFFCURVE",
"341 138 CURVE SMOOTH",
"341 66 OFFCURVE",
"289 17 OFFCURVE",
"220 17 CURVE SMOOTH",
"182 17 OFFCURVE",
"116 42 OFFCURVE",
"90 97 CURVE SMOOTH",
"76 128 OFFCURVE",
"61 154 OFFCURVE",
"53 154 CURVE SMOOTH",
"49 154 OFFCURVE",
"39 139 OFFCURVE",
"39 135 CURVE SMOOTH",
"39 119 OFFCURVE",
"49 75 OFFCURVE",
"54 41 CURVE",
"54 37 OFFCURVE",
"67 15 OFFCURVE",
"77 9 CURVE",
"108 -6 OFFCURVE",
"176 -17 OFFCURVE",
"208 -17 CURVE SMOOTH",
"253 -17 OFFCURVE",
"312 -2 OFFCURVE",
"344 19 CURVE SMOOTH",
"398 54 OFFCURVE",
"426 110 OFFCURVE",
"426 160 CURVE SMOOTH",
"426 250 OFFCURVE",
"365 302 OFFCURVE",
"288 354 CURVE SMOOTH",
"200 413 OFFCURVE",
"149 444 OFFCURVE",
"149 515 CURVE SMOOTH",
"149 582 OFFCURVE",
"197 632 OFFCURVE",
"264 632 CURVE SMOOTH",
"293 632 OFFCURVE",
"317 623 OFFCURVE",
"335 609 CURVE",
"345 603 OFFCURVE",
"372 573 OFFCURVE",
"384 537 CURVE",
"388 523 OFFCURVE",
"400 516 OFFCURVE",
"408 516 CURVE SMOOTH",
"415 516 OFFCURVE",
"415 526 OFFCURVE",
"415 543 CURVE SMOOTH",
"415 547 OFFCURVE",
"407 605 OFFCURVE",
"405 624 CURVE",
"405 626 OFFCURVE",
"399 641 OFFCURVE",
"393 643 CURVE",
"375 646 OFFCURVE",
"323 661 OFFCURVE",
"274 661 CURVE SMOOTH"
);
},
{
closed = 1;
nodes = (
"288 810 OFFCURVE",
"233 761 OFFCURVE",
"201 731 CURVE SMOOTH",
"185 716 OFFCURVE",
"187 704 OFFCURVE",
"189 704 CURVE",
"199 694 OFFCURVE",
"217 700 OFFCURVE",
"225 704 CURVE",
"272 725 OFFCURVE",
"326 754 OFFCURVE",
"371 784 CURVE",
"382 790 OFFCURVE",
"393 804 OFFCURVE",
"393 812 CURVE SMOOTH",
"393 826 OFFCURVE",
"371 842 OFFCURVE",
"362 848 CURVE",
"356 849 OFFCURVE",
"343 853 OFFCURVE",
"330 842 CURVE"
);
}
);
};
components = (
{
name = S;
},
{
name = acutecomb;
transform = "{1, 0, 0, 1, 67, 200}";
}
);
layerId = "B965DA2D-85AA-48ED-BC60-A8A438260572";
width = 383;
},
{
components = (
{
name = S;
},
{
name = acutecomb;
transform = "{1, 0, 0, 1, 42, 200}";
}
);
layerId = "113A2EC7-7A34-4A41-8395-62473D9E96C5";
width = 344;
}
);
leftKerningGroup = S;
rightKerningGroup = S;
unicode = 015A;
},
{
glyphname = Scommaaccent;
layers = (
{
associatedMasterId = "B965DA2D-85AA-48ED-BC60-A8A438260572";
layerId = "1A97840C-00EB-45FE-8D8D-2E841865655B";
width = 600;
},
{
background = {
paths = (
{
closed = 1;
nodes = (
"204 661 OFFCURVE",
"157 640 OFFCURVE",
"126 612 CURVE SMOOTH",
"92 582 OFFCURVE",
"71 537 OFFCURVE",
"71 490 CURVE SMOOTH",
"71 405 OFFCURVE",
"131 347 OFFCURVE",
"216 292 CURVE SMOOTH",
"321 225 OFFCURVE",
"341 180 OFFCURVE",
"341 138 CURVE SMOOTH",
"341 66 OFFCURVE",
"289 17 OFFCURVE",
"220 17 CURVE SMOOTH",
"182 17 OFFCURVE",
"116 42 OFFCURVE",
"90 97 CURVE SMOOTH",
"76 128 OFFCURVE",
"61 154 OFFCURVE",
"53 154 CURVE SMOOTH",
"49 154 OFFCURVE",
"39 139 OFFCURVE",
"39 135 CURVE SMOOTH",
"39 119 OFFCURVE",
"49 75 OFFCURVE",
"54 41 CURVE",
"54 37 OFFCURVE",
"67 15 OFFCURVE",
"77 9 CURVE",
"108 -6 OFFCURVE",
"176 -17 OFFCURVE",
"208 -17 CURVE SMOOTH",
"253 -17 OFFCURVE",
"312 -2 OFFCURVE",
"344 19 CURVE SMOOTH",
"398 54 OFFCURVE",
"426 110 OFFCURVE",
"426 160 CURVE SMOOTH",
"426 250 OFFCURVE",
"365 302 OFFCURVE",
"288 354 CURVE SMOOTH",
"200 413 OFFCURVE",
"149 444 OFFCURVE",
"149 515 CURVE SMOOTH",
"149 582 OFFCURVE",
"197 632 OFFCURVE",
"264 632 CURVE SMOOTH",
"293 632 OFFCURVE",
"317 623 OFFCURVE",
"335 609 CURVE",
"345 603 OFFCURVE",
"372 573 OFFCURVE",
"384 537 CURVE",
"388 523 OFFCURVE",
"400 516 OFFCURVE",
"408 516 CURVE SMOOTH",
"415 516 OFFCURVE",
"415 526 OFFCURVE",
"415 543 CURVE SMOOTH",
"415 547 OFFCURVE",
"407 605 OFFCURVE",
"405 624 CURVE",
"405 626 OFFCURVE",
"399 641 OFFCURVE",
"393 643 CURVE",
"375 646 OFFCURVE",
"323 661 OFFCURVE",
"274 661 CURVE SMOOTH"
);
},
{
closed = 1;
nodes = (
"197 -61 OFFCURVE",
"168 -70 OFFCURVE",
"168 -102 CURVE SMOOTH",
"168 -130 OFFCURVE",
"198 -136 OFFCURVE",
"210 -140 CURVE",
"227 -145 OFFCURVE",
"236 -152 OFFCURVE",
"236 -172 CURVE SMOOTH",
"236 -202 OFFCURVE",
"202 -228 OFFCURVE",
"178 -238 CURVE SMOOTH",
"171 -241 OFFCURVE",
"166 -244 OFFCURVE",
"166 -253 CURVE SMOOTH",
"166 -258 OFFCURVE",
"172 -261 OFFCURVE",
"180 -261 CURVE SMOOTH",
"200 -261 OFFCURVE",
"287 -233 OFFCURVE",
"287 -148 CURVE SMOOTH",
"287 -90 OFFCURVE",
"251 -61 OFFCURVE",
"214 -61 CURVE SMOOTH"
);
}
);
};
components = (
{
name = S;
},
{
name = commaaccentcomb;
transform = "{1, 0, 0, 1, 104, 0}";
}
);
layerId = "B965DA2D-85AA-48ED-BC60-A8A438260572";
width = 383;
},
{
components = (
{
name = S;
},
{
name = commaaccentcomb;
transform = "{1, 0, 0, 1, 75, 0}";
}
);
layerId = "113A2EC7-7A34-4A41-8395-62473D9E96C5";
width = 344;
}
);
leftKerningGroup = S;
rightKerningGroup = S;
unicode = 0218;
},
{
color = 3;
glyphname = T;
layers = (
{
associatedMasterId = "B965DA2D-85AA-48ED-BC60-A8A438260572";
layerId = "1A97840C-00EB-45FE-8D8D-2E841865655B";
width = 600;
},
{
anchors = (
{
name = bottom;
position = "{177, 0}";
},
{
name = center;
position = "{180, 350}";
},
{
name = top;
position = "{180, 700}";
}
);
hints = (
{
horizontal = 1;
place = "{0, 0}";
type = Stem;
}
);
layerId = "B965DA2D-85AA-48ED-BC60-A8A438260572";
paths = (
{
closed = 1;
nodes = (
"190 0 OFFCURVE",
"190 0 OFFCURVE",
"190 9 CURVE",
"190 683 LINE",
"190 683 OFFCURVE",
"190 693 OFFCURVE",
"180 693 CURVE SMOOTH",
"176 693 LINE SMOOTH",
"166 693 OFFCURVE",
"166 683 OFFCURVE",
"166 683 CURVE",
"166 0 LINE"
);
},
{
closed = 1;
nodes = (
"345 676 LINE",
"353 676 OFFCURVE",
"355 680 OFFCURVE",
"355 686 CURVE",
"355 700 LINE",
"15 700 LINE",
"8 700 OFFCURVE",
"5 697 OFFCURVE",
"5 690 CURVE SMOOTH",
"5 676 LINE"
);
}
);
width = 360;
},
{
anchors = (
{
name = bottom;
position = "{190, 0}";
},
{
name = center;
position = "{190, 350}";
},
{
name = top;
position = "{190, 700}";
}
);
hints = (
{
horizontal = 1;
place = "{0, 0}";
type = Stem;
}
);
layerId = "113A2EC7-7A34-4A41-8395-62473D9E96C5";
paths = (
{
closed = 1;
nodes = (
"242 0 OFFCURVE",
"244 0 OFFCURVE",
"244 20 CURVE",
"244 690 LINE",
"244 690 OFFCURVE",
"244 690 OFFCURVE",
"224 690 CURVE SMOOTH",
"152 690 LINE SMOOTH",
"132 690 OFFCURVE",
"132 690 OFFCURVE",
"132 690 CURVE",
"132 0 LINE"
);
},
{
closed = 1;
nodes = (
"350 595 LINE",
"364 595 OFFCURVE",
"370 599 OFFCURVE",
"370 615 CURVE",
"370 700 LINE",
"30 700 LINE",
"16 700 OFFCURVE",
"10 694 OFFCURVE",
"10 680 CURVE SMOOTH",
"10 595 LINE"
);
}
);
width = 380;
}
);
leftKerningGroup = T;
rightKerningGroup = T;
unicode = 0054;
},
{
glyphname = Tcaron;
layers = (
{
associatedMasterId = "B965DA2D-85AA-48ED-BC60-A8A438260572";
layerId = "1A97840C-00EB-45FE-8D8D-2E841865655B";
width = 600;
},
{
background = {
paths = (
{
closed = 1;
nodes = (
"213 643 OFFCURVE",
"133 646 OFFCURVE",
"107 649 CURVE",
"92 650 OFFCURVE",
"76 665 OFFCURVE",
"73 668 CURVE",
"62 677 OFFCURVE",
"62 684 OFFCURVE",
"57 684 CURVE SMOOTH",
"51 684 OFFCURVE",
"42 674 OFFCURVE",
"42 668 CURVE SMOOTH",
"42 609 OFFCURVE",
"23 554 OFFCURVE",
"23 535 CURVE SMOOTH",
"23 525 OFFCURVE",
"27 512 OFFCURVE",
"33 512 CURVE SMOOTH",
"37 512 OFFCURVE",
"43 511 OFFCURVE",
"52 532 CURVE",
"69 565 OFFCURVE",
"81 581 OFFCURVE",
"85 584 CURVE",
"100 601 OFFCURVE",
"121 607 OFFCURVE",
"159 607 CURVE SMOOTH",
"175 607 OFFCURVE",
"263 605 OFFCURVE",
"283 602 CURVE",
"286 602 OFFCURVE",
"291 597 OFFCURVE",
"291 589 CURVE SMOOTH",
"291 470 LINE SMOOTH",
"291 393 OFFCURVE",
"286 189 OFFCURVE",
"284 130 CURVE SMOOTH",
"281 55 OFFCURVE",
"279 38 OFFCURVE",
"209 22 CURVE SMOOTH",
"200 20 OFFCURVE",
"190 12 OFFCURVE",
"190 5 CURVE SMOOTH",
"190 -1 OFFCURVE",
"200 -7 OFFCURVE",
"220 -7 CURVE SMOOTH",
"233 -7 OFFCURVE",
"284 0 OFFCURVE",
"334 0 CURVE SMOOTH",
"378 0 OFFCURVE",
"440 -5 OFFCURVE",
"448 -5 CURVE SMOOTH",
"458 -5 OFFCURVE",
"476 -4 OFFCURVE",
"476 7 CURVE SMOOTH",
"476 14 OFFCURVE",
"462 22 OFFCURVE",
"449 25 CURVE SMOOTH",
"387 39 OFFCURVE",
"382 51 OFFCURVE",
"377 96 CURVE SMOOTH",
"373 133 OFFCURVE",
"373 228 OFFCURVE",
"373 344 CURVE SMOOTH",
"373 589 LINE SMOOTH",
"373 591 OFFCURVE",
"377 601 OFFCURVE",
"382 602 CURVE",
"394 605 OFFCURVE",
"505 605 OFFCURVE",
"522 604 CURVE SMOOTH",
"584 601 OFFCURVE",
"597 596 OFFCURVE",
"603 544 CURVE SMOOTH",
"606 519 OFFCURVE",
"610 512 OFFCURVE",
"617 512 CURVE SMOOTH",
"625 512 OFFCURVE",
"633 522 OFFCURVE",
"634 531 CURVE SMOOTH",
"640 583 OFFCURVE",
"646 615 OFFCURVE",
"656 646 CURVE SMOOTH",
"661 660 OFFCURVE",
"657 669 OFFCURVE",
"652 669 CURVE SMOOTH",
"648 669 OFFCURVE",
"645 667 OFFCURVE",
"638 663 CURVE",
"624 653 OFFCURVE",
"606 647 OFFCURVE",
"570 645 CURVE SMOOTH",
"529 644 OFFCURVE",
"393 643 OFFCURVE",
"341 643 CURVE SMOOTH"
);
},
{
closed = 1;
nodes = (
"344 689 OFFCURVE",
"359 698 OFFCURVE",
"374 710 CURVE SMOOTH",
"401 731 OFFCURVE",
"447 769 OFFCURVE",
"471 789 CURVE",
"492 809 OFFCURVE",
"490 819 OFFCURVE",
"471 819 CURVE SMOOTH",
"462 819 OFFCURVE",
"449 811 OFFCURVE",
"441 809 CURVE",
"410 793 OFFCURVE",
"374 776 OFFCURVE",
"347 763 CURVE",
"342 760 OFFCURVE",
"336 759 OFFCURVE",
"329 762 CURVE",
"297 778 OFFCURVE",
"265 795 OFFCURVE",
"231 810 CURVE",
"223 812 OFFCURVE",
"208 820 OFFCURVE",
"201 820 CURVE SMOOTH",
"183 820 OFFCURVE",
"184 801 OFFCURVE",
"200 791 CURVE",
"238 757 OFFCURVE",
"277 726 OFFCURVE",
"292 713 CURVE",
"311 698 OFFCURVE",
"325 689 OFFCURVE",
"334 689 CURVE SMOOTH"
);
}
);
};
components = (
{
name = T;
},
{
name = caron;
transform = "{1, 0, 0, 1, 55, 200}";
}
);
layerId = "B965DA2D-85AA-48ED-BC60-A8A438260572";
width = 360;
},
{
components = (
{
name = T;
},
{
name = caron;
transform = "{1, 0, 0, 1, 50, 200}";
}
);
layerId = "113A2EC7-7A34-4A41-8395-62473D9E96C5";
width = 380;
}
);
leftKerningGroup = T;
rightKerningGroup = T;
unicode = 0164;
},
{
glyphname = Tcommaaccent;
layers = (
{
associatedMasterId = "B965DA2D-85AA-48ED-BC60-A8A438260572";
layerId = "1A97840C-00EB-45FE-8D8D-2E841865655B";
width = 600;
},
{
background = {
paths = (
{
closed = 1;
nodes = (
"213 643 OFFCURVE",
"133 646 OFFCURVE",
"107 649 CURVE",
"92 650 OFFCURVE",
"76 665 OFFCURVE",
"73 668 CURVE",
"62 677 OFFCURVE",
"62 684 OFFCURVE",
"57 684 CURVE SMOOTH",
"51 684 OFFCURVE",
"42 674 OFFCURVE",
"42 668 CURVE SMOOTH",
"42 609 OFFCURVE",
"23 554 OFFCURVE",
"23 535 CURVE SMOOTH",
"23 525 OFFCURVE",
"27 512 OFFCURVE",
"33 512 CURVE SMOOTH",
"37 512 OFFCURVE",
"43 511 OFFCURVE",
"52 532 CURVE",
"69 565 OFFCURVE",
"81 581 OFFCURVE",
"85 584 CURVE",
"100 601 OFFCURVE",
"121 607 OFFCURVE",
"159 607 CURVE SMOOTH",
"175 607 OFFCURVE",
"263 605 OFFCURVE",
"283 602 CURVE",
"286 602 OFFCURVE",
"291 597 OFFCURVE",
"291 589 CURVE SMOOTH",
"291 470 LINE SMOOTH",
"291 393 OFFCURVE",
"286 189 OFFCURVE",
"284 130 CURVE SMOOTH",
"281 55 OFFCURVE",
"279 38 OFFCURVE",
"209 22 CURVE SMOOTH",
"200 20 OFFCURVE",
"190 12 OFFCURVE",
"190 5 CURVE SMOOTH",
"190 -1 OFFCURVE",
"200 -7 OFFCURVE",
"220 -7 CURVE SMOOTH",
"233 -7 OFFCURVE",
"284 0 OFFCURVE",
"334 0 CURVE SMOOTH",
"378 0 OFFCURVE",
"440 -5 OFFCURVE",
"448 -5 CURVE SMOOTH",
"458 -5 OFFCURVE",
"476 -4 OFFCURVE",
"476 7 CURVE SMOOTH",
"476 14 OFFCURVE",
"462 22 OFFCURVE",
"449 25 CURVE SMOOTH",
"387 39 OFFCURVE",
"382 51 OFFCURVE",
"377 96 CURVE SMOOTH",
"373 133 OFFCURVE",
"373 228 OFFCURVE",
"373 344 CURVE SMOOTH",
"373 589 LINE SMOOTH",
"373 591 OFFCURVE",
"377 601 OFFCURVE",
"382 602 CURVE",
"394 605 OFFCURVE",
"505 605 OFFCURVE",
"522 604 CURVE SMOOTH",
"584 601 OFFCURVE",
"597 596 OFFCURVE",
"603 544 CURVE SMOOTH",
"606 519 OFFCURVE",
"610 512 OFFCURVE",
"617 512 CURVE SMOOTH",
"625 512 OFFCURVE",
"633 522 OFFCURVE",
"634 531 CURVE SMOOTH",
"640 583 OFFCURVE",
"646 615 OFFCURVE",
"656 646 CURVE SMOOTH",
"661 660 OFFCURVE",
"657 669 OFFCURVE",
"652 669 CURVE SMOOTH",
"648 669 OFFCURVE",
"645 667 OFFCURVE",
"638 663 CURVE",
"624 653 OFFCURVE",
"606 647 OFFCURVE",
"570 645 CURVE SMOOTH",
"529 644 OFFCURVE",
"393 643 OFFCURVE",
"341 643 CURVE SMOOTH"
);
},
{
closed = 1;
nodes = (
"304 -47 OFFCURVE",
"275 -56 OFFCURVE",
"275 -88 CURVE SMOOTH",
"275 -116 OFFCURVE",
"305 -122 OFFCURVE",
"317 -126 CURVE",
"334 -131 OFFCURVE",
"343 -138 OFFCURVE",
"343 -158 CURVE SMOOTH",
"343 -188 OFFCURVE",
"309 -214 OFFCURVE",
"285 -224 CURVE SMOOTH",
"278 -227 OFFCURVE",
"273 -230 OFFCURVE",
"273 -239 CURVE SMOOTH",
"273 -244 OFFCURVE",
"279 -247 OFFCURVE",
"287 -247 CURVE SMOOTH",
"307 -247 OFFCURVE",
"394 -219 OFFCURVE",
"394 -134 CURVE SMOOTH",
"394 -76 OFFCURVE",
"358 -47 OFFCURVE",
"321 -47 CURVE SMOOTH"
);
}
);
};
components = (
{
name = T;
},
{
name = commaaccentcomb;
transform = "{1, 0, 0, 1, 90, 0}";
}
);
layerId = "B965DA2D-85AA-48ED-BC60-A8A438260572";
width = 360;
},
{
components = (
{
name = T;
},
{
name = commaaccentcomb;
transform = "{1, 0, 0, 1, 93, 0}";
}
);
layerId = "113A2EC7-7A34-4A41-8395-62473D9E96C5";
width = 380;
}
);
leftKerningGroup = T;
rightKerningGroup = T;
unicode = 021A;
},
{
color = 3;
glyphname = U;
layers = (
{
associatedMasterId = "B965DA2D-85AA-48ED-BC60-A8A438260572";
layerId = "1A97840C-00EB-45FE-8D8D-2E841865655B";
width = 600;
},
{
anchors = (
{
name = bottom;
position = "{242, 0}";
},
{
name = ogonek;
position = "{406, 10}";
},
{
name = top;
position = "{242, 700}";
},
{
name = topright;
position = "{454, 700}";
}
);
hints = (
{
horizontal = 1;
place = "{0, 0}";
type = Stem;
}
);
layerId = "B965DA2D-85AA-48ED-BC60-A8A438260572";
paths = (
{
closed = 1;
nodes = (
"317 -10 OFFCURVE",
"389 6 OFFCURVE",
"416 23 CURVE",
"416 700 LINE",
"395 700 OFFCURVE",
"392 700 OFFCURVE",
"392 691 CURVE",
"392 41 LINE",
"368 29 OFFCURVE",
"307 14 OFFCURVE",
"250 14 CURVE SMOOTH",
"106 14 OFFCURVE",
"92 117 OFFCURVE",
"92 227 CURVE SMOOTH",
"92 700 LINE",
"68 700 OFFCURVE",
"68 700 OFFCURVE",
"68 690 CURVE",
"68 227 LINE SMOOTH",
"68 102 OFFCURVE",
"83 -10 OFFCURVE",
"250 -10 CURVE SMOOTH"
);
}
);
width = 484;
},
{
anchors = (
{
name = bottom;
position = "{206, 0}";
},
{
name = ogonek;
position = "{370, 10}";
},
{
name = top;
position = "{206, 700}";
},
{
name = topright;
position = "{376, 700}";
}
);
hints = (
{
horizontal = 1;
place = "{0, 0}";
type = Stem;
}
);
layerId = "113A2EC7-7A34-4A41-8395-62473D9E96C5";
paths = (
{
closed = 1;
nodes = (
"294 -10 OFFCURVE",
"357 12 OFFCURVE",
"381 28 CURVE",
"381 700 LINE",
"267 700 OFFCURVE",
"267 700 OFFCURVE",
"267 679 CURVE",
"267 105 LINE",
"254 98 OFFCURVE",
"232 93 OFFCURVE",
"209 93 CURVE SMOOTH",
"157 93 OFFCURVE",
"146 123 OFFCURVE",
"146 188 CURVE SMOOTH",
"146 700 LINE",
"30 700 OFFCURVE",
"30 700 OFFCURVE",
"30 679 CURVE",
"30 192 LINE SMOOTH",
"30 81 OFFCURVE",
"52 -10 OFFCURVE",
"209 -10 CURVE SMOOTH"
);
}
);
width = 411;
}
);
leftKerningGroup = U;
rightKerningGroup = H;
unicode = 0055;
},
{
glyphname = Uhungarumlaut;
layers = (
{
associatedMasterId = "B965DA2D-85AA-48ED-BC60-A8A438260572";
layerId = "1A97840C-00EB-45FE-8D8D-2E841865655B";
width = 600;
},
{
background = {
paths = (
{
closed = 1;
nodes = (
"37 625 OFFCURVE",
"48 620 OFFCURVE",
"60 617 CURVE",
"98 609 OFFCURVE",
"112 593 OFFCURVE",
"114 574 CURVE SMOOTH",
"115 561 OFFCURVE",
"118 481 OFFCURVE",
"118 337 CURVE SMOOTH",
"118 169 OFFCURVE",
"142 96 OFFCURVE",
"198 43 CURVE SMOOTH",
"222 21 OFFCURVE",
"289 -16 OFFCURVE",
"379 -16 CURVE SMOOTH",
"423 -16 OFFCURVE",
"477 -10 OFFCURVE",
"523 16 CURVE SMOOTH",
"595 56 OFFCURVE",
"643 144 OFFCURVE",
"648 318 CURVE SMOOTH",
"650 370 OFFCURVE",
"656 481 OFFCURVE",
"657 524 CURVE SMOOTH",
"659 587 OFFCURVE",
"679 604 OFFCURVE",
"722 616 CURVE",
"736 621 OFFCURVE",
"744 628 OFFCURVE",
"744 634 CURVE SMOOTH",
"744 642 OFFCURVE",
"735 645 OFFCURVE",
"719 645 CURVE SMOOTH",
"691 645 OFFCURVE",
"670 643 OFFCURVE",
"629 643 CURVE SMOOTH",
"597 643 OFFCURVE",
"569 646 OFFCURVE",
"544 646 CURVE SMOOTH",
"527 646 OFFCURVE",
"521 642 OFFCURVE",
"521 636 CURVE SMOOTH",
"521 629 OFFCURVE",
"532 620 OFFCURVE",
"542 618 CURVE SMOOTH",
"598 605 OFFCURVE",
"605 591 OFFCURVE",
"608 553 CURVE SMOOTH",
"609 541 OFFCURVE",
"612 489 OFFCURVE",
"612 424 CURVE SMOOTH",
"612 310 OFFCURVE",
"602 226 OFFCURVE",
"590 173 CURVE SMOOTH",
"565 63 OFFCURVE",
"468 33 OFFCURVE",
"403 33 CURVE SMOOTH",
"351 33 OFFCURVE",
"286 57 OFFCURVE",
"258 88 CURVE SMOOTH",
"227 123 OFFCURVE",
"202 166 OFFCURVE",
"202 279 CURVE SMOOTH",
"202 421 OFFCURVE",
"201 525 OFFCURVE",
"206 558 CURVE SMOOTH",
"212 598 OFFCURVE",
"231 608 OFFCURVE",
"267 615 CURVE SMOOTH",
"286 619 OFFCURVE",
"297 626 OFFCURVE",
"297 634 CURVE SMOOTH",
"297 642 OFFCURVE",
"285 645 OFFCURVE",
"266 645 CURVE SMOOTH",
"244 645 OFFCURVE",
"206 643 OFFCURVE",
"169 643 CURVE SMOOTH",
"132 643 OFFCURVE",
"108 646 OFFCURVE",
"66 646 CURVE SMOOTH",
"50 646 OFFCURVE",
"37 642 OFFCURVE",
"37 634 CURVE SMOOTH"
);
},
{
closed = 1;
nodes = (
"347 737 OFFCURVE",
"379 777 OFFCURVE",
"399 808 CURVE",
"403 816 OFFCURVE",
"404 824 OFFCURVE",
"404 828 CURVE SMOOTH",
"404 839 OFFCURVE",
"384 847 OFFCURVE",
"363 847 CURVE SMOOTH",
"358 847 OFFCURVE",
"347 841 OFFCURVE",
"341 828 CURVE SMOOTH",
"326 798 OFFCURVE",
"304 752 OFFCURVE",
"293 719 CURVE SMOOTH",
"287 702 OFFCURVE",
"287 688 OFFCURVE",
"295 688 CURVE SMOOTH",
"306 688 OFFCURVE",
"321 703 OFFCURVE",
"323 706 CURVE"
);
},
{
closed = 1;
nodes = (
"505 740 OFFCURVE",
"541 788 OFFCURVE",
"558 820 CURVE",
"561 825 OFFCURVE",
"562 833 OFFCURVE",
"562 838 CURVE SMOOTH",
"562 850 OFFCURVE",
"534 859 OFFCURVE",
"520 859 CURVE SMOOTH",
"515 859 OFFCURVE",
"508 854 OFFCURVE",
"500 840 CURVE",
"486 812 OFFCURVE",
"456 748 OFFCURVE",
"448 721 CURVE SMOOTH",
"442 701 OFFCURVE",
"444 692 OFFCURVE",
"450 692 CURVE SMOOTH",
"462 692 OFFCURVE",
"476 706 OFFCURVE",
"479 709 CURVE"
);
}
);
};
components = (
{
name = U;
},
{
name = hungarumlaut;
transform = "{1, 0, 0, 1, 141, 200}";
}
);
layerId = "B965DA2D-85AA-48ED-BC60-A8A438260572";
width = 484;
},
{
components = (
{
name = U;
},
{
name = hungarumlaut;
transform = "{1, 0, 0, 1, 81, 200}";
}
);
layerId = "113A2EC7-7A34-4A41-8395-62473D9E96C5";
width = 411;
}
);
leftKerningGroup = U;
rightKerningGroup = H;
unicode = 0170;
},
{
glyphname = Umacron;
layers = (
{
associatedMasterId = "B965DA2D-85AA-48ED-BC60-A8A438260572";
layerId = "1A97840C-00EB-45FE-8D8D-2E841865655B";
width = 600;
},
{
background = {
paths = (
{
closed = 1;
nodes = (
"37 625 OFFCURVE",
"48 620 OFFCURVE",
"60 617 CURVE",
"98 609 OFFCURVE",
"112 593 OFFCURVE",
"114 574 CURVE SMOOTH",
"115 561 OFFCURVE",
"118 481 OFFCURVE",
"118 337 CURVE SMOOTH",
"118 169 OFFCURVE",
"142 96 OFFCURVE",
"198 43 CURVE SMOOTH",
"222 21 OFFCURVE",
"289 -16 OFFCURVE",
"379 -16 CURVE SMOOTH",
"423 -16 OFFCURVE",
"477 -10 OFFCURVE",
"523 16 CURVE SMOOTH",
"595 56 OFFCURVE",
"643 144 OFFCURVE",
"648 318 CURVE SMOOTH",
"650 370 OFFCURVE",
"656 481 OFFCURVE",
"657 524 CURVE SMOOTH",
"659 587 OFFCURVE",
"679 604 OFFCURVE",
"722 616 CURVE",
"736 621 OFFCURVE",
"744 628 OFFCURVE",
"744 634 CURVE SMOOTH",
"744 642 OFFCURVE",
"735 645 OFFCURVE",
"719 645 CURVE SMOOTH",
"691 645 OFFCURVE",
"670 643 OFFCURVE",
"629 643 CURVE SMOOTH",
"597 643 OFFCURVE",
"569 646 OFFCURVE",
"544 646 CURVE SMOOTH",
"527 646 OFFCURVE",
"521 642 OFFCURVE",
"521 636 CURVE SMOOTH",
"521 629 OFFCURVE",
"532 620 OFFCURVE",
"542 618 CURVE SMOOTH",
"598 605 OFFCURVE",
"605 591 OFFCURVE",
"608 553 CURVE SMOOTH",
"609 541 OFFCURVE",
"612 489 OFFCURVE",
"612 424 CURVE SMOOTH",
"612 310 OFFCURVE",
"602 226 OFFCURVE",
"590 173 CURVE SMOOTH",
"565 63 OFFCURVE",
"468 33 OFFCURVE",
"403 33 CURVE SMOOTH",
"351 33 OFFCURVE",
"286 57 OFFCURVE",
"258 88 CURVE SMOOTH",
"227 123 OFFCURVE",
"202 166 OFFCURVE",
"202 279 CURVE SMOOTH",
"202 421 OFFCURVE",
"201 525 OFFCURVE",
"206 558 CURVE SMOOTH",
"212 598 OFFCURVE",
"231 608 OFFCURVE",
"267 615 CURVE SMOOTH",
"286 619 OFFCURVE",
"297 626 OFFCURVE",
"297 634 CURVE SMOOTH",
"297 642 OFFCURVE",
"285 645 OFFCURVE",
"266 645 CURVE SMOOTH",
"244 645 OFFCURVE",
"206 643 OFFCURVE",
"169 643 CURVE SMOOTH",
"132 643 OFFCURVE",
"108 646 OFFCURVE",
"66 646 CURVE SMOOTH",
"50 646 OFFCURVE",
"37 642 OFFCURVE",
"37 634 CURVE SMOOTH"
);
},
{
closed = 1;
nodes = (
"288 787 LINE SMOOTH",
"281 787 OFFCURVE",
"271 759 OFFCURVE",
"271 747 CURVE SMOOTH",
"271 737 OFFCURVE",
"274 729 OFFCURVE",
"280 729 CURVE SMOOTH",
"514 731 LINE SMOOTH",
"522 731 OFFCURVE",
"535 748 OFFCURVE",
"535 770 CURVE SMOOTH",
"535 781 OFFCURVE",
"528 794 OFFCURVE",
"524 794 CURVE SMOOTH"
);
}
);
};
components = (
{
name = U;
},
{
name = macron;
transform = "{1, 0, 0, 1, 117, 200}";
}
);
layerId = "B965DA2D-85AA-48ED-BC60-A8A438260572";
width = 484;
},
{
components = (
{
name = U;
},
{
name = macron;
transform = "{1, 0, 0, 1, 66, 200}";
}
);
layerId = "113A2EC7-7A34-4A41-8395-62473D9E96C5";
width = 411;
}
);
leftKerningGroup = U;
rightKerningGroup = H;
unicode = 016A;
},
{
glyphname = Uogonek;
layers = (
{
associatedMasterId = "B965DA2D-85AA-48ED-BC60-A8A438260572";
layerId = "1A97840C-00EB-45FE-8D8D-2E841865655B";
width = 600;
},
{
background = {
paths = (
{
closed = 1;
nodes = (
"37 625 OFFCURVE",
"48 620 OFFCURVE",
"60 617 CURVE",
"98 609 OFFCURVE",
"112 593 OFFCURVE",
"114 574 CURVE SMOOTH",
"115 561 OFFCURVE",
"118 485 OFFCURVE",
"118 337 CURVE SMOOTH",
"118 169 OFFCURVE",
"142 96 OFFCURVE",
"198 43 CURVE SMOOTH",
"222 21 OFFCURVE",
"289 -16 OFFCURVE",
"379 -16 CURVE SMOOTH",
"400 -16 OFFCURVE",
"424 -14 OFFCURVE",
"449 -10 CURVE",
"373 -63 OFFCURVE",
"319 -120 OFFCURVE",
"319 -173 CURVE SMOOTH",
"319 -223 OFFCURVE",
"349 -263 OFFCURVE",
"409 -263 CURVE SMOOTH",
"478 -263 OFFCURVE",
"514 -213 OFFCURVE",
"514 -188 CURVE SMOOTH",
"514 -181 OFFCURVE",
"508 -177 OFFCURVE",
"504 -180 CURVE SMOOTH",
"489 -191 OFFCURVE",
"471 -203 OFFCURVE",
"441 -203 CURVE SMOOTH",
"414 -203 OFFCURVE",
"392 -183 OFFCURVE",
"392 -151 CURVE SMOOTH",
"392 -121 OFFCURVE",
"420 -63 OFFCURVE",
"480 -14 CURVE SMOOTH",
"493 -4 OFFCURVE",
"508 7 OFFCURVE",
"523 16 CURVE SMOOTH",
"629 75 OFFCURVE",
"650 205 OFFCURVE",
"657 524 CURVE SMOOTH",
"659 587 OFFCURVE",
"680 604 OFFCURVE",
"722 616 CURVE",
"736 621 OFFCURVE",
"744 628 OFFCURVE",
"744 634 CURVE SMOOTH",
"744 642 OFFCURVE",
"735 645 OFFCURVE",
"719 645 CURVE SMOOTH",
"691 645 OFFCURVE",
"670 643 OFFCURVE",
"629 643 CURVE SMOOTH",
"597 643 OFFCURVE",
"569 646 OFFCURVE",
"544 646 CURVE SMOOTH",
"527 646 OFFCURVE",
"521 642 OFFCURVE",
"521 636 CURVE SMOOTH",
"521 629 OFFCURVE",
"532 620 OFFCURVE",
"542 618 CURVE SMOOTH",
"620 600 OFFCURVE",
"609 589 OFFCURVE",
"612 467 CURVE SMOOTH",
"612 419 LINE SMOOTH",
"611 309 OFFCURVE",
"602 226 OFFCURVE",
"590 174 CURVE SMOOTH",
"565 63 OFFCURVE",
"468 33 OFFCURVE",
"403 33 CURVE SMOOTH",
"350 33 OFFCURVE",
"291 55 OFFCURVE",
"258 88 CURVE",
"227 123 OFFCURVE",
"202 166 OFFCURVE",
"202 279 CURVE SMOOTH",
"202 582 OFFCURVE",
"191 601 OFFCURVE",
"267 615 CURVE SMOOTH",
"286 619 OFFCURVE",
"297 626 OFFCURVE",
"297 634 CURVE SMOOTH",
"297 642 OFFCURVE",
"285 645 OFFCURVE",
"266 645 CURVE SMOOTH",
"250 645 OFFCURVE",
"227 645 OFFCURVE",
"202 644 CURVE",
"192 644 OFFCURVE",
"179 643 OFFCURVE",
"167 643 CURVE SMOOTH",
"131 643 OFFCURVE",
"107 646 OFFCURVE",
"66 646 CURVE SMOOTH",
"50 646 OFFCURVE",
"37 642 OFFCURVE",
"37 634 CURVE SMOOTH"
);
},
{
closed = 0;
nodes = (
"386 11 LINE",
"347 -15 OFFCURVE",
"301 -63 OFFCURVE",
"301 -118 CURVE SMOOTH",
"301 -168 OFFCURVE",
"327 -195 OFFCURVE",
"371 -195 CURVE SMOOTH",
"391 -195 OFFCURVE",
"412 -190 OFFCURVE",
"412 -178 CURVE SMOOTH",
"412 -172 OFFCURVE",
"409 -167 OFFCURVE",
"406 -162 CURVE",
"398 -167 OFFCURVE",
"388 -172 OFFCURVE",
"372 -172 CURVE SMOOTH",
"338 -172 OFFCURVE",
"325 -152 OFFCURVE",
"325 -117 CURVE SMOOTH",
"325 -70 OFFCURVE",
"365 -26 OFFCURVE",
"408 0 CURVE SMOOTH",
"413 3 OFFCURVE",
"415 5 OFFCURVE",
"413 11 CURVE SMOOTH"
);
},
{
closed = 0;
nodes = (
"250 -10 LINE",
"288 -10 OFFCURVE",
"324 -5 OFFCURVE",
"355 2 CURVE"
);
}
);
};
guideLines = (
{
angle = 90;
position = "{416, 19}";
}
);
layerId = "B965DA2D-85AA-48ED-BC60-A8A438260572";
paths = (
{
closed = 1;
nodes = (
"393 -195 OFFCURVE",
"412 -189 OFFCURVE",
"412 -178 CURVE SMOOTH",
"412 -172 OFFCURVE",
"409 -167 OFFCURVE",
"406 -162 CURVE",
"396 -168 OFFCURVE",
"386 -172 OFFCURVE",
"372 -172 CURVE SMOOTH",
"339 -172 OFFCURVE",
"325 -153 OFFCURVE",
"325 -118 CURVE SMOOTH",
"325 -71 OFFCURVE",
"371 -4 OFFCURVE",
"416 23 CURVE",
"416 700 LINE",
"395 700 OFFCURVE",
"392 700 OFFCURVE",
"392 691 CURVE SMOOTH",
"392 40 LINE",
"368 28 OFFCURVE",
"307 14 OFFCURVE",
"250 14 CURVE SMOOTH",
"106 14 OFFCURVE",
"92 117 OFFCURVE",
"92 227 CURVE SMOOTH",
"92 700 LINE",
"68 700 OFFCURVE",
"68 700 OFFCURVE",
"68 690 CURVE SMOOTH",
"68 227 LINE SMOOTH",
"68 102 OFFCURVE",
"83 -10 OFFCURVE",
"250 -10 CURVE SMOOTH",
"287.651 -10 OFFCURVE",
"329 -5 OFFCURVE",
"359 3 CURVE",
"330 -29 OFFCURVE",
"301 -80 OFFCURVE",
"301 -118 CURVE SMOOTH",
"301 -168 OFFCURVE",
"327 -195 OFFCURVE",
"371 -195 CURVE SMOOTH"
);
}
);
width = 484;
},
{
background = {
paths = (
{
closed = 0;
nodes = (
"264 1 LINE",
"237 -24 OFFCURVE",
"216 -63 OFFCURVE",
"216 -106 CURVE SMOOTH",
"216 -176 OFFCURVE",
"257 -195 OFFCURVE",
"305 -195 CURVE SMOOTH",
"346 -195 OFFCURVE",
"376 -184 OFFCURVE",
"376 -154 CURVE SMOOTH",
"376 -144 OFFCURVE",
"372 -125 OFFCURVE",
"365 -110 CURVE",
"358 -115 OFFCURVE",
"350 -117 OFFCURVE",
"340 -117 CURVE SMOOTH",
"322 -117 OFFCURVE",
"315 -108 OFFCURVE",
"315 -90 CURVE SMOOTH",
"315 -57 OFFCURVE",
"348 -16 OFFCURVE",
"374 4 CURVE SMOOTH",
"379 8 OFFCURVE",
"380 12 OFFCURVE",
"379 18 CURVE SMOOTH"
);
}
);
};
layerId = "113A2EC7-7A34-4A41-8395-62473D9E96C5";
paths = (
{
closed = 1;
nodes = (
"346 -195 OFFCURVE",
"376 -184 OFFCURVE",
"376 -154 CURVE SMOOTH",
"376 -144 OFFCURVE",
"372 -125 OFFCURVE",
"365 -110 CURVE",
"358 -115 OFFCURVE",
"350 -117 OFFCURVE",
"340 -117 CURVE SMOOTH",
"322 -117 OFFCURVE",
"315 -108 OFFCURVE",
"315 -90 CURVE SMOOTH",
"315 -57 OFFCURVE",
"343 -7 OFFCURVE",
"381 28 CURVE",
"381 700 LINE",
"267 700 OFFCURVE",
"267 700 OFFCURVE",
"267 679 CURVE SMOOTH",
"267 105 LINE",
"254 98 OFFCURVE",
"232 93 OFFCURVE",
"209 93 CURVE SMOOTH",
"157 93 OFFCURVE",
"146 123 OFFCURVE",
"146 188 CURVE SMOOTH",
"146 700 LINE",
"30 700 OFFCURVE",
"30 700 OFFCURVE",
"30 679 CURVE SMOOTH",
"30 192 LINE SMOOTH",
"30 81 OFFCURVE",
"52 -10 OFFCURVE",
"209 -10 CURVE SMOOTH",
"223.722 -10 OFFCURVE",
"237.783 -9 OFFCURVE",
"251.096 -8 CURVE",
"230.468 -38 OFFCURVE",
"216 -73 OFFCURVE",
"216 -106 CURVE SMOOTH",
"216 -176 OFFCURVE",
"257 -195 OFFCURVE",
"305 -195 CURVE SMOOTH"
);
}
);
width = 411;
}
);
leftKerningGroup = U;
rightKerningGroup = H;
unicode = 0172;
},
{
glyphname = Uring;
layers = (
{
associatedMasterId = "B965DA2D-85AA-48ED-BC60-A8A438260572";
layerId = "1A97840C-00EB-45FE-8D8D-2E841865655B";
width = 600;
},
{
background = {
paths = (
{
closed = 1;
nodes = (
"37 625 OFFCURVE",
"48 620 OFFCURVE",
"60 617 CURVE",
"98 609 OFFCURVE",
"112 593 OFFCURVE",
"114 574 CURVE SMOOTH",
"115 561 OFFCURVE",
"118 481 OFFCURVE",
"118 337 CURVE SMOOTH",
"118 169 OFFCURVE",
"142 96 OFFCURVE",
"198 43 CURVE SMOOTH",
"222 21 OFFCURVE",
"289 -16 OFFCURVE",
"379 -16 CURVE SMOOTH",
"423 -16 OFFCURVE",
"477 -10 OFFCURVE",
"523 16 CURVE SMOOTH",
"595 56 OFFCURVE",
"643 144 OFFCURVE",
"648 318 CURVE SMOOTH",
"650 370 OFFCURVE",
"656 481 OFFCURVE",
"657 524 CURVE SMOOTH",
"659 587 OFFCURVE",
"679 604 OFFCURVE",
"722 616 CURVE",
"736 621 OFFCURVE",
"744 628 OFFCURVE",
"744 634 CURVE SMOOTH",
"744 642 OFFCURVE",
"735 645 OFFCURVE",
"719 645 CURVE SMOOTH",
"691 645 OFFCURVE",
"670 643 OFFCURVE",
"629 643 CURVE SMOOTH",
"597 643 OFFCURVE",
"569 646 OFFCURVE",
"544 646 CURVE SMOOTH",
"527 646 OFFCURVE",
"521 642 OFFCURVE",
"521 636 CURVE SMOOTH",
"521 629 OFFCURVE",
"532 620 OFFCURVE",
"542 618 CURVE SMOOTH",
"598 605 OFFCURVE",
"605 591 OFFCURVE",
"608 553 CURVE SMOOTH",
"609 541 OFFCURVE",
"612 489 OFFCURVE",
"612 424 CURVE SMOOTH",
"612 310 OFFCURVE",
"602 226 OFFCURVE",
"590 173 CURVE SMOOTH",
"565 63 OFFCURVE",
"468 33 OFFCURVE",
"403 33 CURVE SMOOTH",
"351 33 OFFCURVE",
"286 57 OFFCURVE",
"258 88 CURVE SMOOTH",
"227 123 OFFCURVE",
"202 166 OFFCURVE",
"202 279 CURVE SMOOTH",
"202 421 OFFCURVE",
"201 525 OFFCURVE",
"206 558 CURVE SMOOTH",
"212 598 OFFCURVE",
"231 608 OFFCURVE",
"267 615 CURVE SMOOTH",
"286 619 OFFCURVE",
"297 626 OFFCURVE",
"297 634 CURVE SMOOTH",
"297 642 OFFCURVE",
"285 645 OFFCURVE",
"266 645 CURVE SMOOTH",
"244 645 OFFCURVE",
"206 643 OFFCURVE",
"169 643 CURVE SMOOTH",
"132 643 OFFCURVE",
"108 646 OFFCURVE",
"66 646 CURVE SMOOTH",
"50 646 OFFCURVE",
"37 642 OFFCURVE",
"37 634 CURVE SMOOTH"
);
},
{
closed = 1;
nodes = (
"350 853 OFFCURVE",
"317 813 OFFCURVE",
"317 768 CURVE SMOOTH",
"317 723 OFFCURVE",
"350 683 OFFCURVE",
"402 683 CURVE SMOOTH",
"454 683 OFFCURVE",
"487 723 OFFCURVE",
"487 768 CURVE SMOOTH",
"487 813 OFFCURVE",
"454 853 OFFCURVE",
"402 853 CURVE SMOOTH"
);
},
{
closed = 1;
nodes = (
"428 822 OFFCURVE",
"448 799 OFFCURVE",
"448 770 CURVE SMOOTH",
"448 732 OFFCURVE",
"428 714 OFFCURVE",
"402 714 CURVE SMOOTH",
"377 714 OFFCURVE",
"356 733 OFFCURVE",
"356 768 CURVE SMOOTH",
"356 799 OFFCURVE",
"376 822 OFFCURVE",
"402 822 CURVE SMOOTH"
);
}
);
};
components = (
{
name = U;
},
{
name = ring;
transform = "{1, 0, 0, 1, 117, 200}";
}
);
layerId = "B965DA2D-85AA-48ED-BC60-A8A438260572";
width = 484;
},
{
components = (
{
name = U;
},
{
name = ring;
transform = "{1, 0, 0, 1, 66, 200}";
}
);
layerId = "113A2EC7-7A34-4A41-8395-62473D9E96C5";
width = 411;
}
);
leftKerningGroup = U;
rightKerningGroup = H;
unicode = 016E;
},
{
color = 3;
glyphname = V;
layers = (
{
associatedMasterId = "B965DA2D-85AA-48ED-BC60-A8A438260572";
layerId = "1A97840C-00EB-45FE-8D8D-2E841865655B";
width = 600;
},
{
hints = (
{
horizontal = 1;
place = "{0, 0}";
type = Stem;
},
{
horizontal = 1;
place = "{0, 0}";
type = Stem;
}
);
layerId = "B965DA2D-85AA-48ED-BC60-A8A438260572";
paths = (
{
closed = 1;
nodes = (
"219 -10 OFFCURVE",
"224 -9 OFFCURVE",
"224 -9 CURVE",
"417 700 LINE",
"400 700 LINE SMOOTH",
"393 700 OFFCURVE",
"392 694 OFFCURVE",
"390 686 CURVE SMOOTH",
"258 201 LINE",
"239 131 OFFCURVE",
"228 86 OFFCURVE",
"216 27 CURVE",
"203 86 OFFCURVE",
"192 130 OFFCURVE",
"171 201 CURVE",
"27 700 LINE",
"11 700 LINE SMOOTH",
"3 700 OFFCURVE",
"4 694 OFFCURVE",
"7 686 CURVE",
"7 686 OFFCURVE",
"142 218 OFFCURVE",
"190 48 CURVE SMOOTH",
"200 12 OFFCURVE",
"206 -10 OFFCURVE",
"211 -10 CURVE SMOOTH"
);
}
);
width = 421;
},
{
hints = (
{
horizontal = 1;
place = "{0, 0}";
type = Stem;
},
{
horizontal = 1;
place = "{0, 0}";
type = Stem;
}
);
layerId = "113A2EC7-7A34-4A41-8395-62473D9E96C5";
paths = (
{
closed = 1;
nodes = (
"228 -6 OFFCURVE",
"249 -4 OFFCURVE",
"283 0 CURVE",
"415 700 LINE",
"316 700 LINE SMOOTH",
"296 700 OFFCURVE",
"292 691 OFFCURVE",
"289 670 CURVE SMOOTH",
"246 374 LINE",
"231 275 OFFCURVE",
"219 158 OFFCURVE",
"213 92 CURVE",
"205 158 OFFCURVE",
"191 275 OFFCURVE",
"176 374 CURVE",
"126 700 LINE",
"32 700 LINE SMOOTH",
"3 700 OFFCURVE",
"3 693 OFFCURVE",
"7 671 CURVE",
"7 671 OFFCURVE",
"87 212 OFFCURVE",
"122 53 CURVE SMOOTH",
"129 20 OFFCURVE",
"147 -6 OFFCURVE",
"185 -6 CURVE SMOOTH"
);
}
);
width = 420;
}
);
leftKerningGroup = V;
rightKerningGroup = V;
unicode = 0056;
},
{
color = 3;
glyphname = W;
layers = (
{
associatedMasterId = "B965DA2D-85AA-48ED-BC60-A8A438260572";
layerId = "1A97840C-00EB-45FE-8D8D-2E841865655B";
width = 600;
},
{
anchors = (
{
name = top;
position = "{315, 700}";
}
);
hints = (
{
horizontal = 1;
place = "{0, 0}";
type = Stem;
},
{
horizontal = 1;
place = "{0, 0}";
type = Stem;
}
);
layerId = "B965DA2D-85AA-48ED-BC60-A8A438260572";
paths = (
{
closed = 1;
nodes = (
"469 -11 OFFCURVE",
"473 -9 OFFCURVE",
"473 -9 CURVE",
"626 700 LINE",
"609 700 LINE SMOOTH",
"602 700 OFFCURVE",
"601 694 OFFCURVE",
"599 686 CURVE SMOOTH",
"495 200 LINE SMOOTH",
"482 140 OFFCURVE",
"475 86 OFFCURVE",
"467 43 CURVE",
"465 43 LINE",
"454 102 OFFCURVE",
"451 127 OFFCURVE",
"434 200 CURVE SMOOTH",
"327 660 LINE",
"310 660 LINE SMOOTH",
"302 660 OFFCURVE",
"303 654 OFFCURVE",
"306 646 CURVE SMOOTH",
"312 625 LINE",
"312 625 OFFCURVE",
"342 474 OFFCURVE",
"342 474 CURVE",
"446 34 LINE SMOOTH",
"452 8 OFFCURVE",
"457 -11 OFFCURVE",
"460 -11 CURVE SMOOTH"
);
},
{
closed = 1;
nodes = (
"177 -10 OFFCURVE",
"183 -9 OFFCURVE",
"183 -9 CURVE",
"288 476 LINE",
"288 476 OFFCURVE",
"316 625 OFFCURVE",
"316 625 CURVE",
"323 646 LINE SMOOTH",
"325 653 OFFCURVE",
"327 660 OFFCURVE",
"318 660 CURVE SMOOTH",
"309 660 LINE SMOOTH",
"302 660 OFFCURVE",
"301 654 OFFCURVE",
"299 646 CURVE SMOOTH",
"204 200 LINE SMOOTH",
"192 143 OFFCURVE",
"183 99 OFFCURVE",
"176 41 CURVE",
"174 41 LINE",
"163 100 OFFCURVE",
"158 128 OFFCURVE",
"142 200 CURVE SMOOTH",
"27 700 LINE",
"10 700 LINE SMOOTH",
"3 700 OFFCURVE",
"5 691 OFFCURVE",
"6 686 CURVE",
"6 686 OFFCURVE",
"114 224 OFFCURVE",
"152 50 CURVE SMOOTH",
"160 12 OFFCURVE",
"165 -10 OFFCURVE",
"169 -10 CURVE SMOOTH"
);
}
);
width = 629;
},
{
anchors = (
{
name = top;
position = "{334, 700}";
}
);
hints = (
{
horizontal = 1;
place = "{0, 0}";
type = Stem;
},
{
horizontal = 1;
place = "{0, 0}";
type = Stem;
}
);
layerId = "113A2EC7-7A34-4A41-8395-62473D9E96C5";
paths = (
{
closed = 1;
nodes = (
"489 -6 OFFCURVE",
"499 -5 OFFCURVE",
"544 0 CURVE",
"663 700 LINE",
"566 700 LINE SMOOTH",
"546 700 OFFCURVE",
"542 691 OFFCURVE",
"539 670 CURVE SMOOTH",
"497 374 LINE SMOOTH",
"485 290 OFFCURVE",
"476 187 OFFCURVE",
"473 114 CURVE",
"465 114 LINE",
"460 180 OFFCURVE",
"453 275 OFFCURVE",
"436 374 CURVE SMOOTH",
"385 670 LINE",
"312 670 LINE SMOOTH",
"292 670 OFFCURVE",
"283 663 OFFCURVE",
"287 641 CURVE SMOOTH",
"322 534 LINE",
"322 534 OFFCURVE",
"339 292 OFFCURVE",
"364 165 CURVE",
"386 57 LINE SMOOTH",
"394 17 OFFCURVE",
"411 -6 OFFCURVE",
"446 -6 CURVE SMOOTH"
);
},
{
closed = 1;
nodes = (
"214 -5 OFFCURVE",
"234 -4 OFFCURVE",
"273 0 CURVE",
"300 165 LINE",
"321 292 OFFCURVE",
"341 532 OFFCURVE",
"341 532 CURVE",
"379 642 LINE SMOOTH",
"382 659 OFFCURVE",
"383 670 OFFCURVE",
"355 670 CURVE SMOOTH",
"306 670 LINE SMOOTH",
"285 670 OFFCURVE",
"282 661 OFFCURVE",
"279 640 CURVE SMOOTH",
"236 374 LINE SMOOTH",
"223 294 OFFCURVE",
"213 205 OFFCURVE",
"211 114 CURVE",
"203 114 LINE",
"199 180 OFFCURVE",
"190 275 OFFCURVE",
"175 374 CURVE SMOOTH",
"126 700 LINE",
"32 700 LINE SMOOTH",
"6 700 OFFCURVE",
"3 693 OFFCURVE",
"7 671 CURVE",
"7 671 OFFCURVE",
"79 219 OFFCURVE",
"112 57 CURVE SMOOTH",
"119 22 OFFCURVE",
"136 -5 OFFCURVE",
"166 -5 CURVE SMOOTH"
);
}
);
width = 668;
}
);
leftKerningGroup = V;
rightKerningGroup = V;
unicode = 0057;
},
{
glyphname = Wacute;
layers = (
{
associatedMasterId = "B965DA2D-85AA-48ED-BC60-A8A438260572";
layerId = "1A97840C-00EB-45FE-8D8D-2E841865655B";
width = 600;
},
{
background = {
paths = (
{
closed = 1;
nodes = (
"-2 626 OFFCURVE",
"12 619 OFFCURVE",
"24 617 CURVE",
"75 606 OFFCURVE",
"78 584 OFFCURVE",
"104 536 CURVE SMOOTH",
"140 466 OFFCURVE",
"234 248 OFFCURVE",
"271 158 CURVE SMOOTH",
"310 66 OFFCURVE",
"323 27 OFFCURVE",
"333 -1 CURVE",
"339 -16 OFFCURVE",
"343 -20 OFFCURVE",
"351 -20 CURVE SMOOTH",
"357 -20 OFFCURVE",
"370 -8 OFFCURVE",
"374 3 CURVE SMOOTH",
"400 79 OFFCURVE",
"459 197 OFFCURVE",
"490 262 CURVE",
"492 265 OFFCURVE",
"496 263 OFFCURVE",
"498 260 CURVE",
"534 176 OFFCURVE",
"590 60 OFFCURVE",
"605 5 CURVE SMOOTH",
"610 -12 OFFCURVE",
"618 -16 OFFCURVE",
"623 -16 CURVE SMOOTH",
"632 -16 OFFCURVE",
"642 -1 OFFCURVE",
"646 9 CURVE SMOOTH",
"673 76 OFFCURVE",
"679 90 OFFCURVE",
"747 245 CURVE SMOOTH",
"813 394 OFFCURVE",
"879 517 OFFCURVE",
"891 541 CURVE SMOOTH",
"919 595 OFFCURVE",
"938 609 OFFCURVE",
"977 617 CURVE SMOOTH",
"995 621 OFFCURVE",
"1002 627 OFFCURVE",
"1002 635 CURVE SMOOTH",
"1002 642 OFFCURVE",
"993 646 OFFCURVE",
"976 646 CURVE SMOOTH",
"945 646 OFFCURVE",
"911 643 OFFCURVE",
"881 643 CURVE SMOOTH",
"862 643 OFFCURVE",
"836 645 OFFCURVE",
"813 645 CURVE SMOOTH",
"796 645 OFFCURVE",
"787 642 OFFCURVE",
"787 633 CURVE SMOOTH",
"787 627 OFFCURVE",
"797 621 OFFCURVE",
"810 617 CURVE SMOOTH",
"856 604 OFFCURVE",
"861 585 OFFCURVE",
"842 539 CURVE SMOOTH",
"783 405 OFFCURVE",
"702 223 OFFCURVE",
"659 131 CURVE",
"654 122 OFFCURVE",
"650 125 OFFCURVE",
"648 131 CURVE",
"629 166 OFFCURVE",
"584 264 OFFCURVE",
"548 349 CURVE",
"546 351 OFFCURVE",
"544 363 OFFCURVE",
"545 366 CURVE",
"603 480 OFFCURVE",
"630 527 OFFCURVE",
"640 544 CURVE SMOOTH",
"668 594 OFFCURVE",
"682 607 OFFCURVE",
"718 616 CURVE SMOOTH",
"738 621 OFFCURVE",
"746 625 OFFCURVE",
"746 635 CURVE SMOOTH",
"746 642 OFFCURVE",
"737 645 OFFCURVE",
"724 645 CURVE SMOOTH",
"707 645 OFFCURVE",
"672 643 OFFCURVE",
"642 643 CURVE SMOOTH",
"609 643 OFFCURVE",
"590 645 OFFCURVE",
"572 645 CURVE SMOOTH",
"549 645 OFFCURVE",
"543 640 OFFCURVE",
"543 633 CURVE SMOOTH",
"543 629 OFFCURVE",
"552 621 OFFCURVE",
"564 618 CURVE SMOOTH",
"605 608 OFFCURVE",
"620 596 OFFCURVE",
"595 541 CURVE SMOOTH",
"575 495 OFFCURVE",
"556 453 OFFCURVE",
"532 404 CURVE",
"530 402 OFFCURVE",
"525 401 OFFCURVE",
"524 404 CURVE",
"487 486 OFFCURVE",
"461 545 OFFCURVE",
"452 568 CURVE",
"438 600 OFFCURVE",
"440 608 OFFCURVE",
"483 616 CURVE SMOOTH",
"499 619 OFFCURVE",
"507 626 OFFCURVE",
"507 635 CURVE SMOOTH",
"507 642 OFFCURVE",
"495 646 OFFCURVE",
"482 646 CURVE SMOOTH",
"472 646 OFFCURVE",
"433 643 OFFCURVE",
"387 643 CURVE SMOOTH",
"355 643 OFFCURVE",
"318 644 OFFCURVE",
"305 644 CURVE SMOOTH",
"290 644 OFFCURVE",
"276 641 OFFCURVE",
"276 633 CURVE SMOOTH",
"276 627 OFFCURVE",
"283 620 OFFCURVE",
"301 615 CURVE SMOOTH",
"340 604 OFFCURVE",
"346 596 OFFCURVE",
"375 535 CURVE SMOOTH",
"387 509 OFFCURVE",
"433 406 OFFCURVE",
"471 315 CURVE",
"474 310 OFFCURVE",
"473 303 OFFCURVE",
"472 301 CURVE",
"439 227 OFFCURVE",
"394 137 OFFCURVE",
"386 124 CURVE",
"384 121 OFFCURVE",
"379 122 OFFCURVE",
"378 125 CURVE",
"310 271 OFFCURVE",
"202 526 OFFCURVE",
"182 575 CURVE",
"176 592 OFFCURVE",
"179 606 OFFCURVE",
"213 615 CURVE SMOOTH",
"234 621 OFFCURVE",
"240 627 OFFCURVE",
"240 634 CURVE SMOOTH",
"240 641 OFFCURVE",
"234 646 OFFCURVE",
"215 646 CURVE SMOOTH",
"206 646 OFFCURVE",
"154 643 OFFCURVE",
"131 643 CURVE SMOOTH",
"90 643 OFFCURVE",
"68 646 OFFCURVE",
"24 646 CURVE SMOOTH",
"8 646 OFFCURVE",
"-2 640 OFFCURVE",
"-2 635 CURVE SMOOTH"
);
},
{
closed = 1;
nodes = (
"562 805 OFFCURVE",
"507 756 OFFCURVE",
"475 726 CURVE SMOOTH",
"459 711 OFFCURVE",
"461 699 OFFCURVE",
"463 699 CURVE",
"473 689 OFFCURVE",
"491 695 OFFCURVE",
"499 699 CURVE",
"546 720 OFFCURVE",
"600 749 OFFCURVE",
"645 779 CURVE",
"656 785 OFFCURVE",
"667 799 OFFCURVE",
"667 807 CURVE SMOOTH",
"667 821 OFFCURVE",
"645 837 OFFCURVE",
"636 843 CURVE",
"630 844 OFFCURVE",
"617 848 OFFCURVE",
"604 837 CURVE"
);
}
);
};
components = (
{
name = W;
},
{
name = acutecomb;
transform = "{1, 0, 0, 1, 190, 200}";
}
);
layerId = "B965DA2D-85AA-48ED-BC60-A8A438260572";
width = 629;
},
{
components = (
{
name = W;
},
{
name = acutecomb;
transform = "{1, 0, 0, 1, 204, 200}";
}
);
layerId = "113A2EC7-7A34-4A41-8395-62473D9E96C5";
width = 668;
}
);
leftKerningGroup = V;
rightKerningGroup = V;
unicode = 1E82;
},
{
glyphname = Wcircumflex;
layers = (
{
associatedMasterId = "B965DA2D-85AA-48ED-BC60-A8A438260572";
layerId = "1A97840C-00EB-45FE-8D8D-2E841865655B";
width = 600;
},
{
background = {
paths = (
{
closed = 1;
nodes = (
"-2 626 OFFCURVE",
"12 619 OFFCURVE",
"24 617 CURVE",
"75 606 OFFCURVE",
"78 584 OFFCURVE",
"104 536 CURVE SMOOTH",
"140 466 OFFCURVE",
"234 248 OFFCURVE",
"271 158 CURVE SMOOTH",
"310 66 OFFCURVE",
"323 27 OFFCURVE",
"333 -1 CURVE",
"339 -16 OFFCURVE",
"343 -20 OFFCURVE",
"351 -20 CURVE SMOOTH",
"357 -20 OFFCURVE",
"370 -8 OFFCURVE",
"374 3 CURVE SMOOTH",
"400 79 OFFCURVE",
"459 197 OFFCURVE",
"490 262 CURVE",
"492 265 OFFCURVE",
"496 263 OFFCURVE",
"498 260 CURVE",
"534 176 OFFCURVE",
"590 60 OFFCURVE",
"605 5 CURVE SMOOTH",
"610 -12 OFFCURVE",
"618 -16 OFFCURVE",
"623 -16 CURVE SMOOTH",
"632 -16 OFFCURVE",
"642 -1 OFFCURVE",
"646 9 CURVE SMOOTH",
"673 76 OFFCURVE",
"679 90 OFFCURVE",
"747 245 CURVE SMOOTH",
"813 394 OFFCURVE",
"879 517 OFFCURVE",
"891 541 CURVE SMOOTH",
"919 595 OFFCURVE",
"938 609 OFFCURVE",
"977 617 CURVE SMOOTH",
"995 621 OFFCURVE",
"1002 627 OFFCURVE",
"1002 635 CURVE SMOOTH",
"1002 642 OFFCURVE",
"993 646 OFFCURVE",
"976 646 CURVE SMOOTH",
"945 646 OFFCURVE",
"911 643 OFFCURVE",
"881 643 CURVE SMOOTH",
"862 643 OFFCURVE",
"836 645 OFFCURVE",
"813 645 CURVE SMOOTH",
"796 645 OFFCURVE",
"787 642 OFFCURVE",
"787 633 CURVE SMOOTH",
"787 627 OFFCURVE",
"797 621 OFFCURVE",
"810 617 CURVE SMOOTH",
"856 604 OFFCURVE",
"861 585 OFFCURVE",
"842 539 CURVE SMOOTH",
"783 405 OFFCURVE",
"702 223 OFFCURVE",
"659 131 CURVE",
"654 122 OFFCURVE",
"650 125 OFFCURVE",
"648 131 CURVE",
"629 166 OFFCURVE",
"584 264 OFFCURVE",
"548 349 CURVE",
"546 351 OFFCURVE",
"544 363 OFFCURVE",
"545 366 CURVE",
"603 480 OFFCURVE",
"630 527 OFFCURVE",
"640 544 CURVE SMOOTH",
"668 594 OFFCURVE",
"682 607 OFFCURVE",
"718 616 CURVE SMOOTH",
"738 621 OFFCURVE",
"746 625 OFFCURVE",
"746 635 CURVE SMOOTH",
"746 642 OFFCURVE",
"737 645 OFFCURVE",
"724 645 CURVE SMOOTH",
"707 645 OFFCURVE",
"672 643 OFFCURVE",
"642 643 CURVE SMOOTH",
"609 643 OFFCURVE",
"590 645 OFFCURVE",
"572 645 CURVE SMOOTH",
"549 645 OFFCURVE",
"543 640 OFFCURVE",
"543 633 CURVE SMOOTH",
"543 629 OFFCURVE",
"552 621 OFFCURVE",
"564 618 CURVE SMOOTH",
"605 608 OFFCURVE",
"620 596 OFFCURVE",
"595 541 CURVE SMOOTH",
"575 495 OFFCURVE",
"556 453 OFFCURVE",
"532 404 CURVE",
"530 402 OFFCURVE",
"525 401 OFFCURVE",
"524 404 CURVE",
"487 486 OFFCURVE",
"461 545 OFFCURVE",
"452 568 CURVE",
"438 600 OFFCURVE",
"440 608 OFFCURVE",
"483 616 CURVE SMOOTH",
"499 619 OFFCURVE",
"507 626 OFFCURVE",
"507 635 CURVE SMOOTH",
"507 642 OFFCURVE",
"495 646 OFFCURVE",
"482 646 CURVE SMOOTH",
"472 646 OFFCURVE",
"433 643 OFFCURVE",
"387 643 CURVE SMOOTH",
"355 643 OFFCURVE",
"318 644 OFFCURVE",
"305 644 CURVE SMOOTH",
"290 644 OFFCURVE",
"276 641 OFFCURVE",
"276 633 CURVE SMOOTH",
"276 627 OFFCURVE",
"283 620 OFFCURVE",
"301 615 CURVE SMOOTH",
"340 604 OFFCURVE",
"346 596 OFFCURVE",
"375 535 CURVE SMOOTH",
"387 509 OFFCURVE",
"433 406 OFFCURVE",
"471 315 CURVE",
"474 310 OFFCURVE",
"473 303 OFFCURVE",
"472 301 CURVE",
"439 227 OFFCURVE",
"394 137 OFFCURVE",
"386 124 CURVE",
"384 121 OFFCURVE",
"379 122 OFFCURVE",
"378 125 CURVE",
"310 271 OFFCURVE",
"202 526 OFFCURVE",
"182 575 CURVE",
"176 592 OFFCURVE",
"179 606 OFFCURVE",
"213 615 CURVE SMOOTH",
"234 621 OFFCURVE",
"240 627 OFFCURVE",
"240 634 CURVE SMOOTH",
"240 641 OFFCURVE",
"234 646 OFFCURVE",
"215 646 CURVE SMOOTH",
"206 646 OFFCURVE",
"154 643 OFFCURVE",
"131 643 CURVE SMOOTH",
"90 643 OFFCURVE",
"68 646 OFFCURVE",
"24 646 CURVE SMOOTH",
"8 646 OFFCURVE",
"-2 640 OFFCURVE",
"-2 635 CURVE SMOOTH"
);
},
{
closed = 1;
nodes = (
"504 827 OFFCURVE",
"490 817 OFFCURVE",
"475 805 CURVE SMOOTH",
"447 784 OFFCURVE",
"404 744 OFFCURVE",
"379 726 CURVE",
"358 706 OFFCURVE",
"359 696 OFFCURVE",
"378 696 CURVE SMOOTH",
"386 696 OFFCURVE",
"400 704 OFFCURVE",
"408 706 CURVE",
"438 721 OFFCURVE",
"475 739 OFFCURVE",
"502 751 CURVE",
"507 753 OFFCURVE",
"513 756 OFFCURVE",
"520 752 CURVE",
"552 737 OFFCURVE",
"584 720 OFFCURVE",
"618 705 CURVE SMOOTH",
"625 702 OFFCURVE",
"640 696 OFFCURVE",
"648 696 CURVE SMOOTH",
"666 696 OFFCURVE",
"662 715 OFFCURVE",
"646 725 CURVE",
"607 758 OFFCURVE",
"571 788 OFFCURVE",
"556 802 CURVE",
"538 817 OFFCURVE",
"524 827 OFFCURVE",
"515 827 CURVE SMOOTH"
);
}
);
};
components = (
{
name = W;
},
{
name = circumflexcomb;
transform = "{1, 0, 0, 1, 190, 200}";
}
);
layerId = "B965DA2D-85AA-48ED-BC60-A8A438260572";
width = 629;
},
{
components = (
{
name = W;
},
{
name = circumflexcomb;
transform = "{1, 0, 0, 1, 194, 200}";
}
);
layerId = "113A2EC7-7A34-4A41-8395-62473D9E96C5";
width = 668;
}
);
leftKerningGroup = V;
rightKerningGroup = V;
unicode = 0174;
},
